BosaLisuMaster-Italic.ufo
<glyph name="numbersign" format="2">
  <advance width="410"/>
  <unicode hex="0023"/>
  <outline>
    <contour>
      <point x="243" y="215" type="line"/>
      <point x="284" y="328" type="line"/>
      <point x="171" y="328" type="line"/>
      <point x="130" y="215" type="line"/>
    </contour>
    <contour>
      <point x="390" y="215" type="line"/>
      <point x="381" y="164" type="line"/>
      <point x="276" y="164" type="line"/>
      <point x="216" y="-4" type="line"/>
      <point x="164" y="-4" type="line"/>
      <point x="224" y="164" type="line"/>
      <point x="110" y="164" type="line"/>
      <point x="51" y="-4" type="line"/>
      <point x="-2" y="-4" type="line"/>
      <point x="59" y="164" type="line"/>
      <point x="-9" y="164" type="line"/>
      <point x="0" y="215" type="line"/>
      <point x="78" y="215" type="line"/>
      <point x="119" y="328" type="line"/>
      <point x="20" y="328" type="line"/>
      <point x="29" y="379" type="line"/>
      <point x="137" y="379" type="line"/>
      <point x="196" y="542" type="line"/>
      <point x="248" y="542" type="line"/>
      <point x="189" y="379" type="line"/>
      <point x="303" y="379" type="line"/>
      <point x="362" y="542" type="line"/>
      <point x="414" y="542" type="line"/>
      <point x="355" y="379" type="line"/>
      <point x="419" y="379" type="line"/>
      <point x="410" y="328" type="line"/>
      <point x="336" y="328" type="line"/>
      <point x="296" y="215" type="line"/>
    </contour>
  </outline>
</glyph>
<glyph name="dollar" format="2">
  <advance width="440"/>
  <unicode hex="0024"/>
  <outline>
    <contour>
      <point x="160" y="381" type="curve" smooth="yes"/>
      <point x="160" y="321"/>
      <point x="340" y="259"/>
      <point x="340" y="159" type="curve" smooth="yes"/>
      <point x="340" y="85"/>
      <point x="273" y="24"/>
      <point x="175" y="24" type="curve" smooth="yes"/>
      <point x="107" y="24"/>
      <point x="48" y="71"/>
      <point x="32" y="98" type="curve" smooth="yes"/>
      <point x="24" y="111"/>
      <point x="16" y="125"/>
      <point x="16" y="139" type="curve" smooth="yes"/>
      <point x="16" y="159"/>
      <point x="51" y="172"/>
      <point x="67" y="172" type="curve" smooth="yes"/>
      <point x="73" y="172"/>
      <point x="77" y="170"/>
      <point x="81" y="163" type="curve" smooth="yes"/>
      <point x="84" y="158"/>
      <point x="87" y="153"/>
      <point x="93" y="143" type="curve" smooth="yes"/>
      <point x="105" y="123"/>
      <point x="135" y="93"/>
      <point x="184" y="93" type="curve" smooth="yes"/>
      <point x="230" y="93"/>
      <point x="266" y="117"/>
      <point x="266" y="149" type="curve" smooth="yes"/>
      <point x="266" y="231"/>
      <point x="86" y="270"/>
      <point x="86" y="375" type="curve" smooth="yes"/>
      <point x="86" y="438"/>
      <point x="141" y="503"/>
      <point x="239" y="503" type="curve" smooth="yes"/>
      <point x="293" y="503"/>
      <point x="333" y="482"/>
      <point x="356" y="461" type="curve" smooth="yes"/>
      <point x="373" y="446"/>
      <point x="386" y="426"/>
      <point x="386" y="414" type="curve" smooth="yes"/>
      <point x="386" y="398"/>
      <point x="348" y="382"/>
      <point x="333" y="382" type="curve" smooth="yes"/>
      <point x="326" y="382"/>
      <point x="321" y="387"/>
      <point x="316" y="393" type="curve" smooth="yes"/>
      <point x="294" y="420"/>
      <point x="269" y="434"/>
      <point x="230" y="434" type="curve" smooth="yes"/>
      <point x="189" y="434"/>
      <point x="160" y="412"/>
    </contour>
    <contour>
      <point x="121" y="-9" type="curve" smooth="yes"/>
      <point x="98" y="-9"/>
      <point x="90" y="3"/>
      <point x="90" y="11" type="curve" smooth="yes"/>
      <point x="90" y="18"/>
      <point x="92" y="24"/>
      <point x="94" y="30" type="curve" smooth="yes"/>
      <point x="106" y="67"/>
      <point x="121" y="104"/>
      <point x="134" y="140" type="curve" smooth="yes"/>
      <point x="167" y="230"/>
      <point x="196" y="313"/>
      <point x="226" y="403" type="curve" smooth="yes"/>
      <point x="237" y="436"/>
      <point x="247" y="469"/>
      <point x="258" y="502" type="curve" smooth="yes"/>
      <point x="260" y="507"/>
      <point x="266" y="522"/>
      <point x="271" y="528" type="curve" smooth="yes"/>
      <point x="276" y="534"/>
      <point x="284" y="538"/>
      <point x="296" y="538" type="curve" smooth="yes"/>
      <point x="316" y="538"/>
      <point x="330" y="527"/>
      <point x="330" y="516" type="curve" smooth="yes"/>
      <point x="330" y="513"/>
      <point x="326" y="501"/>
      <point x="324" y="495" type="curve" smooth="yes"/>
      <point x="310" y="452"/>
      <point x="290" y="409"/>
      <point x="274" y="366" type="curve" smooth="yes"/>
      <point x="239" y="272"/>
      <point x="208" y="177"/>
      <point x="185" y="104" type="curve" smooth="yes"/>
      <point x="173" y="66"/>
      <point x="164" y="33"/>
      <point x="159" y="17" type="curve" smooth="yes"/>
      <point x="154" y="0"/>
      <point x="143" y="-9"/>
    </contour>
  </outline>
</glyph>
<glyph name="hyphen" format="2">
  <advance width="375"/>
  <unicode hex="002D"/>
  <outline>
    <contour>
      <point x="44" y="269" type="curve" smooth="yes"/>
      <point x="41" y="260"/>
      <point x="40" y="251"/>
      <point x="40" y="246" type="curve" smooth="yes"/>
      <point x="40" y="233"/>
      <point x="46" y="228"/>
      <point x="51" y="226" type="curve" smooth="yes"/>
      <point x="58" y="223"/>
      <point x="66" y="223"/>
      <point x="70" y="223" type="curve" smooth="yes"/>
      <point x="110" y="223"/>
      <point x="135" y="225"/>
      <point x="217" y="225" type="curve" smooth="yes"/>
      <point x="251" y="225"/>
      <point x="281" y="224"/>
      <point x="318" y="224" type="curve" smooth="yes"/>
      <point x="326" y="224"/>
      <point x="340" y="225"/>
      <point x="346" y="228" type="curve" smooth="yes"/>
      <point x="352" y="231"/>
      <point x="359" y="237"/>
      <point x="365" y="255" type="curve" smooth="yes"/>
      <point x="367" y="262"/>
      <point x="369" y="271"/>
      <point x="369" y="277" type="curve" smooth="yes"/>
      <point x="369" y="293"/>
      <point x="362" y="299"/>
      <point x="340" y="299" type="curve" smooth="yes"/>
      <point x="309" y="299"/>
      <point x="263" y="298"/>
      <point x="202" y="298" type="curve" smooth="yes"/>
      <point x="143" y="298"/>
      <point x="108" y="299"/>
      <point x="82" y="299" type="curve" smooth="yes"/>
      <point x="64" y="299"/>
      <point x="54" y="296"/>
    </contour>
  </outline>
</glyph>
<glyph name="period" format="2">
  <advance width="291"/>
  <unicode hex="002E"/>
  <outline>
    <contour>
      <point x="47" y="42" type="curve" smooth="yes"/>
      <point x="47" y="11"/>
      <point x="70" y="-11"/>
      <point x="103" y="-11" type="curve" smooth="yes"/>
      <point x="135" y="-11"/>
      <point x="166" y="16"/>
      <point x="166" y="52" type="curve" smooth="yes"/>
      <point x="166" y="82"/>
      <point x="145" y="107"/>
      <point x="111" y="107" type="curve" smooth="yes"/>
      <point x="78" y="107"/>
      <point x="47" y="78"/>
    </contour>
  </outline>
</glyph>
<glyph name="zero" format="2">
  <advance width="474"/>
  <unicode hex="0030"/>
  <outline>
    <contour>
      <point x="435" y="233"/>
      <point x="354" y="-8"/>
      <point x="187" y="-8" type="curve" smooth="yes"/>
      <point x="107" y="-8"/>
      <point x="65" y="70"/>
      <point x="65" y="160" type="curve" smooth="yes"/>
      <point x="65" y="297"/>
      <point x="145" y="538"/>
      <point x="312" y="538" type="curve" smooth="yes"/>
      <point x="392" y="538"/>
      <point x="435" y="460"/>
      <point x="435" y="370" type="curve" smooth="yes"/>
    </contour>
    <contour>
      <point x="314" y="66"/>
      <point x="360" y="286"/>
      <point x="360" y="367" type="curve" smooth="yes"/>
      <point x="360" y="429"/>
      <point x="340" y="465"/>
      <point x="297" y="465" type="curve" smooth="yes"/>
      <point x="185" y="465"/>
      <point x="140" y="240"/>
      <point x="140" y="162" type="curve" smooth="yes"/>
      <point x="140" y="100"/>
      <point x="162" y="66"/>
      <point x="203" y="66" type="curve" smooth="yes"/>
    </contour>
  </outline>
</glyph>
<glyph name="three" format="2">
  <advance width="474"/>
  <unicode hex="0033"/>
  <outline>
    <contour>
      <point x="392" y="163" type="curve" smooth="yes"/>
      <point x="366" y="67"/>
      <point x="265" y="-7"/>
      <point x="169" y="-7" type="curve" smooth="yes"/>
      <point x="74" y="-7"/>
      <point x="26" y="58"/>
      <point x="42" y="153" type="curve"/>
      <point x="125" y="165" type="line"/>
      <point x="112" y="100"/>
      <point x="133" y="67"/>
      <point x="189" y="67" type="curve" smooth="yes"/>
      <point x="241" y="67"/>
      <point x="298" y="108"/>
      <point x="312" y="160" type="curve" smooth="yes"/>
      <point x="326" y="212"/>
      <point x="295" y="247"/>
      <point x="241" y="247" type="curve" smooth="yes"/>
      <point x="236" y="247"/>
      <point x="228" y="247"/>
      <point x="217" y="246" type="curve" smooth="yes"/>
      <point x="207" y="245"/>
      <point x="199" y="245"/>
      <point x="194" y="245" type="curve"/>
      <point x="211" y="310" type="line"/>
      <point x="220" y="309"/>
      <point x="232" y="309"/>
      <point x="248" y="309" type="curve" smooth="yes"/>
      <point x="297" y="309"/>
      <point x="339" y="345"/>
      <point x="352" y="396" type="curve" smooth="yes"/>
      <point x="362" y="435"/>
      <point x="333" y="462"/>
      <point x="293" y="462" type="curve" smooth="yes"/>
      <point x="241" y="462"/>
      <point x="202" y="436"/>
      <point x="176" y="385" type="curve"/>
      <point x="108" y="394" type="line"/>
      <point x="146" y="477"/>
      <point x="229" y="537"/>
      <point x="312" y="537" type="curve" smooth="yes"/>
      <point x="393" y="537"/>
      <point x="451" y="475"/>
      <point x="430" y="394" type="curve" smooth="yes"/>
      <point x="418" y="353"/>
      <point x="391" y="317"/>
      <point x="346" y="287" type="curve"/>
      <point x="391" y="258"/>
      <point x="406" y="216"/>
    </contour>
  </outline>
</glyph>
<glyph name="five" format="2">
  <advance width="474"/>
  <unicode hex="0035"/>
  <outline>
    <contour>
      <point x="384" y="179" type="curve" smooth="yes"/>
      <point x="355" y="71"/>
      <point x="261" y="-12"/>
      <point x="154" y="-12" type="curve" smooth="yes"/>
      <point x="79" y="-12"/>
      <point x="36" y="26"/>
      <point x="23" y="103" type="curve"/>
      <point x="107" y="124" type="line"/>
      <point x="110" y="87"/>
      <point x="141" y="60"/>
      <point x="179" y="60" type="curve" smooth="yes"/>
      <point x="209" y="60"/>
      <point x="236" y="72"/>
      <point x="260" y="96" type="curve" smooth="yes"/>
      <point x="283" y="118"/>
      <point x="298" y="144"/>
      <point x="306" y="174" type="curve" smooth="yes"/>
      <point x="323" y="237"/>
      <point x="298" y="290"/>
      <point x="237" y="290" type="curve" smooth="yes"/>
      <point x="206" y="290"/>
      <point x="174" y="274"/>
      <point x="140" y="243" type="curve"/>
      <point x="70" y="253" type="line"/>
      <point x="195" y="532" type="line"/>
      <point x="460" y="532" type="line"/>
      <point x="439" y="454" type="line"/>
      <point x="237" y="454" type="line"/>
      <point x="188" y="344" type="line"/>
      <point x="225" y="359"/>
      <point x="254" y="366"/>
      <point x="274" y="366" type="curve" smooth="yes"/>
      <point x="323" y="366"/>
      <point x="357" y="346"/>
      <point x="377" y="307" type="curve" smooth="yes"/>
      <point x="395" y="271"/>
      <point x="398" y="228"/>
    </contour>
  </outline>
</glyph>
<glyph name="seven" format="2">
  <advance width="474"/>
  <unicode hex="0037"/>
  <outline>
    <contour>
      <point x="118" y="492" type="curve" smooth="yes"/>
      <point x="125" y="473"/>
      <point x="139" y="461"/>
      <point x="157" y="461" type="curve" smooth="yes"/>
      <point x="174" y="461"/>
      <point x="198" y="461"/>
      <point x="237" y="461" type="curve" smooth="yes"/>
      <point x="266" y="461"/>
      <point x="305" y="462"/>
      <point x="338" y="462" type="curve" smooth="yes"/>
      <point x="383" y="462"/>
      <point x="391" y="460"/>
      <point x="436" y="460" type="curve" smooth="yes"/>
      <point x="442" y="460"/>
      <point x="459" y="461"/>
      <point x="462" y="462" type="curve" smooth="yes"/>
      <point x="466" y="463"/>
      <point x="474" y="469"/>
      <point x="474" y="480" type="curve" smooth="yes"/>
      <point x="474" y="485"/>
      <point x="473" y="492"/>
      <point x="471" y="499" type="curve" smooth="yes"/>
      <point x="466" y="517"/>
      <point x="456" y="524"/>
      <point x="448" y="527" type="curve" smooth="yes"/>
      <point x="441" y="530"/>
      <point x="422" y="532"/>
      <point x="407" y="532" type="curve" smooth="yes"/>
      <point x="398" y="532"/>
      <point x="350" y="532"/>
      <point x="302" y="532" type="curve" smooth="yes"/>
      <point x="244" y="532"/>
      <point x="184" y="533"/>
      <point x="144" y="533" type="curve" smooth="yes"/>
      <point x="122" y="533"/>
      <point x="114" y="525"/>
      <point x="114" y="511" type="curve" smooth="yes"/>
      <point x="114" y="506"/>
      <point x="115" y="501"/>
    </contour>
    <contour>
      <point x="155" y="6" type="curve" smooth="yes"/>
      <point x="159" y="14"/>
      <point x="169" y="43"/>
      <point x="178" y="63" type="curve" smooth="yes"/>
      <point x="224" y="167"/>
      <point x="302" y="312"/>
      <point x="444" y="443" type="curve" smooth="yes"/>
      <point x="472" y="469"/>
      <point x="472" y="471"/>
      <point x="472" y="478" type="curve" smooth="yes"/>
      <point x="472" y="484"/>
      <point x="471" y="489"/>
      <point x="465" y="498" type="curve" smooth="yes"/>
      <point x="460" y="505"/>
      <point x="448" y="514"/>
      <point x="431" y="514" type="curve" smooth="yes"/>
      <point x="418" y="514"/>
      <point x="406" y="506"/>
      <point x="398" y="498" type="curve" smooth="yes"/>
      <point x="273" y="373"/>
      <point x="161" y="219"/>
      <point x="91" y="47" type="curve" smooth="yes"/>
      <point x="82" y="25"/>
      <point x="79" y="15"/>
      <point x="79" y="9" type="curve" smooth="yes"/>
      <point x="79" y="1"/>
      <point x="86" y="-8"/>
      <point x="117" y="-8" type="curve" smooth="yes"/>
      <point x="141" y="-8"/>
      <point x="152" y="0"/>
    </contour>
  </outline>
</glyph>
<glyph name="eight" format="2">
  <advance width="474"/>
  <unicode hex="0038"/>
  <outline>
    <contour>
      <point x="381" y="146" type="curve" smooth="yes"/>
      <point x="357" y="55"/>
      <point x="258" y="-10"/>
      <point x="166" y="-10" type="curve" smooth="yes"/>
      <point x="120" y="-10"/>
      <point x="84" y="5"/>
      <point x="57" y="34" type="curve" smooth="yes"/>
      <point x="30" y="65"/>
      <point x="22" y="103"/>
      <point x="34" y="148" type="curve" smooth="yes"/>
      <point x="50" y="208"/>
      <point x="89" y="254"/>
      <point x="150" y="287" type="curve"/>
      <point x="119" y="314"/>
      <point x="110" y="351"/>
      <point x="123" y="398" type="curve" smooth="yes"/>
      <point x="145" y="479"/>
      <point x="230" y="538"/>
      <point x="311" y="538" type="curve" smooth="yes"/>
      <point x="395" y="538"/>
      <point x="450" y="479"/>
      <point x="427" y="396" type="curve" smooth="yes"/>
      <point x="416" y="354"/>
      <point x="387" y="317"/>
      <point x="341" y="284" type="curve"/>
      <point x="384" y="252"/>
      <point x="397" y="206"/>
    </contour>
    <contour>
      <point x="349" y="393" type="curve" smooth="yes"/>
      <point x="360" y="436"/>
      <point x="337" y="469"/>
      <point x="294" y="469" type="curve" smooth="yes"/>
      <point x="251" y="469"/>
      <point x="209" y="436"/>
      <point x="198" y="393" type="curve" smooth="yes"/>
      <point x="187" y="353"/>
      <point x="211" y="318"/>
      <point x="251" y="318" type="curve" smooth="yes"/>
      <point x="294" y="318"/>
      <point x="337" y="350"/>
    </contour>
    <contour>
      <point x="305" y="152" type="curve" smooth="yes"/>
      <point x="320" y="207"/>
      <point x="289" y="249"/>
      <point x="234" y="249" type="curve" smooth="yes"/>
      <point x="181" y="249"/>
      <point x="127" y="207"/>
      <point x="113" y="154" type="curve" smooth="yes"/>
      <point x="98" y="101"/>
      <point x="132" y="59"/>
      <point x="185" y="59" type="curve" smooth="yes"/>
      <point x="236" y="59"/>
      <point x="291" y="101"/>
    </contour>
  </outline>
</glyph>
<glyph name="nine" format="2">
  <advance width="474"/>
  <unicode hex="0039"/>
  <outline>
    <contour>
      <point x="417" y="279" type="curve" smooth="yes"/>
      <point x="364" y="81"/>
      <point x="275" y="-18"/>
      <point x="149" y="-18" type="curve" smooth="yes"/>
      <point x="71" y="-18"/>
      <point x="21" y="29"/>
      <point x="33" y="105" type="curve"/>
      <point x="108" y="113" type="line"/>
      <point x="104" y="80"/>
      <point x="129" y="54"/>
      <point x="163" y="54" type="curve" smooth="yes"/>
      <point x="201" y="54"/>
      <point x="236" y="74"/>
      <point x="269" y="113" type="curve" smooth="yes"/>
      <point x="295" y="144"/>
      <point x="314" y="181"/>
      <point x="325" y="224" type="curve" smooth="yes"/>
      <point x="328" y="236" type="line"/>
      <point x="294" y="205"/>
      <point x="253" y="190"/>
      <point x="204" y="190" type="curve" smooth="yes"/>
      <point x="109" y="190"/>
      <point x="66" y="264"/>
      <point x="91" y="359" type="curve" smooth="yes"/>
      <point x="117" y="456"/>
      <point x="209" y="539"/>
      <point x="305" y="539" type="curve" smooth="yes"/>
      <point x="371" y="539"/>
      <point x="412" y="511"/>
      <point x="428" y="454" type="curve" smooth="yes"/>
      <point x="440" y="410"/>
      <point x="436" y="352"/>
    </contour>
    <contour>
      <point x="351" y="362" type="curve" smooth="yes"/>
      <point x="367" y="419"/>
      <point x="341" y="468"/>
      <point x="285" y="468" type="curve" smooth="yes"/>
      <point x="231" y="468"/>
      <point x="182" y="419"/>
      <point x="168" y="364" type="curve" smooth="yes"/>
      <point x="152" y="307"/>
      <point x="176" y="259"/>
      <point x="232" y="259" type="curve" smooth="yes"/>
      <point x="284" y="259"/>
      <point x="337" y="309"/>
    </contour>
  </outline>
</glyph>
<glyph name="colon" format="2">
  <advance width="279"/>
  <unicode hex="003A"/>
  <outline>
    <contour>
      <point x="111" y="-10" type="curve" smooth="yes"/>
      <point x="148" y="-10"/>
      <point x="178" y="18"/>
      <point x="178" y="56" type="curve" smooth="yes"/>
      <point x="178" y="86"/>
      <point x="156" y="111"/>
      <point x="123" y="111" type="curve" smooth="yes"/>
      <point x="86" y="111"/>
      <point x="54" y="82"/>
      <point x="54" y="45" type="curve" smooth="yes"/>
      <point x="54" y="13"/>
      <point x="78" y="-10"/>
    </contour>
    <contour>
      <point x="182" y="321" type="curve" smooth="yes"/>
      <point x="218" y="321"/>
      <point x="248" y="349"/>
      <point x="248" y="387" type="curve" smooth="yes"/>
      <point x="248" y="417"/>
      <point x="226" y="442"/>
      <point x="193" y="442" type="curve" smooth="yes"/>
      <point x="156" y="442"/>
      <point x="124" y="414"/>
      <point x="124" y="376" type="curve" smooth="yes"/>
      <point x="124" y="345"/>
      <point x="149" y="321"/>
    </contour>
  </outline>
</glyph>
<glyph name="semicolon" format="2">
  <advance width="279"/>
  <unicode hex="003B"/>
  <outline>
    <contour>
      <point x="182" y="321" type="curve" smooth="yes"/>
      <point x="218" y="321"/>
      <point x="248" y="349"/>
      <point x="248" y="387" type="curve" smooth="yes"/>
      <point x="248" y="417"/>
      <point x="226" y="442"/>
      <point x="193" y="442" type="curve" smooth="yes"/>
      <point x="156" y="442"/>
      <point x="124" y="414"/>
      <point x="124" y="376" type="curve" smooth="yes"/>
      <point x="124" y="345"/>
      <point x="149" y="321"/>
    </contour>
    <contour>
      <point x="16" y="-147" type="line"/>
      <point x="109" y="-112"/>
      <point x="182" y="-28"/>
      <point x="182" y="61" type="curve" smooth="yes"/>
      <point x="182" y="77"/>
      <point x="178" y="88"/>
      <point x="172" y="99" type="curve"/>
      <point x="158" y="106"/>
      <point x="141" y="112"/>
      <point x="126" y="112" type="curve" smooth="yes"/>
      <point x="85" y="112"/>
      <point x="67" y="84"/>
      <point x="67" y="56" type="curve" smooth="yes"/>
      <point x="67" y="36"/>
      <point x="74" y="17"/>
      <point x="86" y="5" type="curve" smooth="yes"/>
      <point x="124" y="-35" type="line"/>
      <point x="121" y="-7" type="line"/>
      <point x="91" y="-61"/>
      <point x="52" y="-96"/>
      <point x="2" y="-119" type="curve"/>
    </contour>
  </outline>
</glyph>
<glyph name="less" format="2">
  <advance width="489"/>
  <unicode hex="003C"/>
  <outline>
    <contour>
      <point x="77" y="280" type="line"/>
      <point x="414" y="87" type="line"/>
      <point x="441" y="137" type="line"/>
      <point x="126" y="310" type="line"/>
      <point x="126" y="295" type="line"/>
      <point x="441" y="468" type="line"/>
      <point x="414" y="517" type="line"/>
      <point x="77" y="324" type="line"/>
    </contour>
  </outline>
</glyph>
<glyph name="question" format="2">
  <advance width="410"/>
  <unicode hex="003F"/>
  <outline>
    <contour>
      <point x="68" y="42" type="curve" smooth="yes"/>
      <point x="68" y="11"/>
      <point x="91" y="-11"/>
      <point x="124" y="-11" type="curve" smooth="yes"/>
      <point x="156" y="-11"/>
      <point x="187" y="16"/>
      <point x="187" y="52" type="curve" smooth="yes"/>
      <point x="187" y="82"/>
      <point x="166" y="107"/>
      <point x="132" y="107" type="curve" smooth="yes"/>
      <point x="99" y="107"/>
      <point x="68" y="78"/>
    </contour>
    <contour>
      <point x="121" y="170" type="curve"/>
      <point x="154" y="165" type="line"/>
      <point x="164" y="231"/>
      <point x="173" y="253"/>
      <point x="192" y="275" type="curve" smooth="yes"/>
      <point x="203" y="288"/>
      <point x="226" y="302"/>
      <point x="307" y="351" type="curve" smooth="yes"/>
      <point x="403" y="409"/>
      <point x="436" y="448"/>
      <point x="436" y="515" type="curve" smooth="yes"/>
      <point x="436" y="591"/>
      <point x="375" y="629"/>
      <point x="291" y="629" type="curve" smooth="yes"/>
      <point x="191" y="629"/>
      <point x="139" y="574"/>
      <point x="126" y="518" type="curve"/>
      <point x="127" y="496"/>
      <point x="142" y="481"/>
      <point x="162" y="481" type="curve" smooth="yes"/>
      <point x="189" y="481"/>
      <point x="202" y="494"/>
      <point x="213" y="520" type="curve" smooth="yes"/>
      <point x="245" y="599" type="line"/>
      <point x="197" y="578" type="line"/>
      <point x="218" y="584"/>
      <point x="243" y="591"/>
      <point x="283" y="591" type="curve" smooth="yes"/>
      <point x="337" y="591"/>
      <point x="368" y="566"/>
      <point x="368" y="524" type="curve" smooth="yes"/>
      <point x="368" y="485"/>
      <point x="344" y="448"/>
      <point x="273" y="406" type="curve" smooth="yes"/>
      <point x="189" y="356"/>
      <point x="173" y="339"/>
      <point x="156" y="320" type="curve" smooth="yes"/>
      <point x="131" y="292"/>
      <point x="124" y="256"/>
    </contour>
  </outline>
</glyph>
<glyph name="at" format="2">
  <advance width="800"/>
  <unicode hex="0040"/>
  <outline>
    <contour>
      <point x="319" y="38" type="curve" smooth="yes"/>
      <point x="377" y="38"/>
      <point x="448" y="102"/>
      <point x="506" y="184" type="curve"/>
      <point x="498" y="204" type="line"/>
      <point x="431" y="125"/>
      <point x="392" y="98"/>
      <point x="358" y="98" type="curve" smooth="yes"/>
      <point x="329" y="98"/>
      <point x="310" y="121"/>
      <point x="310" y="172" type="curve" smooth="yes"/>
      <point x="310" y="300"/>
      <point x="404" y="394"/>
      <point x="466" y="394" type="curve" smooth="yes"/>
      <point x="494" y="394"/>
      <point x="521" y="379"/>
      <point x="541" y="362" type="curve"/>
      <point x="575" y="385" type="line"/>
      <point x="552" y="422"/>
      <point x="531" y="449"/>
      <point x="495" y="449" type="curve" smooth="yes"/>
      <point x="389" y="449"/>
      <point x="240" y="280"/>
      <point x="240" y="136" type="curve" smooth="yes"/>
      <point x="240" y="68"/>
      <point x="279" y="38"/>
    </contour>
    <contour>
      <point x="533" y="38" type="curve" smooth="yes"/>
      <point x="621" y="38"/>
      <point x="778" y="132"/>
      <point x="778" y="325" type="curve" smooth="yes"/>
      <point x="778" y="478"/>
      <point x="693" y="606"/>
      <point x="498" y="606" type="curve" smooth="yes"/>
      <point x="257" y="606"/>
      <point x="58" y="413"/>
      <point x="58" y="147" type="curve" smooth="yes"/>
      <point x="58" y="-28"/>
      <point x="178" y="-142"/>
      <point x="359" y="-142" type="curve" smooth="yes"/>
      <point x="414" y="-142"/>
      <point x="481" y="-130"/>
      <point x="536" y="-103" type="curve"/>
      <point x="526" y="-72" type="line"/>
      <point x="483" y="-89"/>
      <point x="437" y="-98"/>
      <point x="381" y="-98" type="curve" smooth="yes"/>
      <point x="214" y="-98"/>
      <point x="116" y="-6"/>
      <point x="116" y="160" type="curve" smooth="yes"/>
      <point x="116" y="389"/>
      <point x="287" y="568"/>
      <point x="494" y="568" type="curve" smooth="yes"/>
      <point x="637" y="568"/>
      <point x="726" y="471"/>
      <point x="726" y="327" type="curve" smooth="yes"/>
      <point x="726" y="158"/>
      <point x="614" y="89"/>
      <point x="561" y="89" type="curve" smooth="yes"/>
      <point x="530" y="89"/>
      <point x="521" y="103"/>
      <point x="532" y="150" type="curve" smooth="yes"/>
      <point x="599" y="449" type="line"/>
      <point x="585" y="458" type="line"/>
      <point x="523" y="411" type="line"/>
      <point x="467" y="153" type="line" smooth="yes"/>
      <point x="452" y="88"/>
      <point x="465" y="38"/>
    </contour>
  </outline>
</glyph>
<glyph name="A" format="2">
  <advance width="623"/>
  <unicode hex="0041"/>
  <anchor x="397" y="634" name="aboveUC"/>
  <anchor x="257" y="-20" name="belowLC"/>
  <anchor x="484" y="0" name="ogonek"/>
  <outline>
    <contour>
      <point x="-26" y="0" type="line"/>
      <point x="179" y="0" type="line"/>
      <point x="187" y="38" type="line"/>
      <point x="96" y="52" type="line"/>
      <point x="79" y="52" type="line"/>
      <point x="-19" y="38" type="line"/>
    </contour>
    <contour>
      <point x="30" y="0" type="line"/>
      <point x="81" y="0" type="line"/>
      <point x="368" y="546" type="line"/>
      <point x="353" y="541" type="line"/>
      <point x="426" y="0" type="line"/>
      <point x="516" y="0" type="line"/>
      <point x="427" y="614" type="line"/>
      <point x="369" y="614" type="line"/>
    </contour>
    <contour>
      <point x="177" y="218" type="line"/>
      <point x="441" y="218" type="line"/>
      <point x="451" y="262" type="line"/>
      <point x="191" y="262" type="line"/>
    </contour>
    <contour>
      <point x="333" y="0" type="line"/>
      <point x="582" y="0" type="line"/>
      <point x="589" y="38" type="line"/>
      <point x="478" y="52" type="line"/>
      <point x="460" y="52" type="line"/>
      <point x="341" y="38" type="line"/>
    </contour>
  </outline>
</glyph>
<glyph name="F" format="2">
  <advance width="506"/>
  <unicode hex="0046"/>
  <anchor x="360" y="634" name="aboveUC"/>
  <anchor x="137" y="-20" name="belowLC"/>
  <outline>
    <contour>
      <point x="12" y="0" type="line"/>
      <point x="266" y="0" type="line"/>
      <point x="274" y="38" type="line"/>
      <point x="158" y="52" type="line"/>
      <point x="138" y="52" type="line"/>
      <point x="20" y="38" type="line"/>
    </contour>
    <contour>
      <point x="90" y="0" type="line"/>
      <point x="178" y="0" type="line"/>
      <point x="194" y="94"/>
      <point x="210" y="190"/>
      <point x="228" y="285" type="curve" smooth="yes"/>
      <point x="289" y="614" type="line"/>
      <point x="200" y="614" type="line"/>
      <point x="185" y="519"/>
      <point x="169" y="424"/>
      <point x="151" y="329" type="curve" smooth="yes"/>
    </contour>
    <contour>
      <point x="110" y="575" type="line"/>
      <point x="223" y="562" type="line"/>
      <point x="235" y="562" type="line"/>
      <point x="245" y="614" type="line"/>
      <point x="118" y="614" type="line"/>
    </contour>
    <contour>
      <point x="188" y="292" type="line"/>
      <point x="393" y="292" type="line"/>
      <point x="402" y="335" type="line"/>
      <point x="196" y="335" type="line"/>
    </contour>
    <contour>
      <point x="236" y="567" type="line"/>
      <point x="517" y="567" type="line"/>
      <point x="482" y="614" type="line"/>
      <point x="482" y="451" type="line"/>
      <point x="531" y="451" type="line"/>
      <point x="557" y="614" type="line"/>
      <point x="245" y="614" type="line"/>
    </contour>
    <contour>
      <point x="365" y="197" type="line"/>
      <point x="404" y="197" type="line"/>
      <point x="445" y="422" type="line"/>
      <point x="404" y="422" type="line"/>
      <point x="371" y="326" type="line"/>
      <point x="368" y="307" type="line"/>
    </contour>
  </outline>
</glyph>
<glyph name="G" format="2">
  <advance width="603"/>
  <unicode hex="0047"/>
  <anchor x="399" y="634" name="aboveUC"/>
  <anchor x="324" y="-20" name="belowLC"/>
  <outline>
    <contour>
      <point x="51" y="254" type="curve" smooth="yes"/>
      <point x="51" y="93"/>
      <point x="153" y="-13"/>
      <point x="321" y="-13" type="curve" smooth="yes"/>
      <point x="390" y="-13"/>
      <point x="445" y="0"/>
      <point x="502" y="26" type="curve"/>
      <point x="551" y="294" type="line"/>
      <point x="461" y="294" type="line"/>
      <point x="451" y="224"/>
      <point x="439" y="152"/>
      <point x="426" y="81" type="curve" smooth="yes"/>
      <point x="416" y="25" type="line"/>
      <point x="468" y="58" type="line"/>
      <point x="427" y="42"/>
      <point x="388" y="32"/>
      <point x="345" y="32" type="curve" smooth="yes"/>
      <point x="239" y="32"/>
      <point x="143" y="112"/>
      <point x="143" y="258" type="curve" smooth="yes"/>
      <point x="143" y="433"/>
      <point x="247" y="582"/>
      <point x="406" y="582" type="curve" smooth="yes"/>
      <point x="455" y="582"/>
      <point x="507" y="569"/>
      <point x="542" y="541" type="curve"/>
      <point x="502" y="580" type="line"/>
      <point x="504" y="449" type="line"/>
      <point x="557" y="449" type="line"/>
      <point x="578" y="579" type="line"/>
      <point x="520" y="618"/>
      <point x="472" y="629"/>
      <point x="404" y="629" type="curve" smooth="yes"/>
      <point x="214" y="629"/>
      <point x="51" y="470"/>
    </contour>
    <contour>
      <point x="364" y="255" type="line"/>
      <point x="474" y="241" type="line"/>
      <point x="497" y="241" type="line"/>
      <point x="608" y="255" type="line"/>
      <point x="615" y="294" type="line"/>
      <point x="370" y="294" type="line"/>
    </contour>
  </outline>
</glyph>
<glyph name="H" format="2">
  <advance width="701"/>
  <unicode hex="0048"/>
  <note>
skew 10 scale 120
</note>
  <anchor x="425" y="634" name="aboveUC"/>
  <anchor x="321" y="-20" name="belowLC"/>
  <outline>
    <contour>
      <point x="12" y="0" type="line"/>
      <point x="262" y="0" type="line"/>
      <point x="269" y="38" type="line"/>
      <point x="158" y="52" type="line"/>
      <point x="139" y="52" type="line"/>
      <point x="21" y="38" type="line"/>
    </contour>
    <contour>
      <point x="90" y="0" type="line"/>
      <point x="178" y="0" type="line"/>
      <point x="194" y="94"/>
      <point x="210" y="190"/>
      <point x="228" y="285" type="curve" smooth="yes"/>
      <point x="289" y="614" type="line"/>
      <point x="201" y="614" type="line"/>
      <point x="186" y="519"/>
      <point x="169" y="424"/>
      <point x="151" y="329" type="curve" smooth="yes"/>
    </contour>
    <contour>
      <point x="110" y="575" type="line"/>
      <point x="224" y="562" type="line"/>
      <point x="242" y="562" type="line"/>
      <point x="358" y="575" type="line"/>
      <point x="367" y="614" type="line"/>
      <point x="118" y="614" type="line"/>
    </contour>
    <contour>
      <point x="182" y="292" type="line"/>
      <point x="558" y="292" type="line"/>
      <point x="564" y="336" type="line"/>
      <point x="190" y="336" type="line"/>
    </contour>
    <contour>
      <point x="382" y="0" type="line"/>
      <point x="632" y="0" type="line"/>
      <point x="639" y="38" type="line"/>
      <point x="528" y="52" type="line"/>
      <point x="509" y="52" type="line"/>
      <point x="391" y="38" type="line"/>
    </contour>
    <contour>
      <point x="460" y="0" type="line"/>
      <point x="548" y="0" type="line"/>
      <point x="563" y="94"/>
      <point x="580" y="190"/>
      <point x="598" y="285" type="curve" smooth="yes"/>
      <point x="659" y="614" type="line"/>
      <point x="570" y="614" type="line"/>
      <point x="555" y="519"/>
      <point x="539" y="424"/>
      <point x="521" y="329" type="curve" smooth="yes"/>
    </contour>
    <contour>
      <point x="480" y="575" type="line"/>
      <point x="594" y="562" type="line"/>
      <point x="612" y="562" type="line"/>
      <point x="728" y="575" type="line"/>
      <point x="736" y="614" type="line"/>
      <point x="488" y="614" type="line"/>
    </contour>
  </outline>
</glyph>
<glyph name="I" format="2">
  <advance width="331"/>
  <unicode hex="0049"/>
  <anchor x="245" y="634" name="aboveUC"/>
  <anchor x="130" y="-20" name="belowLC"/>
  <anchor x="165" y="0" name="ogonek"/>
  <outline>
    <contour>
      <point x="12" y="0" type="line"/>
      <point x="261" y="0" type="line"/>
      <point x="268" y="38" type="line"/>
      <point x="157" y="52" type="line"/>
      <point x="138" y="52" type="line"/>
      <point x="20" y="38" type="line"/>
    </contour>
    <contour>
      <point x="90" y="0" type="line"/>
      <point x="178" y="0" type="line"/>
      <point x="194" y="94"/>
      <point x="210" y="190"/>
      <point x="228" y="285" type="curve" smooth="yes"/>
      <point x="289" y="614" type="line"/>
      <point x="200" y="614" type="line"/>
      <point x="185" y="519"/>
      <point x="169" y="424"/>
      <point x="151" y="329" type="curve" smooth="yes"/>
    </contour>
    <contour>
      <point x="110" y="575" type="line"/>
      <point x="224" y="562" type="line"/>
      <point x="242" y="562" type="line"/>
      <point x="358" y="575" type="line"/>
      <point x="367" y="614" type="line"/>
      <point x="118" y="614" type="line"/>
    </contour>
  </outline>
</glyph>
<glyph name="K" format="2">
  <advance width="611"/>
  <unicode hex="004B"/>
  <anchor x="401" y="634" name="aboveUC"/>
  <anchor x="305" y="-20" name="belowLC"/>
  <outline>
    <contour>
      <point x="11" y="0" type="line"/>
      <point x="258" y="0" type="line"/>
      <point x="265" y="38" type="line"/>
      <point x="156" y="52" type="line"/>
      <point x="138" y="52" type="line"/>
      <point x="20" y="38" type="line"/>
    </contour>
    <contour>
      <point x="89" y="0" type="line"/>
      <point x="178" y="0" type="line"/>
      <point x="193" y="94"/>
      <point x="209" y="190"/>
      <point x="227" y="285" type="curve" smooth="yes"/>
      <point x="289" y="614" type="line"/>
      <point x="200" y="614" type="line"/>
      <point x="185" y="519"/>
      <point x="169" y="424"/>
      <point x="150" y="329" type="curve" smooth="yes"/>
    </contour>
    <contour>
      <point x="110" y="575" type="line"/>
      <point x="223" y="562" type="line"/>
      <point x="241" y="562" type="line"/>
      <point x="357" y="575" type="line"/>
      <point x="365" y="614" type="line"/>
      <point x="117" y="614" type="line"/>
    </contour>
    <contour>
      <point x="164" y="200" type="line"/>
      <point x="615" y="614" type="line"/>
      <point x="558" y="614" type="line"/>
      <point x="172" y="255" type="line"/>
    </contour>
    <contour>
      <point x="460" y="0" type="line"/>
      <point x="553" y="0" type="line"/>
      <point x="345" y="389" type="line"/>
      <point x="287" y="330" type="line"/>
    </contour>
    <contour>
      <point x="362" y="0" type="line"/>
      <point x="596" y="0" type="line"/>
      <point x="601" y="38" type="line"/>
      <point x="496" y="52" type="line"/>
      <point x="478" y="52" type="line"/>
      <point x="368" y="38" type="line"/>
    </contour>
    <contour>
      <point x="447" y="575" type="line"/>
      <point x="527" y="562" type="line"/>
      <point x="545" y="562" type="line"/>
      <point x="650" y="575" type="line"/>
      <point x="657" y="614" type="line"/>
      <point x="455" y="614" type="line"/>
    </contour>
  </outline>
</glyph>
<glyph name="L" format="2">
  <advance width="522"/>
  <unicode hex="004C"/>
  <anchor x="240" y="634" name="aboveUC"/>
  <anchor x="268" y="-20" name="belowLC"/>
  <outline>
    <contour>
      <point x="12" y="0" type="line"/>
      <point x="131" y="0" type="line"/>
      <point x="140" y="52" type="line"/>
      <point x="133" y="52" type="line"/>
      <point x="20" y="38" type="line"/>
    </contour>
    <contour>
      <point x="90" y="0" type="line"/>
      <point x="178" y="0" type="line"/>
      <point x="194" y="94"/>
      <point x="210" y="190"/>
      <point x="228" y="285" type="curve" smooth="yes"/>
      <point x="289" y="614" type="line"/>
      <point x="200" y="614" type="line"/>
      <point x="185" y="519"/>
      <point x="169" y="424"/>
      <point x="151" y="329" type="curve" smooth="yes"/>
    </contour>
    <contour>
      <point x="110" y="575" type="line"/>
      <point x="223" y="562" type="line"/>
      <point x="251" y="562" type="line"/>
      <point x="368" y="575" type="line"/>
      <point x="376" y="614" type="line"/>
      <point x="118" y="614" type="line"/>
    </contour>
    <contour>
      <point x="131" y="0" type="line"/>
      <point x="477" y="0" type="line"/>
      <point x="511" y="173" type="line"/>
      <point x="458" y="173" type="line"/>
      <point x="396" y="0" type="line"/>
      <point x="456" y="46" type="line"/>
      <point x="139" y="46" type="line"/>
    </contour>
  </outline>
</glyph>
<glyph name="N" format="2">
  <advance width="666"/>
  <unicode hex="004E"/>
  <anchor x="395" y="634" name="aboveUC"/>
  <anchor x="332" y="-20" name="belowLC"/>
  <outline>
    <contour>
      <point x="6" y="0" type="line"/>
      <point x="222" y="0" type="line"/>
      <point x="229" y="38" type="line"/>
      <point x="124" y="52" type="line"/>
      <point x="105" y="52" type="line"/>
      <point x="14" y="38" type="line"/>
    </contour>
    <contour>
      <point x="80" y="0" type="line"/>
      <point x="126" y="0" type="line"/>
      <point x="241" y="609" type="line"/>
      <point x="196" y="614" type="line"/>
    </contour>
    <contour>
      <point x="504" y="-8" type="line"/>
      <point x="538" y="-8" type="line"/>
      <point x="552" y="81" type="line"/>
      <point x="258" y="614" type="line"/>
      <point x="113" y="614" type="line"/>
      <point x="104" y="575" type="line"/>
      <point x="219" y="563" type="line"/>
      <point x="172" y="586" type="line"/>
    </contour>
    <contour>
      <point x="498" y="575" type="line"/>
      <point x="612" y="562" type="line"/>
      <point x="631" y="562" type="line"/>
      <point x="718" y="575" type="line"/>
      <point x="725" y="614" type="line"/>
      <point x="506" y="614" type="line"/>
    </contour>
    <contour>
      <point x="538" y="-8" type="line"/>
      <point x="654" y="614" type="line"/>
      <point x="607" y="614" type="line"/>
      <point x="505" y="59" type="line"/>
    </contour>
  </outline>
</glyph>
<glyph name="T" format="2">
  <advance width="527"/>
  <unicode hex="0054"/>
  <anchor x="352" y="634" name="aboveUC"/>
  <anchor x="238" y="0" name="baseLC"/>
  <anchor x="239" y="-20" name="belowLC"/>
  <outline>
    <contour>
      <point x="69" y="449" type="line"/>
      <point x="118" y="449" type="line"/>
      <point x="178" y="614" type="line"/>
      <point x="125" y="567" type="line"/>
      <point x="547" y="567" type="line"/>
      <point x="511" y="614" type="line"/>
      <point x="510" y="449" type="line"/>
      <point x="560" y="449" type="line"/>
      <point x="586" y="614" type="line"/>
      <point x="103" y="614" type="line"/>
    </contour>
    <contour>
      <point x="104" y="0" type="line"/>
      <point x="371" y="0" type="line"/>
      <point x="379" y="38" type="line"/>
      <point x="258" y="52" type="line"/>
      <point x="239" y="52" type="line"/>
      <point x="112" y="38" type="line"/>
    </contour>
    <contour>
      <point x="191" y="0" type="line"/>
      <point x="280" y="0" type="line"/>
      <point x="295" y="94"/>
      <point x="311" y="190"/>
      <point x="329" y="285" type="curve" smooth="yes"/>
      <point x="391" y="614" type="line"/>
      <point x="302" y="614" type="line"/>
      <point x="287" y="519"/>
      <point x="271" y="424"/>
      <point x="253" y="329" type="curve" smooth="yes"/>
    </contour>
  </outline>
</glyph>
<glyph name="V" format="2">
  <advance width="556"/>
  <unicode hex="0056"/>
  <anchor x="379" y="634" name="aboveUC"/>
  <anchor x="238" y="-20" name="belowLC"/>
  <outline>
    <contour>
      <point x="57" y="575" type="line"/>
      <point x="170" y="562" type="line"/>
      <point x="189" y="562" type="line"/>
      <point x="305" y="576" type="line"/>
      <point x="312" y="614" type="line"/>
      <point x="64" y="614" type="line"/>
    </contour>
    <contour>
      <point x="219" y="-8" type="line"/>
      <point x="264" y="-8" type="line"/>
      <point x="597" y="614" type="line"/>
      <point x="545" y="614" type="line"/>
      <point x="262" y="80" type="line"/>
      <point x="287" y="80" type="line"/>
      <point x="211" y="614" type="line"/>
      <point x="119" y="614" type="line"/>
    </contour>
    <contour>
      <point x="444" y="576" type="line"/>
      <point x="537" y="562" type="line"/>
      <point x="554" y="562" type="line"/>
      <point x="648" y="575" type="line"/>
      <point x="656" y="614" type="line"/>
      <point x="451" y="614" type="line"/>
    </contour>
  </outline>
</glyph>
<glyph name="W" format="2">
  <advance width="804"/>
  <unicode hex="0057"/>
  <anchor x="483" y="634" name="aboveUC"/>
  <anchor x="379" y="-3" name="belowLC"/>
  <outline>
    <contour>
      <point x="57" y="575" type="line"/>
      <point x="169" y="562" type="line"/>
      <point x="188" y="562" type="line"/>
      <point x="300" y="575" type="line"/>
      <point x="308" y="614" type="line"/>
      <point x="64" y="614" type="line"/>
    </contour>
    <contour>
      <point x="178" y="-8" type="line"/>
      <point x="221" y="-8" type="line"/>
      <point x="483" y="535" type="line"/>
      <point x="449" y="511" type="line"/>
      <point x="517" y="-8" type="line"/>
      <point x="559" y="-8" type="line"/>
      <point x="844" y="614" type="line"/>
      <point x="794" y="614" type="line"/>
      <point x="553" y="80" type="line"/>
      <point x="575" y="101" type="line"/>
      <point x="518" y="614" type="line"/>
      <point x="474" y="614" type="line"/>
      <point x="218" y="80" type="line"/>
      <point x="243" y="101" type="line"/>
      <point x="212" y="614" type="line"/>
      <point x="122" y="614" type="line"/>
    </contour>
    <contour>
      <point x="364" y="575" type="line"/>
      <point x="473" y="562" type="line"/>
      <point x="495" y="562" type="line"/>
      <point x="609" y="575" type="line"/>
      <point x="617" y="614" type="line"/>
      <point x="371" y="614" type="line"/>
    </contour>
    <contour>
      <point x="691" y="575" type="line"/>
      <point x="784" y="562" type="line"/>
      <point x="803" y="562" type="line"/>
      <point x="897" y="575" type="line"/>
      <point x="904" y="614" type="line"/>
      <point x="700" y="614" type="line"/>
    </contour>
  </outline>
</glyph>
<glyph name="X" format="2">
  <advance width="606"/>
  <unicode hex="0058"/>
  <anchor x="402" y="634" name="aboveUC"/>
  <anchor x="271" y="-20" name="belowLC"/>
  <outline>
    <contour>
      <point x="-2" y="0" type="line"/>
      <point x="218" y="0" type="line"/>
      <point x="225" y="38" type="line"/>
      <point x="128" y="52" type="line"/>
      <point x="111" y="52" type="line"/>
      <point x="3" y="38" type="line"/>
    </contour>
    <contour>
      <point x="45" y="0" type="line"/>
      <point x="101" y="0" type="line"/>
      <point x="338" y="298" type="line"/>
      <point x="311" y="321" type="line"/>
    </contour>
    <contour>
      <point x="104" y="575" type="line"/>
      <point x="218" y="562" type="line"/>
      <point x="236" y="562" type="line"/>
      <point x="353" y="575" type="line"/>
      <point x="360" y="614" type="line"/>
      <point x="112" y="614" type="line"/>
    </contour>
    <contour>
      <point x="421" y="0" type="line"/>
      <point x="514" y="0" type="line"/>
      <point x="248" y="614" type="line"/>
      <point x="156" y="614" type="line"/>
    </contour>
    <contour>
      <point x="319" y="0" type="line"/>
      <point x="572" y="0" type="line"/>
      <point x="579" y="38" type="line"/>
      <point x="468" y="52" type="line"/>
      <point x="449" y="52" type="line"/>
      <point x="326" y="38" type="line"/>
    </contour>
    <contour>
      <point x="318" y="319" type="line"/>
      <point x="344" y="295" type="line"/>
      <point x="612" y="614" type="line"/>
      <point x="557" y="614" type="line"/>
    </contour>
    <contour>
      <point x="435" y="575" type="line"/>
      <point x="530" y="562" type="line"/>
      <point x="549" y="562" type="line"/>
      <point x="654" y="575" type="line"/>
      <point x="661" y="614" type="line"/>
      <point x="441" y="614" type="line"/>
    </contour>
  </outline>
</glyph>
<glyph name="bracketright" format="2">
  <advance width="313"/>
  <unicode hex="005D"/>
  <outline>
    <contour>
      <point x="357" y="617" type="line"/>
      <point x="157" y="-129" type="line"/>
      <point x="-35" y="-129" type="line"/>
      <point x="-19" y="-71" type="line"/>
      <point x="100" y="-69" type="line"/>
      <point x="268" y="559" type="line"/>
      <point x="149" y="559" type="line"/>
      <point x="165" y="617" type="line"/>
    </contour>
  </outline>
</glyph>
<glyph name="asciicircum" format="2">
  <advance width="489"/>
  <unicode hex="005E"/>
  <outline>
    <contour>
      <point x="98" y="222" type="line"/>
      <point x="141" y="190" type="line"/>
      <point x="282" y="412" type="line"/>
      <point x="250" y="412" type="line"/>
      <point x="391" y="190" type="line"/>
      <point x="435" y="222" type="line"/>
      <point x="296" y="444" type="line"/>
      <point x="236" y="444" type="line"/>
    </contour>
  </outline>
</glyph>
<glyph name="underscore" format="2">
  <advance width="473"/>
  <unicode hex="005F"/>
  <outline>
    <contour>
      <point x="10" y="-59" type="line"/>
      <point x="409" y="-59" type="line"/>
      <point x="409" y="1" type="line"/>
      <point x="10" y="1" type="line"/>
    </contour>
  </outline>
</glyph>
<glyph name="grave" format="2">
  <advance width="368"/>
  <unicode hex="0060"/>
  <anchor x="320" y="466" name="_aboveLC"/>
  <anchor x="367" y="684" name="aboveLC"/>
  <outline>
    <contour>
      <point x="339" y="506" type="line"/>
      <point x="317" y="556"/>
      <point x="295" y="608"/>
      <point x="273" y="658" type="curve" smooth="yes"/>
      <point x="261" y="686"/>
      <point x="245" y="702"/>
      <point x="224" y="702" type="curve" smooth="yes"/>
      <point x="204" y="702"/>
      <point x="186" y="690"/>
      <point x="186" y="668" type="curve" smooth="yes"/>
      <point x="186" y="651"/>
      <point x="192" y="636"/>
      <point x="208" y="618" type="curve" smooth="yes"/>
      <point x="245" y="575"/>
      <point x="280" y="534"/>
      <point x="317" y="492" type="curve"/>
    </contour>
  </outline>
</glyph>
<glyph name="b" format="2">
  <advance width="459"/>
  <unicode hex="0062"/>
  <anchor x="215" y="677" name="aboveLC"/>
  <anchor x="172" y="-20" name="belowLC"/>
  <outline>
    <contour>
      <point x="157" y="-11" type="curve" smooth="yes"/>
      <point x="307" y="-11"/>
      <point x="461" y="176"/>
      <point x="461" y="334" type="curve" smooth="yes"/>
      <point x="461" y="418"/>
      <point x="423" y="449"/>
      <point x="376" y="449" type="curve" smooth="yes"/>
      <point x="310" y="449"/>
      <point x="216" y="382"/>
      <point x="159" y="276" type="curve"/>
      <point x="170" y="270" type="line"/>
      <point x="232" y="343"/>
      <point x="287" y="384"/>
      <point x="330" y="384" type="curve" smooth="yes"/>
      <point x="363" y="384"/>
      <point x="385" y="355"/>
      <point x="385" y="297" type="curve" smooth="yes"/>
      <point x="385" y="223"/>
      <point x="353" y="144"/>
      <point x="306" y="97" type="curve" smooth="yes"/>
      <point x="273" y="64"/>
      <point x="236" y="46"/>
      <point x="200" y="46" type="curve" smooth="yes"/>
      <point x="171" y="46"/>
      <point x="154" y="65"/>
      <point x="154" y="96" type="curve" smooth="yes"/>
      <point x="154" y="129"/>
      <point x="159" y="153"/>
      <point x="172" y="221" type="curve" smooth="yes"/>
      <point x="191" y="306" type="line"/>
      <point x="193" y="319" type="line"/>
      <point x="265" y="670" type="line"/>
      <point x="255" y="678" type="line"/>
      <point x="92" y="632" type="line"/>
      <point x="87" y="604" type="line"/>
      <point x="195" y="595" type="line"/>
      <point x="178" y="612" type="line"/>
      <point x="98" y="213" type="line" smooth="yes"/>
      <point x="87" y="152"/>
      <point x="77" y="106"/>
      <point x="77" y="67" type="curve" smooth="yes"/>
      <point x="77" y="16"/>
      <point x="113" y="-11"/>
    </contour>
  </outline>
</glyph>
<glyph name="d" format="2">
  <advance width="487"/>
  <unicode hex="0064"/>
  <anchor x="432" y="677" name="aboveLC"/>
  <anchor x="227" y="-20" name="belowLC"/>
  <outline>
    <contour>
      <point x="127" y="-11" type="curve" smooth="yes"/>
      <point x="192" y="-11"/>
      <point x="279" y="58"/>
      <point x="339" y="151" type="curve"/>
      <point x="331" y="172" type="line"/>
      <point x="258" y="84"/>
      <point x="215" y="54"/>
      <point x="177" y="54" type="curve" smooth="yes"/>
      <point x="145" y="54"/>
      <point x="120" y="80"/>
      <point x="120" y="141" type="curve" smooth="yes"/>
      <point x="120" y="215"/>
      <point x="149" y="287"/>
      <point x="191" y="333" type="curve" smooth="yes"/>
      <point x="220" y="367"/>
      <point x="258" y="387"/>
      <point x="296" y="387" type="curve" smooth="yes"/>
      <point x="321" y="387"/>
      <point x="346" y="377"/>
      <point x="369" y="348" type="curve"/>
      <point x="411" y="396" type="line"/>
      <point x="380" y="434"/>
      <point x="358" y="449"/>
      <point x="325" y="449" type="curve" smooth="yes"/>
      <point x="199" y="449"/>
      <point x="43" y="258"/>
      <point x="43" y="105" type="curve" smooth="yes"/>
      <point x="43" y="20"/>
      <point x="82" y="-11"/>
    </contour>
    <contour>
      <point x="377" y="125" type="curve" smooth="yes"/>
      <point x="488" y="670" type="line"/>
      <point x="477" y="678" type="line"/>
      <point x="315" y="632" type="line"/>
      <point x="311" y="604" type="line"/>
      <point x="420" y="595" type="line"/>
      <point x="406" y="618" type="line"/>
      <point x="366" y="419" type="line"/>
      <point x="356" y="390" type="line"/>
      <point x="299" y="106" type="line" smooth="yes"/>
      <point x="291" y="69"/>
      <point x="290" y="52"/>
      <point x="291" y="38" type="curve" smooth="yes"/>
      <point x="291" y="5"/>
      <point x="314" y="-11"/>
      <point x="345" y="-11" type="curve" smooth="yes"/>
      <point x="407" y="-11"/>
      <point x="465" y="46"/>
      <point x="501" y="101" type="curve"/>
      <point x="478" y="118" type="line"/>
      <point x="448" y="80"/>
      <point x="413" y="53"/>
      <point x="391" y="53" type="curve" smooth="yes"/>
      <point x="379" y="53"/>
      <point x="369" y="60"/>
      <point x="369" y="73" type="curve" smooth="yes"/>
      <point x="369" y="83"/>
      <point x="372" y="102"/>
    </contour>
  </outline>
</glyph>
<glyph name="h" format="2">
  <advance width="504"/>
  <unicode hex="0068"/>
  <anchor x="230" y="677" name="aboveLC"/>
  <anchor x="203" y="-11" name="belowLC"/>
  <outline>
    <contour>
      <point x="64" y="-7" type="line"/>
      <point x="132" y="0" type="line"/>
      <point x="142" y="64"/>
      <point x="154" y="127"/>
      <point x="168" y="194" type="curve" smooth="yes"/>
      <point x="195" y="321" type="line"/>
      <point x="196" y="336" type="line"/>
      <point x="265" y="670" type="line"/>
      <point x="255" y="678" type="line"/>
      <point x="92" y="632" type="line"/>
      <point x="89" y="604" type="line"/>
      <point x="197" y="595" type="line"/>
      <point x="177" y="624" type="line"/>
      <point x="168" y="560"/>
      <point x="156" y="496"/>
      <point x="143" y="433" type="curve" smooth="yes"/>
      <point x="55" y="0" type="line"/>
    </contour>
    <contour>
      <point x="349" y="-11" type="curve" smooth="yes"/>
      <point x="414" y="-11"/>
      <point x="474" y="46"/>
      <point x="510" y="101" type="curve"/>
      <point x="487" y="118" type="line"/>
      <point x="455" y="78"/>
      <point x="422" y="53"/>
      <point x="400" y="53" type="curve" smooth="yes"/>
      <point x="389" y="53"/>
      <point x="381" y="59"/>
      <point x="381" y="72" type="curve" smooth="yes"/>
      <point x="381" y="81"/>
      <point x="387" y="100"/>
      <point x="393" y="125" type="curve" smooth="yes"/>
      <point x="435" y="295" type="line" smooth="yes"/>
      <point x="442" y="325"/>
      <point x="449" y="355"/>
      <point x="449" y="384" type="curve" smooth="yes"/>
      <point x="449" y="427"/>
      <point x="428" y="449"/>
      <point x="390" y="449" type="curve" smooth="yes"/>
      <point x="328" y="449"/>
      <point x="245" y="395"/>
      <point x="183" y="331" type="curve"/>
      <point x="179" y="296" type="line"/>
      <point x="249" y="355"/>
      <point x="303" y="384"/>
      <point x="337" y="384" type="curve" smooth="yes"/>
      <point x="356" y="384"/>
      <point x="368" y="374"/>
      <point x="368" y="343" type="curve" smooth="yes"/>
      <point x="368" y="324"/>
      <point x="361" y="295"/>
      <point x="354" y="264" type="curve" smooth="yes"/>
      <point x="315" y="104" type="line" smooth="yes"/>
      <point x="306" y="69"/>
      <point x="300" y="51"/>
      <point x="300" y="29" type="curve" smooth="yes"/>
      <point x="300" y="4"/>
      <point x="319" y="-11"/>
    </contour>
  </outline>
</glyph>
<glyph name="k" format="2">
  <advance width="440"/>
  <unicode hex="006B"/>
  <anchor x="224" y="677" name="aboveLC"/>
  <anchor x="216" y="-20" name="belowLC"/>
  <outline>
    <contour>
      <point x="55" y="0" type="line"/>
      <point x="63" y="-7" type="line"/>
      <point x="131" y="0" type="line"/>
      <point x="142" y="64"/>
      <point x="153" y="127"/>
      <point x="167" y="194" type="curve" smooth="yes"/>
      <point x="262" y="670" type="line"/>
      <point x="255" y="678" type="line"/>
      <point x="92" y="632" type="line"/>
      <point x="88" y="604" type="line"/>
      <point x="197" y="595" type="line"/>
      <point x="176" y="624" type="line"/>
      <point x="167" y="560"/>
      <point x="155" y="496"/>
      <point x="142" y="433" type="curve" smooth="yes"/>
    </contour>
    <contour>
      <point x="442" y="0" type="curve"/>
      <point x="448" y="28" type="line"/>
      <point x="402" y="32" type="line" smooth="yes"/>
      <point x="375" y="34"/>
      <point x="361" y="41"/>
      <point x="342" y="84" type="curve" smooth="yes"/>
      <point x="314" y="143" type="line" smooth="yes"/>
      <point x="293" y="191"/>
      <point x="263" y="221"/>
      <point x="208" y="231" type="curve" smooth="yes"/>
      <point x="178" y="237" type="line"/>
      <point x="175" y="230" type="line"/>
      <point x="406" y="352" type="line" smooth="yes"/>
      <point x="443" y="370"/>
      <point x="458" y="384"/>
      <point x="458" y="403" type="curve" smooth="yes"/>
      <point x="458" y="424"/>
      <point x="442" y="443"/>
      <point x="421" y="444" type="curve"/>
      <point x="157" y="237" type="line"/>
      <point x="159" y="218" type="line"/>
      <point x="176" y="213" type="line" smooth="yes"/>
      <point x="207" y="204"/>
      <point x="221" y="186"/>
      <point x="242" y="136" type="curve" smooth="yes"/>
      <point x="272" y="63" type="line" smooth="yes"/>
      <point x="298" y="-1"/>
      <point x="330" y="-11"/>
      <point x="374" y="-11" type="curve" smooth="yes"/>
      <point x="396" y="-11"/>
      <point x="415" y="-9"/>
    </contour>
  </outline>
</glyph>
<glyph name="p" format="2">
  <advance width="475"/>
  <unicode hex="0070"/>
  <anchor x="299" y="466" name="aboveLC"/>
  <anchor x="63" y="-230" name="belowLC"/>
  <outline>
    <contour>
      <point x="21" y="-219" type="line"/>
      <point x="99" y="-219" type="line"/>
      <point x="109" y="-157"/>
      <point x="120" y="-95"/>
      <point x="144" y="19" type="curve"/>
      <point x="148" y="35" type="line"/>
      <point x="233" y="439" type="line"/>
      <point x="220" y="449" type="line"/>
      <point x="60" y="402" type="line"/>
      <point x="57" y="374" type="line"/>
      <point x="167" y="366" type="line"/>
      <point x="148" y="380" type="line"/>
    </contour>
    <contour>
      <point x="97" y="39" type="line"/>
      <point x="127" y="1"/>
      <point x="153" y="-11"/>
      <point x="191" y="-11" type="curve" smooth="yes"/>
      <point x="324" y="-11"/>
      <point x="477" y="177"/>
      <point x="477" y="334" type="curve" smooth="yes"/>
      <point x="477" y="419"/>
      <point x="437" y="449"/>
      <point x="391" y="449" type="curve" smooth="yes"/>
      <point x="325" y="449"/>
      <point x="228" y="382"/>
      <point x="171" y="276" type="curve"/>
      <point x="180" y="270" type="line"/>
      <point x="243" y="342"/>
      <point x="302" y="384"/>
      <point x="344" y="384" type="curve" smooth="yes"/>
      <point x="379" y="384"/>
      <point x="400" y="356"/>
      <point x="400" y="297" type="curve" smooth="yes"/>
      <point x="400" y="234"/>
      <point x="377" y="168"/>
      <point x="341" y="120" type="curve" smooth="yes"/>
      <point x="310" y="78"/>
      <point x="269" y="50"/>
      <point x="223" y="50" type="curve" smooth="yes"/>
      <point x="196" y="50"/>
      <point x="166" y="63"/>
      <point x="136" y="95" type="curve"/>
    </contour>
    <contour>
      <point x="-52" y="-219" type="line"/>
      <point x="182" y="-219" type="line"/>
      <point x="189" y="-187" type="line"/>
      <point x="79" y="-171" type="line"/>
      <point x="58" y="-171" type="line"/>
      <point x="-46" y="-187" type="line"/>
    </contour>
  </outline>
</glyph>
<glyph name="q" format="2">
  <advance width="455"/>
  <unicode hex="0071"/>
  <anchor x="341" y="466" name="aboveLC"/>
  <anchor x="271" y="-230" name="belowLC"/>
  <outline>
    <contour>
      <point x="127" y="-11" type="curve" smooth="yes"/>
      <point x="193" y="-11"/>
      <point x="291" y="58"/>
      <point x="350" y="151" type="curve"/>
      <point x="344" y="172" type="line"/>
      <point x="270" y="84"/>
      <point x="215" y="54"/>
      <point x="177" y="54" type="curve" smooth="yes"/>
      <point x="138" y="54"/>
      <point x="120" y="85"/>
      <point x="120" y="138" type="curve" smooth="yes"/>
      <point x="120" y="214"/>
      <point x="151" y="288"/>
      <point x="195" y="334" type="curve" smooth="yes"/>
      <point x="227" y="367"/>
      <point x="265" y="387"/>
      <point x="302" y="387" type="curve" smooth="yes"/>
      <point x="327" y="387"/>
      <point x="353" y="379"/>
      <point x="382" y="353" type="curve"/>
      <point x="422" y="396" type="line"/>
      <point x="392" y="434"/>
      <point x="369" y="449"/>
      <point x="333" y="449" type="curve" smooth="yes"/>
      <point x="203" y="449"/>
      <point x="43" y="258"/>
      <point x="43" y="105" type="curve" smooth="yes"/>
      <point x="43" y="20"/>
      <point x="81" y="-11"/>
    </contour>
    <contour>
      <point x="157" y="-219" type="line"/>
      <point x="392" y="-219" type="line"/>
      <point x="400" y="-187" type="line"/>
      <point x="291" y="-171" type="line"/>
      <point x="271" y="-171" type="line"/>
      <point x="163" y="-187" type="line"/>
    </contour>
    <contour>
      <point x="447" y="441" type="line"/>
      <point x="430" y="450" type="line"/>
      <point x="366" y="407" type="line"/>
      <point x="306" y="117" type="line"/>
      <point x="303" y="103" type="line"/>
      <point x="235" y="-219" type="line"/>
      <point x="312" y="-219" type="line"/>
      <point x="322" y="-157"/>
      <point x="333" y="-96"/>
      <point x="347" y="-34" type="curve" smooth="yes"/>
    </contour>
  </outline>
</glyph>
<glyph name="r" format="2">
  <advance width="373"/>
  <unicode hex="0072"/>
  <anchor x="270" y="466" name="aboveLC"/>
  <anchor x="105" y="-20" name="belowLC"/>
  <outline>
    <contour>
      <point x="188" y="231" type="line"/>
      <point x="228" y="308"/>
      <point x="270" y="368"/>
      <point x="328" y="409" type="curve"/>
      <point x="282" y="412" type="line"/>
      <point x="293" y="401" type="line" smooth="yes"/>
      <point x="314" y="379"/>
      <point x="340" y="365"/>
      <point x="360" y="365" type="curve" smooth="yes"/>
      <point x="392" y="365"/>
      <point x="409" y="388"/>
      <point x="410" y="419" type="curve"/>
      <point x="398" y="440"/>
      <point x="374" y="449"/>
      <point x="347" y="449" type="curve" smooth="yes"/>
      <point x="289" y="449"/>
      <point x="228" y="360"/>
      <point x="187" y="276" type="curve"/>
    </contour>
    <contour>
      <point x="67" y="0" type="line"/>
      <point x="77" y="-7" type="line"/>
      <point x="145" y="0" type="line"/>
      <point x="157" y="65"/>
      <point x="168" y="128"/>
      <point x="182" y="194" type="curve" smooth="yes"/>
      <point x="202" y="282" type="line"/>
      <point x="205" y="299" type="line"/>
      <point x="228" y="439" type="line"/>
      <point x="215" y="449" type="line"/>
      <point x="60" y="402" type="line"/>
      <point x="57" y="374" type="line"/>
      <point x="168" y="366" type="line"/>
      <point x="148" y="380" type="line"/>
    </contour>
  </outline>
</glyph>
<glyph name="w" format="2">
  <advance width="677"/>
  <unicode hex="0077"/>
  <anchor x="432" y="466" name="aboveLC"/>
  <anchor x="303" y="-20" name="belowLC"/>
  <outline>
    <contour>
      <point x="161" y="-1" type="curve"/>
      <point x="168" y="-6" type="line"/>
      <point x="200" y="-3" type="line"/>
      <point x="291" y="103"/>
      <point x="376" y="265"/>
      <point x="418" y="350" type="curve"/>
      <point x="383" y="318" type="line"/>
      <point x="386" y="298"/>
      <point x="399" y="46"/>
      <point x="402" y="-1" type="curve"/>
      <point x="409" y="-6" type="line"/>
      <point x="440" y="-3" type="line"/>
      <point x="534" y="94"/>
      <point x="611" y="200"/>
      <point x="655" y="284" type="curve" smooth="yes"/>
      <point x="696" y="361"/>
      <point x="701" y="386"/>
      <point x="701" y="406" type="curve" smooth="yes"/>
      <point x="701" y="423"/>
      <point x="699" y="431"/>
      <point x="695" y="437" type="curve"/>
      <point x="689" y="444"/>
      <point x="678" y="448"/>
      <point x="663" y="449" type="curve" smooth="yes"/>
      <point x="632" y="449"/>
      <point x="606" y="429"/>
      <point x="606" y="382" type="curve" smooth="yes"/>
      <point x="606" y="372"/>
      <point x="608" y="354"/>
      <point x="611" y="341" type="curve" smooth="yes"/>
      <point x="628" y="274" type="line"/>
      <point x="632" y="335" type="line"/>
      <point x="627" y="325"/>
      <point x="623" y="316"/>
      <point x="617" y="304" type="curve" smooth="yes"/>
      <point x="569" y="217"/>
      <point x="525" y="151"/>
      <point x="460" y="69" type="curve"/>
      <point x="471" y="64" type="line"/>
      <point x="469" y="89"/>
      <point x="456" y="408"/>
      <point x="453" y="437" type="curve"/>
      <point x="411" y="437" type="line"/>
      <point x="350" y="295"/>
      <point x="283" y="173"/>
      <point x="211" y="69" type="curve"/>
      <point x="228" y="65" type="line"/>
      <point x="228" y="172"/>
      <point x="223" y="301"/>
      <point x="210" y="384" type="curve" smooth="yes"/>
      <point x="203" y="430"/>
      <point x="186" y="449"/>
      <point x="147" y="449" type="curve" smooth="yes"/>
      <point x="104" y="449"/>
      <point x="65" y="412"/>
      <point x="31" y="340" type="curve"/>
      <point x="52" y="324" type="line"/>
      <point x="80" y="366"/>
      <point x="95" y="381"/>
      <point x="112" y="381" type="curve" smooth="yes"/>
      <point x="126" y="381"/>
      <point x="134" y="378"/>
      <point x="138" y="342" type="curve" smooth="yes"/>
      <point x="150" y="248"/>
      <point x="159" y="143"/>
    </contour>
  </outline>
</glyph>
<glyph name="braceright" format="2">
  <advance width="345"/>
  <unicode hex="007D"/>
  <outline>
    <contour>
      <point x="325" y="275" type="line"/>
      <point x="261" y="283"/>
      <point x="235" y="306"/>
      <point x="235" y="342" type="curve" smooth="yes"/>
      <point x="235" y="403"/>
      <point x="299" y="491"/>
      <point x="299" y="573" type="curve" smooth="yes"/>
      <point x="299" y="629"/>
      <point x="255" y="657"/>
      <point x="178" y="657" type="curve" smooth="yes"/>
      <point x="132" y="657" type="line"/>
      <point x="124" y="620" type="line"/>
      <point x="154" y="617" type="line" smooth="yes"/>
      <point x="205" y="612"/>
      <point x="228" y="599"/>
      <point x="228" y="564" type="curve" smooth="yes"/>
      <point x="228" y="509"/>
      <point x="184" y="388"/>
      <point x="184" y="335" type="curve" smooth="yes"/>
      <point x="184" y="285"/>
      <point x="215" y="253"/>
      <point x="287" y="251" type="curve"/>
      <point x="289" y="260" type="line"/>
      <point x="202" y="258"/>
      <point x="140" y="207"/>
      <point x="140" y="128" type="curve" smooth="yes"/>
      <point x="140" y="100"/>
      <point x="143" y="44"/>
      <point x="143" y="8" type="curve" smooth="yes"/>
      <point x="143" y="-72"/>
      <point x="121" y="-103"/>
      <point x="25" y="-107" type="curve" smooth="yes"/>
      <point x="4" y="-108" type="line"/>
      <point x="-2" y="-146" type="line"/>
      <point x="32" y="-146" type="line" smooth="yes"/>
      <point x="157" y="-146"/>
      <point x="212" y="-95"/>
      <point x="212" y="3" type="curve" smooth="yes"/>
      <point x="212" y="48"/>
      <point x="198" y="93"/>
      <point x="198" y="125" type="curve" smooth="yes"/>
      <point x="198" y="186"/>
      <point x="229" y="225"/>
      <point x="318" y="236" type="curve"/>
    </contour>
  </outline>
</glyph>
<glyph name="asciitilde" format="2">
  <advance width="489"/>
  <unicode hex="007E"/>
  <outline>
    <contour>
      <point x="277" y="337" type="curve" smooth="yes"/>
      <point x="242" y="368"/>
      <point x="212" y="385"/>
      <point x="177" y="385" type="curve" smooth="yes"/>
      <point x="112" y="385"/>
      <point x="77" y="343"/>
      <point x="72" y="261" type="curve"/>
      <point x="117" y="253" type="line"/>
      <point x="125" y="314"/>
      <point x="148" y="333"/>
      <point x="172" y="333" type="curve" smooth="yes"/>
      <point x="195" y="333"/>
      <point x="215" y="323"/>
      <point x="243" y="297" type="curve" smooth="yes"/>
      <point x="278" y="265"/>
      <point x="308" y="249"/>
      <point x="344" y="249" type="curve" smooth="yes"/>
      <point x="408" y="249"/>
      <point x="444" y="291"/>
      <point x="448" y="373" type="curve"/>
      <point x="403" y="380" type="line"/>
      <point x="396" y="320"/>
      <point x="373" y="301"/>
      <point x="349" y="301" type="curve" smooth="yes"/>
      <point x="326" y="301"/>
      <point x="306" y="310"/>
    </contour>
  </outline>
</glyph>
<glyph name="exclamdown" format="2">
  <advance width="268"/>
  <unicode hex="00A1"/>
  <outline>
    <contour>
      <point x="171" y="255" type="line"/>
      <point x="138" y="255" type="line"/>
      <point x="46" y="-30"/>
      <point x="22" y="-101"/>
      <point x="22" y="-143" type="curve" smooth="yes"/>
      <point x="22" y="-172"/>
      <point x="35" y="-188"/>
      <point x="66" y="-188" type="curve" smooth="yes"/>
      <point x="94" y="-188"/>
      <point x="118" y="-173"/>
      <point x="129" y="-116" type="curve" smooth="yes"/>
      <point x="135" y="-91"/>
      <point x="144" y="-10"/>
      <point x="155" y="113" type="curve" smooth="yes"/>
    </contour>
    <contour>
      <point x="241" y="395" type="curve" smooth="yes"/>
      <point x="241" y="427"/>
      <point x="217" y="450"/>
      <point x="187" y="450" type="curve" smooth="yes"/>
      <point x="151" y="450"/>
      <point x="120" y="421"/>
      <point x="120" y="385" type="curve" smooth="yes"/>
      <point x="120" y="355"/>
      <point x="141" y="329"/>
      <point x="173" y="329" type="curve" smooth="yes"/>
      <point x="209" y="329"/>
      <point x="241" y="358"/>
    </contour>
  </outline>
</glyph>
<glyph name="cent" format="2">
  <advance width="473"/>
  <unicode hex="00A2"/>
  <outline>
    <contour>
      <point x="76" y="223" type="curve" smooth="yes"/>
      <point x="76" y="109"/>
      <point x="134" y="51"/>
      <point x="216" y="51" type="curve" smooth="yes"/>
      <point x="283" y="51"/>
      <point x="351" y="103"/>
      <point x="388" y="168" type="curve"/>
      <point x="367" y="185" type="line"/>
      <point x="340" y="152"/>
      <point x="301" y="118"/>
      <point x="247" y="118" type="curve" smooth="yes"/>
      <point x="193" y="118"/>
      <point x="151" y="156"/>
      <point x="151" y="236" type="curve" smooth="yes"/>
      <point x="151" y="356"/>
      <point x="221" y="471"/>
      <point x="300" y="471" type="curve" smooth="yes"/>
      <point x="339" y="471"/>
      <point x="364" y="460"/>
      <point x="395" y="445" type="curve"/>
      <point x="356" y="476" type="line"/>
      <point x="361" y="404" type="line" smooth="yes"/>
      <point x="365" y="365"/>
      <point x="378" y="346"/>
      <point x="406" y="346" type="curve" smooth="yes"/>
      <point x="424" y="346"/>
      <point x="443" y="358"/>
      <point x="444" y="391" type="curve"/>
      <point x="444" y="468"/>
      <point x="382" y="513"/>
      <point x="308" y="513" type="curve" smooth="yes"/>
      <point x="194" y="513"/>
      <point x="76" y="379"/>
    </contour>
    <contour>
      <point x="218" y="-41" type="line"/>
      <point x="351" y="606" type="line"/>
      <point x="316" y="606" type="line"/>
      <point x="184" y="-41" type="line"/>
    </contour>
  </outline>
</glyph>
<glyph name="yen" format="2">
  <advance width="473"/>
  <unicode hex="00A5"/>
  <outline>
    <contour>
      <point x="40" y="131" type="line"/>
      <point x="404" y="131" type="line"/>
      <point x="414" y="178" type="line"/>
      <point x="49" y="178" type="line"/>
    </contour>
    <contour>
      <point x="64" y="248" type="line"/>
      <point x="429" y="248" type="line"/>
      <point x="438" y="295" type="line"/>
      <point x="73" y="295" type="line"/>
    </contour>
    <contour>
      <point x="193" y="50" type="line"/>
      <point x="69" y="37" type="line"/>
      <point x="61" y="0" type="line"/>
      <point x="325" y="0" type="line"/>
      <point x="333" y="37" type="line"/>
      <point x="214" y="50" type="line"/>
    </contour>
    <contour>
      <point x="162" y="542" type="line"/>
      <point x="172" y="542" type="line"/>
      <point x="281" y="556" type="line"/>
      <point x="288" y="593" type="line"/>
      <point x="69" y="593" type="line"/>
      <point x="60" y="556" type="line"/>
    </contour>
    <contour>
      <point x="450" y="542" type="line"/>
      <point x="457" y="542" type="line"/>
      <point x="536" y="556" type="line"/>
      <point x="543" y="593" type="line"/>
      <point x="371" y="593" type="line"/>
      <point x="364" y="556" type="line"/>
    </contour>
    <contour>
      <point x="157" y="0" type="line"/>
      <point x="236" y="0" type="line"/>
      <point x="249" y="68"/>
      <point x="257" y="117"/>
      <point x="291" y="285" type="curve"/>
      <point x="215" y="285" type="line"/>
    </contour>
    <contour>
      <point x="264" y="220" type="line"/>
      <point x="503" y="593" type="line"/>
      <point x="453" y="593" type="line"/>
      <point x="267" y="295" type="line"/>
      <point x="275" y="295" type="line"/>
      <point x="195" y="593" type="line"/>
      <point x="111" y="593" type="line"/>
      <point x="222" y="220" type="line"/>
    </contour>
  </outline>
</glyph>
<glyph name="brokenbar" format="2">
  <advance width="232"/>
  <unicode hex="00A6"/>
  <outline>
    <contour>
      <point x="103" y="-230" type="line"/>
      <point x="159" y="-230" type="line"/>
      <point x="159" y="184" type="line"/>
      <point x="103" y="184" type="line"/>
    </contour>
    <contour>
      <point x="159" y="294" type="line"/>
      <point x="159" y="690" type="line"/>
      <point x="103" y="690" type="line"/>
      <point x="103" y="294" type="line"/>
    </contour>
  </outline>
</glyph>
<glyph name="section" format="2">
  <advance width="432"/>
  <unicode hex="00A7"/>
  <outline>
    <contour>
      <point x="163" y="-103" type="curve" smooth="yes"/>
      <point x="260" y="-103"/>
      <point x="322" y="-48"/>
      <point x="322" y="25" type="curve" smooth="yes"/>
      <point x="322" y="79"/>
      <point x="303" y="103"/>
      <point x="246" y="146" type="curve" smooth="yes"/>
      <point x="201" y="180" type="line" smooth="yes"/>
      <point x="152" y="217"/>
      <point x="133" y="239"/>
      <point x="134" y="276" type="curve" smooth="yes"/>
      <point x="134" y="327"/>
      <point x="166" y="373"/>
      <point x="267" y="378" type="curve"/>
      <point x="268" y="404" type="line"/>
      <point x="133" y="404"/>
      <point x="69" y="334"/>
      <point x="69" y="258" type="curve" smooth="yes"/>
      <point x="69" y="198"/>
      <point x="102" y="166"/>
      <point x="149" y="130" type="curve" smooth="yes"/>
      <point x="193" y="97" type="line" smooth="yes"/>
      <point x="241" y="61"/>
      <point x="253" y="39"/>
      <point x="253" y="11" type="curve" smooth="yes"/>
      <point x="253" y="-37"/>
      <point x="214" y="-70"/>
      <point x="150" y="-70" type="curve" smooth="yes"/>
      <point x="135" y="-70"/>
      <point x="126" y="-69"/>
      <point x="106" y="-63" type="curve"/>
      <point x="143" y="-93" type="line"/>
      <point x="128" y="-30" type="line" smooth="yes"/>
      <point x="122" y="-2"/>
      <point x="108" y="11"/>
      <point x="81" y="11" type="curve" smooth="yes"/>
      <point x="65" y="11"/>
      <point x="51" y="0"/>
      <point x="46" y="-16" type="curve"/>
      <point x="53" y="-70"/>
      <point x="94" y="-103"/>
    </contour>
    <contour>
      <point x="314" y="630" type="curve" smooth="yes"/>
      <point x="226" y="630"/>
      <point x="171" y="571"/>
      <point x="171" y="499" type="curve" smooth="yes"/>
      <point x="171" y="445"/>
      <point x="207" y="414"/>
      <point x="243" y="386" type="curve" smooth="yes"/>
      <point x="299" y="343" type="line" smooth="yes"/>
      <point x="345" y="308"/>
      <point x="356" y="286"/>
      <point x="356" y="252" type="curve" smooth="yes"/>
      <point x="355" y="202"/>
      <point x="311" y="163"/>
      <point x="215" y="159" type="curve"/>
      <point x="215" y="131" type="line"/>
      <point x="352" y="131"/>
      <point x="422" y="193"/>
      <point x="422" y="273" type="curve" smooth="yes"/>
      <point x="422" y="327"/>
      <point x="401" y="355"/>
      <point x="354" y="391" type="curve" smooth="yes"/>
      <point x="310" y="424" type="line" smooth="yes"/>
      <point x="259" y="461"/>
      <point x="239" y="479"/>
      <point x="239" y="518" type="curve" smooth="yes"/>
      <point x="239" y="560"/>
      <point x="265" y="597"/>
      <point x="328" y="597" type="curve" smooth="yes"/>
      <point x="342" y="597"/>
      <point x="352" y="595"/>
      <point x="362" y="592" type="curve"/>
      <point x="331" y="617" type="line"/>
      <point x="347" y="563" type="line" smooth="yes"/>
      <point x="357" y="535"/>
      <point x="375" y="519"/>
      <point x="396" y="519" type="curve" smooth="yes"/>
      <point x="414" y="519"/>
      <point x="428" y="529"/>
      <point x="434" y="547" type="curve"/>
      <point x="420" y="607"/>
      <point x="379" y="630"/>
    </contour>
  </outline>
</glyph>
<glyph name="dieresis" format="2">
  <advance width="368"/>
  <unicode hex="00A8"/>
  <anchor x="245" y="466" name="_aboveLC"/>
  <anchor x="284" y="648" name="aboveLC"/>
  <outline>
    <contour>
      <point x="178" y="571" type="curve" smooth="yes"/>
      <point x="207" y="571"/>
      <point x="231" y="594"/>
      <point x="231" y="627" type="curve" smooth="yes"/>
      <point x="231" y="652"/>
      <point x="213" y="669"/>
      <point x="187" y="669" type="curve" smooth="yes"/>
      <point x="161" y="669"/>
      <point x="134" y="647"/>
      <point x="134" y="614" type="curve" smooth="yes"/>
      <point x="134" y="587"/>
      <point x="154" y="571"/>
    </contour>
    <contour>
      <point x="359" y="571" type="curve" smooth="yes"/>
      <point x="388" y="571"/>
      <point x="413" y="594"/>
      <point x="413" y="627" type="curve" smooth="yes"/>
      <point x="413" y="652"/>
      <point x="394" y="669"/>
      <point x="368" y="669" type="curve" smooth="yes"/>
      <point x="343" y="669"/>
      <point x="316" y="647"/>
      <point x="316" y="614" type="curve" smooth="yes"/>
      <point x="316" y="587"/>
      <point x="336" y="571"/>
    </contour>
  </outline>
</glyph>
<glyph name="ordfeminine" format="2">
  <advance width="340"/>
  <unicode hex="00AA"/>
  <outline>
    <contour>
      <point x="163" y="380" type="curve" smooth="yes"/>
      <point x="207" y="380"/>
      <point x="261" y="423"/>
      <point x="302" y="478" type="curve"/>
      <point x="297" y="494" type="line"/>
      <point x="252" y="451"/>
      <point x="223" y="433"/>
      <point x="198" y="433" type="curve" smooth="yes"/>
      <point x="176" y="433"/>
      <point x="161" y="448"/>
      <point x="161" y="486" type="curve" smooth="yes"/>
      <point x="161" y="576"/>
      <point x="226" y="645"/>
      <point x="275" y="645" type="curve" smooth="yes"/>
      <point x="295" y="645"/>
      <point x="316" y="635"/>
      <point x="332" y="624" type="curve"/>
      <point x="360" y="648" type="line"/>
      <point x="343" y="671"/>
      <point x="325" y="688"/>
      <point x="298" y="688" type="curve" smooth="yes"/>
      <point x="214" y="688"/>
      <point x="101" y="565"/>
      <point x="101" y="459" type="curve" smooth="yes"/>
      <point x="101" y="402"/>
      <point x="131" y="380"/>
    </contour>
    <contour>
      <point x="310" y="380" type="curve" smooth="yes"/>
      <point x="353" y="380"/>
      <point x="392" y="421"/>
      <point x="417" y="458" type="curve"/>
      <point x="400" y="470" type="line"/>
      <point x="379" y="446"/>
      <point x="358" y="429"/>
      <point x="344" y="429" type="curve" smooth="yes"/>
      <point x="336" y="429"/>
      <point x="330" y="434"/>
      <point x="330" y="442" type="curve" smooth="yes"/>
      <point x="330" y="448"/>
      <point x="331" y="460"/>
      <point x="334" y="472" type="curve" smooth="yes"/>
      <point x="383" y="685" type="line"/>
      <point x="372" y="692" type="line"/>
      <point x="317" y="655" type="line"/>
      <point x="277" y="474" type="line" smooth="yes"/>
      <point x="274" y="456"/>
      <point x="272" y="442"/>
      <point x="272" y="426" type="curve" smooth="yes"/>
      <point x="272" y="395"/>
      <point x="287" y="380"/>
    </contour>
  </outline>
</glyph>
<glyph name="guillemotleft" format="2">
  <advance width="514"/>
  <unicode hex="00AB"/>
  <outline>
    <contour>
      <point x="232" y="44" type="line"/>
      <point x="260" y="69" type="line"/>
      <point x="124" y="252" type="line"/>
      <point x="116" y="212" type="line"/>
      <point x="308" y="391" type="line"/>
      <point x="287" y="420" type="line"/>
      <point x="76" y="257" type="line"/>
      <point x="67" y="207" type="line"/>
    </contour>
    <contour>
      <point x="422" y="44" type="line"/>
      <point x="449" y="69" type="line"/>
      <point x="313" y="252" type="line"/>
      <point x="306" y="212" type="line"/>
      <point x="497" y="391" type="line"/>
      <point x="476" y="420" type="line"/>
      <point x="264" y="257" type="line"/>
      <point x="256" y="207" type="line"/>
    </contour>
  </outline>
</glyph>
<glyph name="logicalnot" format="2">
  <advance width="489"/>
  <unicode hex="00AC"/>
  <outline>
    <contour>
      <point x="50" y="310" type="line"/>
      <point x="421" y="310" type="line"/>
      <point x="404" y="329" type="line"/>
      <point x="404" y="151" type="line"/>
      <point x="460" y="151" type="line"/>
      <point x="460" y="362" type="line"/>
      <point x="50" y="362" type="line"/>
    </contour>
  </outline>
</glyph>
<glyph name="uni00AD" format="2">
  <advance width="289"/>
  <unicode hex="00AD"/>
  <outline>
    <contour>
      <point x="50" y="200" type="line"/>
      <point x="265" y="200" type="line"/>
      <point x="265" y="262" type="line"/>
      <point x="50" y="262" type="line"/>
    </contour>
  </outline>
</glyph>
<glyph name="plusminus" format="2">
  <advance width="489"/>
  <unicode hex="00B1"/>
  <outline>
    <contour>
      <point x="230" y="104" type="line"/>
      <point x="286" y="104" type="line"/>
      <point x="286" y="500" type="line"/>
      <point x="230" y="500" type="line"/>
    </contour>
    <contour>
      <point x="463" y="279" type="line"/>
      <point x="463" y="331" type="line"/>
      <point x="53" y="331" type="line"/>
      <point x="53" y="279" type="line"/>
    </contour>
    <contour>
      <point x="463" y="0" type="line"/>
      <point x="463" y="51" type="line"/>
      <point x="53" y="51" type="line"/>
      <point x="53" y="0" type="line"/>
    </contour>
  </outline>
</glyph>
<glyph name="acute" format="2">
  <advance width="368"/>
  <unicode hex="00B4"/>
  <anchor x="207" y="466" name="_aboveLC"/>
  <anchor x="257" y="701" name="aboveLC"/>
  <outline>
    <contour>
      <point x="200" y="506" type="curve"/>
      <point x="222" y="491" type="line"/>
      <point x="259" y="534"/>
      <point x="294" y="575"/>
      <point x="331" y="618" type="curve" smooth="yes"/>
      <point x="347" y="636"/>
      <point x="353" y="651"/>
      <point x="353" y="667" type="curve" smooth="yes"/>
      <point x="353" y="690"/>
      <point x="336" y="701"/>
      <point x="315" y="701" type="curve" smooth="yes"/>
      <point x="294" y="701"/>
      <point x="278" y="686"/>
      <point x="266" y="658" type="curve" smooth="yes"/>
      <point x="244" y="608"/>
      <point x="222" y="556"/>
    </contour>
  </outline>
</glyph>
<glyph name="cedilla" format="2">
  <advance width="368"/>
  <unicode hex="00B8"/>
  <anchor x="136" y="0" name="_baseLC"/>
  <outline>
    <contour>
      <point x="87" y="-80" type="line"/>
      <point x="129" y="-91"/>
      <point x="154" y="-105"/>
      <point x="154" y="-138" type="curve" smooth="yes"/>
      <point x="154" y="-165"/>
      <point x="133" y="-181"/>
      <point x="102" y="-181" type="curve" smooth="yes"/>
      <point x="80" y="-181"/>
      <point x="62" y="-175"/>
      <point x="42" y="-166" type="curve"/>
      <point x="31" y="-191" type="line"/>
      <point x="50" y="-203"/>
      <point x="81" y="-212"/>
      <point x="113" y="-212" type="curve" smooth="yes"/>
      <point x="173" y="-212"/>
      <point x="209" y="-181"/>
      <point x="209" y="-143" type="curve" smooth="yes"/>
      <point x="209" y="-100"/>
      <point x="178" y="-80"/>
      <point x="115" y="-58" type="curve"/>
      <point x="117" y="-78" type="line"/>
      <point x="154" y="0" type="line"/>
      <point x="126" y="0" type="line"/>
    </contour>
  </outline>
</glyph>
<glyph name="one.sups" format="2">
  <advance width="321"/>
  <unicode hex="00B9"/>
  <outline>
    <contour>
      <point x="321" y="390" type="line"/>
      <point x="326" y="414" type="line"/>
      <point x="237" y="425" type="line"/>
      <point x="198" y="425" type="line"/>
      <point x="109" y="414" type="line"/>
      <point x="103" y="390" type="line"/>
    </contour>
    <contour>
      <point x="241" y="390" type="line"/>
      <point x="301" y="675" type="line"/>
      <point x="321" y="757" type="line"/>
      <point x="314" y="762" type="line"/>
      <point x="175" y="730" type="line"/>
      <point x="170" y="705" type="line"/>
      <point x="257" y="711" type="line"/>
      <point x="243" y="726" type="line"/>
      <point x="175" y="390" type="line"/>
    </contour>
  </outline>
</glyph>
<glyph name="ordmasculine" format="2">
  <advance width="319"/>
  <unicode hex="00BA"/>
  <outline>
    <contour>
      <point x="215" y="380" type="curve" smooth="yes"/>
      <point x="308" y="380"/>
      <point x="380" y="473"/>
      <point x="380" y="576" type="curve" smooth="yes"/>
      <point x="380" y="651"/>
      <point x="334" y="688"/>
      <point x="273" y="688" type="curve" smooth="yes"/>
      <point x="180" y="688"/>
      <point x="105" y="598"/>
      <point x="105" y="492" type="curve" smooth="yes"/>
      <point x="105" y="417"/>
      <point x="154" y="380"/>
    </contour>
    <contour>
      <point x="222" y="410" type="curve" smooth="yes"/>
      <point x="191" y="410"/>
      <point x="166" y="429"/>
      <point x="166" y="487" type="curve" smooth="yes"/>
      <point x="166" y="573"/>
      <point x="207" y="658"/>
      <point x="265" y="658" type="curve" smooth="yes"/>
      <point x="297" y="658"/>
      <point x="320" y="639"/>
      <point x="320" y="582" type="curve" smooth="yes"/>
      <point x="320" y="499"/>
      <point x="281" y="410"/>
    </contour>
  </outline>
</glyph>
<glyph name="threequarters" format="2">
  <advance width="800"/>
  <unicode hex="00BE"/>
  <outline>
    <contour>
      <point x="239" y="-14" type="line"/>
      <point x="695" y="586" type="line"/>
      <point x="663" y="610" type="line"/>
      <point x="207" y="10" type="line"/>
    </contour>
    <contour>
      <point x="172" y="224" type="curve" smooth="yes"/>
      <point x="253" y="224"/>
      <point x="316" y="264"/>
      <point x="316" y="331" type="curve" smooth="yes"/>
      <point x="316" y="384"/>
      <point x="283" y="414"/>
      <point x="211" y="421" type="curve"/>
      <point x="209" y="413" type="line"/>
      <point x="287" y="424"/>
      <point x="333" y="465"/>
      <point x="333" y="519" type="curve" smooth="yes"/>
      <point x="333" y="567"/>
      <point x="300" y="605"/>
      <point x="229" y="605" type="curve" smooth="yes"/>
      <point x="162" y="605"/>
      <point x="119" y="573"/>
      <point x="112" y="516" type="curve"/>
      <point x="116" y="505"/>
      <point x="128" y="496"/>
      <point x="140" y="496" type="curve" smooth="yes"/>
      <point x="159" y="496"/>
      <point x="172" y="509"/>
      <point x="174" y="534" type="curve" smooth="yes"/>
      <point x="182" y="587" type="line"/>
      <point x="158" y="563" type="line"/>
      <point x="175" y="572"/>
      <point x="195" y="576"/>
      <point x="212" y="576" type="curve" smooth="yes"/>
      <point x="245" y="576"/>
      <point x="268" y="558"/>
      <point x="268" y="516" type="curve" smooth="yes"/>
      <point x="268" y="458"/>
      <point x="227" y="430"/>
      <point x="162" y="430" type="curve"/>
      <point x="158" y="402" type="line"/>
      <point x="218" y="402"/>
      <point x="245" y="380"/>
      <point x="245" y="335" type="curve" smooth="yes"/>
      <point x="245" y="279"/>
      <point x="205" y="253"/>
      <point x="162" y="253" type="curve" smooth="yes"/>
      <point x="138" y="253"/>
      <point x="120" y="258"/>
      <point x="103" y="269" type="curve"/>
      <point x="128" y="244" type="line"/>
      <point x="126" y="299" type="line" smooth="yes"/>
      <point x="126" y="331"/>
      <point x="115" y="343"/>
      <point x="96" y="343" type="curve" smooth="yes"/>
      <point x="83" y="343"/>
      <point x="73" y="335"/>
      <point x="66" y="321" type="curve"/>
      <point x="66" y="253"/>
      <point x="107" y="224"/>
    </contour>
    <contour>
      <point x="750" y="89" type="line"/>
      <point x="759" y="134" type="line"/>
      <point x="506" y="134" type="line"/>
      <point x="507" y="125" type="line"/>
      <point x="689" y="322" type="line"/>
      <point x="677" y="322" type="line"/>
      <point x="609" y="-11" type="line"/>
      <point x="669" y="-11" type="line"/>
      <point x="746" y="368" type="line"/>
      <point x="697" y="368" type="line"/>
      <point x="479" y="133" type="line"/>
      <point x="471" y="89" type="line"/>
    </contour>
  </outline>
</glyph>
<glyph name="questiondown" format="2">
  <advance width="410"/>
  <unicode hex="00BF"/>
  <outline>
    <contour>
      <point x="368" y="396" type="curve" smooth="yes"/>
      <point x="368" y="428"/>
      <point x="344" y="451"/>
      <point x="310" y="451" type="curve" smooth="yes"/>
      <point x="278" y="451"/>
      <point x="247" y="422"/>
      <point x="247" y="387" type="curve" smooth="yes"/>
      <point x="247" y="356"/>
      <point x="268" y="331"/>
      <point x="302" y="331" type="curve" smooth="yes"/>
      <point x="336" y="331"/>
      <point x="368" y="360"/>
    </contour>
    <contour>
      <point x="313" y="268" type="curve"/>
      <point x="280" y="273" type="line"/>
      <point x="271" y="207"/>
      <point x="263" y="184"/>
      <point x="242" y="164" type="curve" smooth="yes"/>
      <point x="230" y="151"/>
      <point x="209" y="137"/>
      <point x="128" y="87" type="curve" smooth="yes"/>
      <point x="32" y="28"/>
      <point x="0" y="-10"/>
      <point x="0" y="-75" type="curve" smooth="yes"/>
      <point x="0" y="-152"/>
      <point x="59" y="-189"/>
      <point x="143" y="-189" type="curve" smooth="yes"/>
      <point x="243" y="-189"/>
      <point x="295" y="-135"/>
      <point x="309" y="-79" type="curve"/>
      <point x="307" y="-57"/>
      <point x="293" y="-41"/>
      <point x="272" y="-41" type="curve" smooth="yes"/>
      <point x="246" y="-41"/>
      <point x="233" y="-54"/>
      <point x="221" y="-81" type="curve" smooth="yes"/>
      <point x="189" y="-161" type="line"/>
      <point x="237" y="-138" type="line"/>
      <point x="217" y="-144"/>
      <point x="192" y="-151"/>
      <point x="151" y="-151" type="curve" smooth="yes"/>
      <point x="97" y="-151"/>
      <point x="67" y="-126"/>
      <point x="67" y="-84" type="curve" smooth="yes"/>
      <point x="67" y="-46"/>
      <point x="90" y="-10"/>
      <point x="161" y="32" type="curve" smooth="yes"/>
      <point x="245" y="82"/>
      <point x="261" y="99"/>
      <point x="278" y="118" type="curve" smooth="yes"/>
      <point x="303" y="146"/>
      <point x="310" y="182"/>
    </contour>
  </outline>
</glyph>
<glyph name="Agrave" format="2">
  <advance width="623"/>
  <unicode hex="00C0"/>
  <anchor x="440" y="806" name="aboveUC"/>
  <anchor x="257" y="-20" name="belowLC"/>
  <anchor x="484" y="0" name="ogonek"/>
  <outline>
    <contour>
      <point x="-26" y="0" type="line"/>
      <point x="179" y="0" type="line"/>
      <point x="187" y="38" type="line"/>
      <point x="96" y="52" type="line"/>
      <point x="79" y="52" type="line"/>
      <point x="-19" y="38" type="line"/>
    </contour>
    <contour>
      <point x="30" y="0" type="line"/>
      <point x="81" y="0" type="line"/>
      <point x="368" y="546" type="line"/>
      <point x="353" y="541" type="line"/>
      <point x="426" y="0" type="line"/>
      <point x="516" y="0" type="line"/>
      <point x="427" y="614" type="line"/>
      <point x="369" y="614" type="line"/>
    </contour>
    <contour>
      <point x="177" y="218" type="line"/>
      <point x="441" y="218" type="line"/>
      <point x="451" y="262" type="line"/>
      <point x="191" y="262" type="line"/>
    </contour>
    <contour>
      <point x="333" y="0" type="line"/>
      <point x="582" y="0" type="line"/>
      <point x="589" y="38" type="line"/>
      <point x="478" y="52" type="line"/>
      <point x="460" y="52" type="line"/>
      <point x="341" y="38" type="line"/>
    </contour>
    <contour>
      <point x="442" y="684" type="line"/>
      <point x="414" y="713"/>
      <point x="384" y="743"/>
      <point x="354" y="771" type="curve" smooth="yes"/>
      <point x="328" y="797"/>
      <point x="312" y="806"/>
      <point x="296" y="806" type="curve" smooth="yes"/>
      <point x="276" y="806"/>
      <point x="259" y="793"/>
      <point x="259" y="774" type="curve" smooth="yes"/>
      <point x="259" y="758"/>
      <point x="271" y="741"/>
      <point x="306" y="722" type="curve" smooth="yes"/>
      <point x="345" y="701"/>
      <point x="385" y="681"/>
      <point x="425" y="661" type="curve"/>
    </contour>
  </outline>
</glyph>
<glyph name="Aacute" format="2">
  <advance width="623"/>
  <unicode hex="00C1"/>
  <anchor x="458" y="798" name="aboveUC"/>
  <anchor x="257" y="-20" name="belowLC"/>
  <anchor x="484" y="0" name="ogonek"/>
  <outline>
    <contour>
      <point x="-26" y="0" type="line"/>
      <point x="179" y="0" type="line"/>
      <point x="187" y="38" type="line"/>
      <point x="96" y="52" type="line"/>
      <point x="79" y="52" type="line"/>
      <point x="-19" y="38" type="line"/>
    </contour>
    <contour>
      <point x="30" y="0" type="line"/>
      <point x="81" y="0" type="line"/>
      <point x="368" y="546" type="line"/>
      <point x="353" y="541" type="line"/>
      <point x="426" y="0" type="line"/>
      <point x="516" y="0" type="line"/>
      <point x="427" y="614" type="line"/>
      <point x="369" y="614" type="line"/>
    </contour>
    <contour>
      <point x="177" y="218" type="line"/>
      <point x="441" y="218" type="line"/>
      <point x="451" y="262" type="line"/>
      <point x="191" y="262" type="line"/>
    </contour>
    <contour>
      <point x="333" y="0" type="line"/>
      <point x="582" y="0" type="line"/>
      <point x="589" y="38" type="line"/>
      <point x="478" y="52" type="line"/>
      <point x="460" y="52" type="line"/>
      <point x="341" y="38" type="line"/>
    </contour>
    <contour>
      <point x="363" y="675" type="curve"/>
      <point x="376" y="654" type="line"/>
      <point x="423" y="674"/>
      <point x="470" y="693"/>
      <point x="516" y="713" type="curve" smooth="yes"/>
      <point x="561" y="734"/>
      <point x="566" y="748"/>
      <point x="566" y="765" type="curve" smooth="yes"/>
      <point x="566" y="785"/>
      <point x="551" y="798"/>
      <point x="531" y="798" type="curve" smooth="yes"/>
      <point x="508" y="798"/>
      <point x="498" y="789"/>
      <point x="468" y="764" type="curve" smooth="yes"/>
      <point x="432" y="735"/>
      <point x="398" y="705"/>
    </contour>
  </outline>
</glyph>
<glyph name="Adieresis" format="2">
  <advance width="623"/>
  <unicode hex="00C4"/>
  <anchor x="417" y="792" name="aboveUC"/>
  <anchor x="257" y="-20" name="belowLC"/>
  <anchor x="484" y="0" name="ogonek"/>
  <outline>
    <contour>
      <point x="-26" y="0" type="line"/>
      <point x="179" y="0" type="line"/>
      <point x="187" y="38" type="line"/>
      <point x="96" y="52" type="line"/>
      <point x="79" y="52" type="line"/>
      <point x="-19" y="38" type="line"/>
    </contour>
    <contour>
      <point x="30" y="0" type="line"/>
      <point x="81" y="0" type="line"/>
      <point x="368" y="546" type="line"/>
      <point x="353" y="541" type="line"/>
      <point x="426" y="0" type="line"/>
      <point x="516" y="0" type="line"/>
      <point x="427" y="614" type="line"/>
      <point x="369" y="614" type="line"/>
    </contour>
    <contour>
      <point x="177" y="218" type="line"/>
      <point x="441" y="218" type="line"/>
      <point x="451" y="262" type="line"/>
      <point x="191" y="262" type="line"/>
    </contour>
    <contour>
      <point x="333" y="0" type="line"/>
      <point x="582" y="0" type="line"/>
      <point x="589" y="38" type="line"/>
      <point x="478" y="52" type="line"/>
      <point x="460" y="52" type="line"/>
      <point x="341" y="38" type="line"/>
    </contour>
    <contour>
      <point x="295" y="684" type="curve" smooth="yes"/>
      <point x="322" y="684"/>
      <point x="347" y="707"/>
      <point x="347" y="740" type="curve" smooth="yes"/>
      <point x="347" y="764"/>
      <point x="329" y="782"/>
      <point x="304" y="782" type="curve" smooth="yes"/>
      <point x="277" y="782"/>
      <point x="251" y="760"/>
      <point x="251" y="727" type="curve" smooth="yes"/>
      <point x="251" y="701"/>
      <point x="272" y="684"/>
    </contour>
    <contour>
      <point x="496" y="684" type="curve" smooth="yes"/>
      <point x="526" y="684"/>
      <point x="551" y="707"/>
      <point x="551" y="740" type="curve" smooth="yes"/>
      <point x="551" y="764"/>
      <point x="532" y="782"/>
      <point x="506" y="782" type="curve" smooth="yes"/>
      <point x="481" y="782"/>
      <point x="455" y="760"/>
      <point x="455" y="727" type="curve" smooth="yes"/>
      <point x="455" y="701"/>
      <point x="475" y="684"/>
    </contour>
  </outline>
</glyph>
<glyph name="Aring" format="2">
  <advance width="623"/>
  <unicode hex="00C5"/>
  <anchor x="434" y="835" name="aboveUC"/>
  <anchor x="257" y="-20" name="belowLC"/>
  <anchor x="484" y="0" name="ogonek"/>
  <outline>
    <contour>
      <point x="-26" y="0" type="line"/>
      <point x="179" y="0" type="line"/>
      <point x="187" y="38" type="line"/>
      <point x="96" y="52" type="line"/>
      <point x="79" y="52" type="line"/>
      <point x="-19" y="38" type="line"/>
    </contour>
    <contour>
      <point x="30" y="0" type="line"/>
      <point x="81" y="0" type="line"/>
      <point x="368" y="546" type="line"/>
      <point x="353" y="541" type="line"/>
      <point x="426" y="0" type="line"/>
      <point x="516" y="0" type="line"/>
      <point x="427" y="614" type="line"/>
      <point x="369" y="614" type="line"/>
    </contour>
    <contour>
      <point x="177" y="218" type="line"/>
      <point x="441" y="218" type="line"/>
      <point x="451" y="262" type="line"/>
      <point x="191" y="262" type="line"/>
    </contour>
    <contour>
      <point x="333" y="0" type="line"/>
      <point x="582" y="0" type="line"/>
      <point x="589" y="38" type="line"/>
      <point x="478" y="52" type="line"/>
      <point x="460" y="52" type="line"/>
      <point x="341" y="38" type="line"/>
    </contour>
    <contour>
      <point x="405" y="654" type="curve" smooth="yes"/>
      <point x="454" y="654"/>
      <point x="502" y="690"/>
      <point x="502" y="749" type="curve" smooth="yes"/>
      <point x="502" y="797"/>
      <point x="467" y="826"/>
      <point x="420" y="826" type="curve" smooth="yes"/>
      <point x="372" y="826"/>
      <point x="322" y="791"/>
      <point x="322" y="730" type="curve" smooth="yes"/>
      <point x="322" y="682"/>
      <point x="360" y="654"/>
    </contour>
    <contour>
      <point x="408" y="686" type="curve" smooth="yes"/>
      <point x="379" y="686"/>
      <point x="361" y="706"/>
      <point x="361" y="734" type="curve" smooth="yes"/>
      <point x="361" y="768"/>
      <point x="387" y="793"/>
      <point x="418" y="793" type="curve" smooth="yes"/>
      <point x="449" y="793"/>
      <point x="462" y="771"/>
      <point x="462" y="747" type="curve" smooth="yes"/>
      <point x="462" y="714"/>
      <point x="441" y="686"/>
    </contour>
  </outline>
</glyph>
<glyph name="Ccedilla" format="2">
  <advance width="546"/>
  <unicode hex="00C7"/>
  <anchor x="402" y="634" name="aboveUC"/>
  <anchor x="314" y="0" name="baseLC"/>
  <anchor x="295" y="-20" name="belowLC"/>
  <outline>
    <contour>
      <point x="305" y="-13" type="curve" smooth="yes"/>
      <point x="384" y="-13"/>
      <point x="437" y="6"/>
      <point x="484" y="27" type="curve"/>
      <point x="510" y="161" type="line"/>
      <point x="453" y="161" type="line"/>
      <point x="408" y="26" type="line"/>
      <point x="462" y="66" type="line"/>
      <point x="423" y="46"/>
      <point x="380" y="32"/>
      <point x="336" y="32" type="curve" smooth="yes"/>
      <point x="230" y="32"/>
      <point x="143" y="109"/>
      <point x="143" y="259" type="curve" smooth="yes"/>
      <point x="143" y="434"/>
      <point x="252" y="582"/>
      <point x="398" y="582" type="curve" smooth="yes"/>
      <point x="443" y="582"/>
      <point x="493" y="567"/>
      <point x="525" y="540" type="curve"/>
      <point x="486" y="579" type="line"/>
      <point x="486" y="450" type="line"/>
      <point x="540" y="450" type="line"/>
      <point x="562" y="580" type="line"/>
      <point x="505" y="616"/>
      <point x="455" y="629"/>
      <point x="404" y="629" type="curve" smooth="yes"/>
      <point x="209" y="629"/>
      <point x="51" y="460"/>
      <point x="51" y="257" type="curve" smooth="yes"/>
      <point x="51" y="92"/>
      <point x="150" y="-13"/>
    </contour>
    <contour>
      <point x="249" y="-80" type="line"/>
      <point x="292" y="-91"/>
      <point x="317" y="-105"/>
      <point x="317" y="-138" type="curve" smooth="yes"/>
      <point x="317" y="-165"/>
      <point x="296" y="-181"/>
      <point x="264" y="-181" type="curve" smooth="yes"/>
      <point x="241" y="-181"/>
      <point x="224" y="-175"/>
      <point x="204" y="-166" type="curve"/>
      <point x="193" y="-191" type="line"/>
      <point x="212" y="-203"/>
      <point x="243" y="-212"/>
      <point x="276" y="-212" type="curve" smooth="yes"/>
      <point x="335" y="-212"/>
      <point x="372" y="-181"/>
      <point x="372" y="-143" type="curve" smooth="yes"/>
      <point x="372" y="-100"/>
      <point x="341" y="-80"/>
      <point x="276" y="-58" type="curve"/>
      <point x="280" y="-78" type="line"/>
      <point x="317" y="0" type="line"/>
      <point x="289" y="0" type="line"/>
    </contour>
  </outline>
</glyph>
<glyph name="Egrave" format="2">
  <advance width="540"/>
  <unicode hex="00C8"/>
  <anchor x="403" y="806" name="aboveUC"/>
  <anchor x="280" y="-20" name="belowLC"/>
  <anchor x="391" y="0" name="ogonek"/>
  <outline>
    <contour>
      <point x="12" y="0" type="line"/>
      <point x="131" y="0" type="line"/>
      <point x="140" y="52" type="line"/>
      <point x="134" y="52" type="line"/>
      <point x="20" y="38" type="line"/>
    </contour>
    <contour>
      <point x="90" y="0" type="line"/>
      <point x="178" y="0" type="line"/>
      <point x="194" y="94"/>
      <point x="210" y="190"/>
      <point x="228" y="285" type="curve" smooth="yes"/>
      <point x="289" y="614" type="line"/>
      <point x="200" y="614" type="line"/>
      <point x="185" y="519"/>
      <point x="169" y="424"/>
      <point x="151" y="329" type="curve" smooth="yes"/>
    </contour>
    <contour>
      <point x="110" y="575" type="line"/>
      <point x="223" y="562" type="line"/>
      <point x="235" y="562" type="line"/>
      <point x="245" y="614" type="line"/>
      <point x="118" y="614" type="line"/>
    </contour>
    <contour>
      <point x="131" y="0" type="line"/>
      <point x="473" y="0" type="line"/>
      <point x="510" y="162" type="line"/>
      <point x="460" y="162" type="line"/>
      <point x="402" y="0" type="line"/>
      <point x="456" y="46" type="line"/>
      <point x="140" y="46" type="line"/>
    </contour>
    <contour>
      <point x="188" y="292" type="line"/>
      <point x="393" y="292" type="line"/>
      <point x="402" y="335" type="line"/>
      <point x="196" y="335" type="line"/>
    </contour>
    <contour>
      <point x="236" y="567" type="line"/>
      <point x="507" y="567" type="line"/>
      <point x="474" y="614" type="line"/>
      <point x="474" y="451" type="line"/>
      <point x="524" y="451" type="line"/>
      <point x="546" y="614" type="line"/>
      <point x="245" y="614" type="line"/>
    </contour>
    <contour>
      <point x="365" y="207" type="line"/>
      <point x="404" y="207" type="line"/>
      <point x="446" y="422" type="line"/>
      <point x="405" y="422" type="line"/>
      <point x="371" y="326" type="line"/>
      <point x="368" y="308" type="line"/>
    </contour>
    <contour>
      <point x="405" y="684" type="line"/>
      <point x="377" y="713"/>
      <point x="347" y="743"/>
      <point x="317" y="771" type="curve" smooth="yes"/>
      <point x="291" y="797"/>
      <point x="276" y="806"/>
      <point x="259" y="806" type="curve" smooth="yes"/>
      <point x="239" y="806"/>
      <point x="222" y="793"/>
      <point x="222" y="774" type="curve" smooth="yes"/>
      <point x="222" y="758"/>
      <point x="234" y="741"/>
      <point x="269" y="722" type="curve" smooth="yes"/>
      <point x="308" y="701"/>
      <point x="348" y="681"/>
      <point x="388" y="661" type="curve"/>
    </contour>
  </outline>
</glyph>
<glyph name="Icircumflex" format="2">
  <advance width="331"/>
  <unicode hex="00CE"/>
  <anchor x="276" y="803" name="aboveUC"/>
  <anchor x="130" y="-20" name="belowLC"/>
  <anchor x="165" y="0" name="ogonek"/>
  <outline>
    <contour>
      <point x="12" y="0" type="line"/>
      <point x="261" y="0" type="line"/>
      <point x="268" y="38" type="line"/>
      <point x="157" y="52" type="line"/>
      <point x="138" y="52" type="line"/>
      <point x="20" y="38" type="line"/>
    </contour>
    <contour>
      <point x="90" y="0" type="line"/>
      <point x="178" y="0" type="line"/>
      <point x="194" y="94"/>
      <point x="210" y="190"/>
      <point x="228" y="285" type="curve" smooth="yes"/>
      <point x="289" y="614" type="line"/>
      <point x="200" y="614" type="line"/>
      <point x="185" y="519"/>
      <point x="169" y="424"/>
      <point x="151" y="329" type="curve" smooth="yes"/>
    </contour>
    <contour>
      <point x="110" y="575" type="line"/>
      <point x="224" y="562" type="line"/>
      <point x="242" y="562" type="line"/>
      <point x="358" y="575" type="line"/>
      <point x="367" y="614" type="line"/>
      <point x="118" y="614" type="line"/>
    </contour>
    <contour>
      <point x="288" y="793" type="line"/>
      <point x="255" y="793" type="line"/>
      <point x="115" y="679" type="line"/>
      <point x="128" y="656" type="line"/>
      <point x="305" y="758" type="line"/>
      <point x="227" y="758" type="line"/>
      <point x="375" y="656" type="line"/>
      <point x="398" y="679" type="line"/>
    </contour>
  </outline>
</glyph>
<glyph name="Idieresis" format="2">
  <advance width="331"/>
  <unicode hex="00CF"/>
  <anchor x="245" y="634" name="aboveUC"/>
  <anchor x="130" y="-20" name="belowLC"/>
  <anchor x="165" y="0" name="ogonek"/>
  <outline>
    <contour>
      <point x="174" y="684" type="curve" smooth="yes"/>
      <point x="203" y="684"/>
      <point x="227" y="707"/>
      <point x="227" y="740" type="curve" smooth="yes"/>
      <point x="227" y="764"/>
      <point x="208" y="782"/>
      <point x="184" y="782" type="curve" smooth="yes"/>
      <point x="157" y="782"/>
      <point x="131" y="760"/>
      <point x="131" y="727" type="curve" smooth="yes"/>
      <point x="131" y="701"/>
      <point x="151" y="684"/>
    </contour>
    <contour>
      <point x="339" y="684" type="curve" smooth="yes"/>
      <point x="368" y="684"/>
      <point x="392" y="707"/>
      <point x="392" y="740" type="curve" smooth="yes"/>
      <point x="392" y="764"/>
      <point x="374" y="782"/>
      <point x="349" y="782" type="curve" smooth="yes"/>
      <point x="322" y="782"/>
      <point x="298" y="760"/>
      <point x="298" y="727" type="curve" smooth="yes"/>
      <point x="298" y="701"/>
      <point x="318" y="684"/>
    </contour>
    <contour>
      <point x="12" y="0" type="line"/>
      <point x="261" y="0" type="line"/>
      <point x="268" y="38" type="line"/>
      <point x="157" y="52" type="line"/>
      <point x="138" y="52" type="line"/>
      <point x="20" y="38" type="line"/>
    </contour>
    <contour>
      <point x="90" y="0" type="line"/>
      <point x="178" y="0" type="line"/>
      <point x="194" y="94"/>
      <point x="210" y="190"/>
      <point x="228" y="285" type="curve" smooth="yes"/>
      <point x="289" y="614" type="line"/>
      <point x="200" y="614" type="line"/>
      <point x="185" y="519"/>
      <point x="169" y="424"/>
      <point x="151" y="329" type="curve" smooth="yes"/>
    </contour>
    <contour>
      <point x="110" y="575" type="line"/>
      <point x="224" y="562" type="line"/>
      <point x="242" y="562" type="line"/>
      <point x="358" y="575" type="line"/>
      <point x="367" y="614" type="line"/>
      <point x="118" y="614" type="line"/>
    </contour>
  </outline>
</glyph>
<glyph name="Eth" format="2">
  <advance width="643"/>
  <unicode hex="00D0"/>
  <anchor x="372" y="634" name="aboveUC"/>
  <anchor x="271" y="-20" name="belowLC"/>
  <outline>
    <contour>
      <point x="367" y="292" type="line"/>
      <point x="375" y="336" type="line"/>
      <point x="59" y="336" type="line"/>
      <point x="51" y="292" type="line"/>
    </contour>
    <contour>
      <point x="12" y="0" type="line"/>
      <point x="131" y="0" type="line"/>
      <point x="141" y="52" type="line"/>
      <point x="134" y="52" type="line"/>
      <point x="20" y="38" type="line"/>
    </contour>
    <contour>
      <point x="90" y="0" type="line"/>
      <point x="178" y="0" type="line"/>
      <point x="194" y="94"/>
      <point x="210" y="190"/>
      <point x="228" y="285" type="curve" smooth="yes"/>
      <point x="289" y="614" type="line"/>
      <point x="200" y="614" type="line"/>
      <point x="185" y="519"/>
      <point x="169" y="424"/>
      <point x="151" y="329" type="curve" smooth="yes"/>
    </contour>
    <contour>
      <point x="110" y="575" type="line"/>
      <point x="224" y="562" type="line"/>
      <point x="237" y="562" type="line"/>
      <point x="248" y="614" type="line"/>
      <point x="118" y="614" type="line"/>
    </contour>
    <contour>
      <point x="132" y="0" type="line"/>
      <point x="266" y="0" type="line" smooth="yes"/>
      <point x="455" y="0"/>
      <point x="630" y="120"/>
      <point x="631" y="360" type="curve" smooth="yes"/>
      <point x="631" y="517"/>
      <point x="529" y="614"/>
      <point x="369" y="614" type="curve" smooth="yes"/>
      <point x="249" y="614" type="line"/>
      <point x="241" y="571" type="line"/>
      <point x="332" y="571" type="line" smooth="yes"/>
      <point x="460" y="571"/>
      <point x="538" y="497"/>
      <point x="537" y="361" type="curve" smooth="yes"/>
      <point x="536" y="207"/>
      <point x="448" y="43"/>
      <point x="276" y="43" type="curve" smooth="yes"/>
      <point x="140" y="43" type="line"/>
    </contour>
  </outline>
</glyph>
<glyph name="Ograve" format="2">
  <advance width="608"/>
  <unicode hex="00D2"/>
  <anchor x="432" y="806" name="aboveUC"/>
  <anchor x="279" y="-19" name="belowLC"/>
  <anchor x="523" y="621" name="hornLC"/>
  <anchor x="362" y="0" name="ogonek"/>
  <outline>
    <contour>
      <point x="279" y="-13" type="curve" smooth="yes"/>
      <point x="475" y="-13"/>
      <point x="603" y="164"/>
      <point x="603" y="375" type="curve" smooth="yes"/>
      <point x="603" y="529"/>
      <point x="517" y="628"/>
      <point x="379" y="628" type="curve" smooth="yes"/>
      <point x="188" y="628"/>
      <point x="58" y="449"/>
      <point x="58" y="238" type="curve" smooth="yes"/>
      <point x="58" y="80"/>
      <point x="147" y="-13"/>
    </contour>
    <contour>
      <point x="292" y="33" type="curve" smooth="yes"/>
      <point x="192" y="33"/>
      <point x="147" y="113"/>
      <point x="147" y="233" type="curve" smooth="yes"/>
      <point x="147" y="430"/>
      <point x="238" y="581"/>
      <point x="369" y="581" type="curve" smooth="yes"/>
      <point x="471" y="581"/>
      <point x="515" y="504"/>
      <point x="515" y="379" type="curve" smooth="yes"/>
      <point x="515" y="184"/>
      <point x="424" y="33"/>
    </contour>
    <contour>
      <point x="434" y="684" type="line"/>
      <point x="405" y="713"/>
      <point x="376" y="743"/>
      <point x="345" y="771" type="curve" smooth="yes"/>
      <point x="320" y="797"/>
      <point x="304" y="806"/>
      <point x="287" y="806" type="curve" smooth="yes"/>
      <point x="267" y="806"/>
      <point x="251" y="793"/>
      <point x="251" y="774" type="curve" smooth="yes"/>
      <point x="251" y="758"/>
      <point x="263" y="741"/>
      <point x="298" y="722" type="curve" smooth="yes"/>
      <point x="336" y="701"/>
      <point x="377" y="681"/>
      <point x="416" y="661" type="curve"/>
    </contour>
  </outline>
</glyph>
<glyph name="Otilde" format="2">
  <advance width="608"/>
  <unicode hex="00D5"/>
  <anchor x="414" y="802" name="aboveUC"/>
  <anchor x="279" y="-19" name="belowLC"/>
  <anchor x="523" y="621" name="hornLC"/>
  <anchor x="362" y="0" name="ogonek"/>
  <outline>
    <contour>
      <point x="279" y="-13" type="curve" smooth="yes"/>
      <point x="475" y="-13"/>
      <point x="603" y="164"/>
      <point x="603" y="375" type="curve" smooth="yes"/>
      <point x="603" y="529"/>
      <point x="517" y="628"/>
      <point x="379" y="628" type="curve" smooth="yes"/>
      <point x="188" y="628"/>
      <point x="58" y="449"/>
      <point x="58" y="238" type="curve" smooth="yes"/>
      <point x="58" y="80"/>
      <point x="147" y="-13"/>
    </contour>
    <contour>
      <point x="292" y="33" type="curve" smooth="yes"/>
      <point x="192" y="33"/>
      <point x="147" y="113"/>
      <point x="147" y="233" type="curve" smooth="yes"/>
      <point x="147" y="430"/>
      <point x="238" y="581"/>
      <point x="369" y="581" type="curve" smooth="yes"/>
      <point x="471" y="581"/>
      <point x="515" y="504"/>
      <point x="515" y="379" type="curve" smooth="yes"/>
      <point x="515" y="184"/>
      <point x="424" y="33"/>
    </contour>
    <contour>
      <point x="223" y="674" type="curve"/>
      <point x="250" y="665" type="line"/>
      <point x="273" y="719"/>
      <point x="296" y="737"/>
      <point x="325" y="737" type="curve" smooth="yes"/>
      <point x="353" y="737"/>
      <point x="368" y="713"/>
      <point x="387" y="694" type="curve" smooth="yes"/>
      <point x="404" y="678"/>
      <point x="423" y="663"/>
      <point x="457" y="663" type="curve" smooth="yes"/>
      <point x="514" y="663"/>
      <point x="550" y="701"/>
      <point x="575" y="782" type="curve"/>
      <point x="548" y="792" type="line"/>
      <point x="526" y="737"/>
      <point x="503" y="718"/>
      <point x="472" y="718" type="curve" smooth="yes"/>
      <point x="446" y="718"/>
      <point x="431" y="743"/>
      <point x="412" y="761" type="curve" smooth="yes"/>
      <point x="393" y="778"/>
      <point x="376" y="793"/>
      <point x="342" y="793" type="curve" smooth="yes"/>
      <point x="287" y="793"/>
      <point x="247" y="755"/>
    </contour>
  </outline>
</glyph>
<glyph name="multiply" format="2">
  <advance width="489"/>
  <unicode hex="00D7"/>
  <outline>
    <contour>
      <point x="415" y="109" type="line"/>
      <point x="453" y="147" type="line"/>
      <point x="103" y="495" type="line"/>
      <point x="66" y="458" type="line"/>
    </contour>
    <contour>
      <point x="453" y="458" type="line"/>
      <point x="415" y="495" type="line"/>
      <point x="66" y="147" type="line"/>
      <point x="103" y="109" type="line"/>
    </contour>
  </outline>
</glyph>
<glyph name="Ugrave" format="2">
  <advance width="652"/>
  <unicode hex="00D9"/>
  <anchor x="474" y="806" name="aboveUC"/>
  <anchor x="307" y="-20" name="belowLC"/>
  <anchor x="617" y="624" name="hornLC"/>
  <anchor x="388" y="0" name="ogonek"/>
  <outline>
    <contour>
      <point x="108" y="164" type="curve" smooth="yes"/>
      <point x="108" y="48"/>
      <point x="176" y="-13"/>
      <point x="301" y="-13" type="curve" smooth="yes"/>
      <point x="436" y="-13"/>
      <point x="531" y="57"/>
      <point x="568" y="251" type="curve" smooth="yes"/>
      <point x="637" y="614" type="line"/>
      <point x="587" y="614" type="line"/>
      <point x="522" y="271" type="line" smooth="yes"/>
      <point x="489" y="101"/>
      <point x="437" y="52"/>
      <point x="315" y="52" type="curve" smooth="yes"/>
      <point x="248" y="52"/>
      <point x="194" y="93"/>
      <point x="194" y="170" type="curve" smooth="yes"/>
      <point x="194" y="211"/>
      <point x="199" y="234"/>
      <point x="204" y="259" type="curve" smooth="yes"/>
      <point x="269" y="614" type="line"/>
      <point x="181" y="614" type="line"/>
      <point x="166" y="520"/>
      <point x="149" y="425"/>
      <point x="132" y="331" type="curve" smooth="yes"/>
      <point x="119" y="261" type="line" smooth="yes"/>
      <point x="113" y="228"/>
      <point x="108" y="195"/>
    </contour>
    <contour>
      <point x="91" y="575" type="line"/>
      <point x="204" y="562" type="line"/>
      <point x="223" y="562" type="line"/>
      <point x="339" y="575" type="line"/>
      <point x="347" y="614" type="line"/>
      <point x="98" y="614" type="line"/>
    </contour>
    <contour>
      <point x="484" y="575" type="line"/>
      <point x="590" y="563" type="line"/>
      <point x="609" y="563" type="line"/>
      <point x="706" y="575" type="line"/>
      <point x="713" y="614" type="line"/>
      <point x="492" y="614" type="line"/>
    </contour>
    <contour>
      <point x="476" y="684" type="line"/>
      <point x="448" y="713"/>
      <point x="418" y="743"/>
      <point x="388" y="771" type="curve" smooth="yes"/>
      <point x="362" y="797"/>
      <point x="346" y="806"/>
      <point x="330" y="806" type="curve" smooth="yes"/>
      <point x="310" y="806"/>
      <point x="293" y="793"/>
      <point x="293" y="774" type="curve" smooth="yes"/>
      <point x="293" y="758"/>
      <point x="305" y="741"/>
      <point x="341" y="722" type="curve" smooth="yes"/>
      <point x="379" y="701"/>
      <point x="419" y="681"/>
      <point x="459" y="661" type="curve"/>
    </contour>
  </outline>
</glyph>
<glyph name="Uacute" format="2">
  <advance width="652"/>
  <unicode hex="00DA"/>
  <anchor x="510" y="798" name="aboveUC"/>
  <anchor x="307" y="-20" name="belowLC"/>
  <anchor x="617" y="624" name="hornLC"/>
  <anchor x="388" y="0" name="ogonek"/>
  <outline>
    <contour>
      <point x="108" y="164" type="curve" smooth="yes"/>
      <point x="108" y="48"/>
      <point x="176" y="-13"/>
      <point x="301" y="-13" type="curve" smooth="yes"/>
      <point x="436" y="-13"/>
      <point x="531" y="57"/>
      <point x="568" y="251" type="curve" smooth="yes"/>
      <point x="637" y="614" type="line"/>
      <point x="587" y="614" type="line"/>
      <point x="522" y="271" type="line" smooth="yes"/>
      <point x="489" y="101"/>
      <point x="437" y="52"/>
      <point x="315" y="52" type="curve" smooth="yes"/>
      <point x="248" y="52"/>
      <point x="194" y="93"/>
      <point x="194" y="170" type="curve" smooth="yes"/>
      <point x="194" y="211"/>
      <point x="199" y="234"/>
      <point x="204" y="259" type="curve" smooth="yes"/>
      <point x="269" y="614" type="line"/>
      <point x="181" y="614" type="line"/>
      <point x="166" y="520"/>
      <point x="149" y="425"/>
      <point x="132" y="331" type="curve" smooth="yes"/>
      <point x="119" y="261" type="line" smooth="yes"/>
      <point x="113" y="228"/>
      <point x="108" y="195"/>
    </contour>
    <contour>
      <point x="91" y="575" type="line"/>
      <point x="204" y="562" type="line"/>
      <point x="223" y="562" type="line"/>
      <point x="339" y="575" type="line"/>
      <point x="347" y="614" type="line"/>
      <point x="98" y="614" type="line"/>
    </contour>
    <contour>
      <point x="484" y="575" type="line"/>
      <point x="590" y="563" type="line"/>
      <point x="609" y="563" type="line"/>
      <point x="706" y="575" type="line"/>
      <point x="713" y="614" type="line"/>
      <point x="492" y="614" type="line"/>
    </contour>
    <contour>
      <point x="415" y="675" type="curve"/>
      <point x="428" y="654" type="line"/>
      <point x="475" y="674"/>
      <point x="522" y="693"/>
      <point x="568" y="713" type="curve" smooth="yes"/>
      <point x="613" y="734"/>
      <point x="619" y="748"/>
      <point x="619" y="765" type="curve" smooth="yes"/>
      <point x="619" y="785"/>
      <point x="603" y="798"/>
      <point x="584" y="798" type="curve" smooth="yes"/>
      <point x="561" y="798"/>
      <point x="551" y="789"/>
      <point x="519" y="764" type="curve" smooth="yes"/>
      <point x="484" y="735"/>
      <point x="450" y="705"/>
    </contour>
  </outline>
</glyph>
<glyph name="Yacute" format="2">
  <advance width="511"/>
  <unicode hex="00DD"/>
  <anchor x="421" y="798" name="aboveUC"/>
  <anchor x="230" y="-20" name="belowLC"/>
  <outline>
    <contour>
      <point x="57" y="575" type="line"/>
      <point x="171" y="562" type="line"/>
      <point x="191" y="562" type="line"/>
      <point x="305" y="575" type="line"/>
      <point x="312" y="614" type="line"/>
      <point x="64" y="614" type="line"/>
    </contour>
    <contour>
      <point x="101" y="0" type="line"/>
      <point x="368" y="0" type="line"/>
      <point x="375" y="38" type="line"/>
      <point x="255" y="52" type="line"/>
      <point x="235" y="52" type="line"/>
      <point x="108" y="38" type="line"/>
    </contour>
    <contour>
      <point x="246" y="226" type="line"/>
      <point x="300" y="226" type="line"/>
      <point x="556" y="614" type="line"/>
      <point x="508" y="614" type="line"/>
      <point x="299" y="288" type="line"/>
      <point x="312" y="287" type="line"/>
      <point x="210" y="614" type="line"/>
      <point x="111" y="614" type="line"/>
    </contour>
    <contour>
      <point x="187" y="0" type="line"/>
      <point x="276" y="0" type="line"/>
      <point x="291" y="94"/>
      <point x="308" y="190"/>
      <point x="325" y="285" type="curve"/>
      <point x="241" y="285" type="line"/>
    </contour>
    <contour>
      <point x="400" y="575" type="line"/>
      <point x="492" y="562" type="line"/>
      <point x="510" y="562" type="line"/>
      <point x="604" y="575" type="line"/>
      <point x="611" y="614" type="line"/>
      <point x="408" y="614" type="line"/>
    </contour>
    <contour>
      <point x="326" y="675" type="curve"/>
      <point x="339" y="654" type="line"/>
      <point x="386" y="674"/>
      <point x="433" y="693"/>
      <point x="479" y="713" type="curve" smooth="yes"/>
      <point x="524" y="734"/>
      <point x="529" y="748"/>
      <point x="529" y="765" type="curve" smooth="yes"/>
      <point x="529" y="785"/>
      <point x="514" y="798"/>
      <point x="494" y="798" type="curve" smooth="yes"/>
      <point x="471" y="798"/>
      <point x="461" y="789"/>
      <point x="431" y="764" type="curve" smooth="yes"/>
      <point x="396" y="735"/>
      <point x="361" y="705"/>
    </contour>
  </outline>
</glyph>
<glyph name="acircumflex" format="2">
  <advance width="485"/>
  <unicode hex="00E2"/>
  <anchor x="356" y="677" name="aboveLC"/>
  <anchor x="207" y="-20" name="belowLC"/>
  <anchor x="375" y="0" name="ogonek"/>
  <outline>
    <contour>
      <point x="130" y="-11" type="curve" smooth="yes"/>
      <point x="195" y="-11"/>
      <point x="276" y="58"/>
      <point x="339" y="151" type="curve"/>
      <point x="331" y="172" type="line"/>
      <point x="256" y="84"/>
      <point x="211" y="54"/>
      <point x="174" y="54" type="curve" smooth="yes"/>
      <point x="141" y="54"/>
      <point x="120" y="80"/>
      <point x="120" y="137" type="curve" smooth="yes"/>
      <point x="120" y="217"/>
      <point x="154" y="291"/>
      <point x="198" y="336" type="curve" smooth="yes"/>
      <point x="230" y="369"/>
      <point x="266" y="387"/>
      <point x="295" y="387" type="curve" smooth="yes"/>
      <point x="326" y="387"/>
      <point x="356" y="369"/>
      <point x="379" y="350" type="curve"/>
      <point x="416" y="377" type="line"/>
      <point x="392" y="417"/>
      <point x="368" y="449"/>
      <point x="328" y="449" type="curve" smooth="yes"/>
      <point x="208" y="449"/>
      <point x="41" y="258"/>
      <point x="41" y="98" type="curve" smooth="yes"/>
      <point x="41" y="20"/>
      <point x="85" y="-11"/>
    </contour>
    <contour>
      <point x="338" y="-11" type="curve" smooth="yes"/>
      <point x="401" y="-11"/>
      <point x="459" y="47"/>
      <point x="495" y="101" type="curve"/>
      <point x="472" y="118" type="line"/>
      <point x="440" y="80"/>
      <point x="407" y="53"/>
      <point x="384" y="53" type="curve" smooth="yes"/>
      <point x="373" y="53"/>
      <point x="363" y="60"/>
      <point x="363" y="73" type="curve" smooth="yes"/>
      <point x="363" y="83"/>
      <point x="366" y="102"/>
      <point x="371" y="125" type="curve" smooth="yes"/>
      <point x="445" y="448" type="line"/>
      <point x="428" y="458" type="line"/>
      <point x="358" y="405" type="line"/>
      <point x="297" y="120" type="line" smooth="yes"/>
      <point x="290" y="90"/>
      <point x="287" y="70"/>
      <point x="287" y="44" type="curve" smooth="yes"/>
      <point x="287" y="5"/>
      <point x="310" y="-11"/>
    </contour>
    <contour>
      <point x="439" y="502" type="line"/>
      <point x="465" y="521" type="line"/>
      <point x="372" y="684" type="line"/>
      <point x="339" y="684" type="line"/>
      <point x="195" y="522" type="line"/>
      <point x="214" y="502" type="line"/>
      <point x="370" y="634" type="line"/>
      <point x="322" y="634" type="line"/>
    </contour>
  </outline>
</glyph>
<glyph name="atilde" format="2">
  <advance width="485"/>
  <unicode hex="00E3"/>
  <anchor x="365" y="667" name="aboveLC"/>
  <anchor x="207" y="-20" name="belowLC"/>
  <anchor x="375" y="0" name="ogonek"/>
  <outline>
    <contour>
      <point x="130" y="-11" type="curve" smooth="yes"/>
      <point x="195" y="-11"/>
      <point x="276" y="58"/>
      <point x="339" y="151" type="curve"/>
      <point x="331" y="172" type="line"/>
      <point x="256" y="84"/>
      <point x="211" y="54"/>
      <point x="174" y="54" type="curve" smooth="yes"/>
      <point x="141" y="54"/>
      <point x="120" y="80"/>
      <point x="120" y="137" type="curve" smooth="yes"/>
      <point x="120" y="217"/>
      <point x="154" y="291"/>
      <point x="198" y="336" type="curve" smooth="yes"/>
      <point x="230" y="369"/>
      <point x="266" y="387"/>
      <point x="295" y="387" type="curve" smooth="yes"/>
      <point x="326" y="387"/>
      <point x="356" y="369"/>
      <point x="379" y="350" type="curve"/>
      <point x="416" y="377" type="line"/>
      <point x="392" y="417"/>
      <point x="368" y="449"/>
      <point x="328" y="449" type="curve" smooth="yes"/>
      <point x="208" y="449"/>
      <point x="41" y="258"/>
      <point x="41" y="98" type="curve" smooth="yes"/>
      <point x="41" y="20"/>
      <point x="85" y="-11"/>
    </contour>
    <contour>
      <point x="338" y="-11" type="curve" smooth="yes"/>
      <point x="401" y="-11"/>
      <point x="459" y="47"/>
      <point x="495" y="101" type="curve"/>
      <point x="472" y="118" type="line"/>
      <point x="440" y="80"/>
      <point x="407" y="53"/>
      <point x="384" y="53" type="curve" smooth="yes"/>
      <point x="373" y="53"/>
      <point x="363" y="60"/>
      <point x="363" y="73" type="curve" smooth="yes"/>
      <point x="363" y="83"/>
      <point x="366" y="102"/>
      <point x="371" y="125" type="curve" smooth="yes"/>
      <point x="445" y="448" type="line"/>
      <point x="428" y="458" type="line"/>
      <point x="358" y="405" type="line"/>
      <point x="297" y="120" type="line" smooth="yes"/>
      <point x="290" y="90"/>
      <point x="287" y="70"/>
      <point x="287" y="44" type="curve" smooth="yes"/>
      <point x="287" y="5"/>
      <point x="310" y="-11"/>
    </contour>
    <contour>
      <point x="187" y="539" type="curve"/>
      <point x="211" y="529" type="line"/>
      <point x="224" y="582"/>
      <point x="249" y="606"/>
      <point x="273" y="606" type="curve" smooth="yes"/>
      <point x="302" y="606"/>
      <point x="321" y="583"/>
      <point x="338" y="562" type="curve" smooth="yes"/>
      <point x="355" y="545"/>
      <point x="373" y="529"/>
      <point x="408" y="529" type="curve" smooth="yes"/>
      <point x="455" y="529"/>
      <point x="493" y="566"/>
      <point x="509" y="647" type="curve"/>
      <point x="485" y="656" type="line"/>
      <point x="472" y="604"/>
      <point x="448" y="581"/>
      <point x="424" y="581" type="curve" smooth="yes"/>
      <point x="395" y="581"/>
      <point x="378" y="604"/>
      <point x="358" y="624" type="curve" smooth="yes"/>
      <point x="342" y="641"/>
      <point x="324" y="658"/>
      <point x="289" y="658" type="curve" smooth="yes"/>
      <point x="243" y="658"/>
      <point x="202" y="619"/>
    </contour>
  </outline>
</glyph>
<glyph name="adieresis" format="2">
  <advance width="485"/>
  <unicode hex="00E4"/>
  <anchor x="364" y="648" name="aboveLC"/>
  <anchor x="207" y="-20" name="belowLC"/>
  <anchor x="375" y="0" name="ogonek"/>
  <outline>
    <contour>
      <point x="130" y="-11" type="curve" smooth="yes"/>
      <point x="195" y="-11"/>
      <point x="276" y="58"/>
      <point x="339" y="151" type="curve"/>
      <point x="331" y="172" type="line"/>
      <point x="256" y="84"/>
      <point x="211" y="54"/>
      <point x="174" y="54" type="curve" smooth="yes"/>
      <point x="141" y="54"/>
      <point x="120" y="80"/>
      <point x="120" y="137" type="curve" smooth="yes"/>
      <point x="120" y="217"/>
      <point x="154" y="291"/>
      <point x="198" y="336" type="curve" smooth="yes"/>
      <point x="230" y="369"/>
      <point x="266" y="387"/>
      <point x="295" y="387" type="curve" smooth="yes"/>
      <point x="326" y="387"/>
      <point x="356" y="369"/>
      <point x="379" y="350" type="curve"/>
      <point x="416" y="377" type="line"/>
      <point x="392" y="417"/>
      <point x="368" y="449"/>
      <point x="328" y="449" type="curve" smooth="yes"/>
      <point x="208" y="449"/>
      <point x="41" y="258"/>
      <point x="41" y="98" type="curve" smooth="yes"/>
      <point x="41" y="20"/>
      <point x="85" y="-11"/>
    </contour>
    <contour>
      <point x="338" y="-11" type="curve" smooth="yes"/>
      <point x="401" y="-11"/>
      <point x="459" y="47"/>
      <point x="495" y="101" type="curve"/>
      <point x="472" y="118" type="line"/>
      <point x="440" y="80"/>
      <point x="407" y="53"/>
      <point x="384" y="53" type="curve" smooth="yes"/>
      <point x="373" y="53"/>
      <point x="363" y="60"/>
      <point x="363" y="73" type="curve" smooth="yes"/>
      <point x="363" y="83"/>
      <point x="366" y="102"/>
      <point x="371" y="125" type="curve" smooth="yes"/>
      <point x="445" y="448" type="line"/>
      <point x="428" y="458" type="line"/>
      <point x="358" y="405" type="line"/>
      <point x="297" y="120" type="line" smooth="yes"/>
      <point x="290" y="90"/>
      <point x="287" y="70"/>
      <point x="287" y="44" type="curve" smooth="yes"/>
      <point x="287" y="5"/>
      <point x="310" y="-11"/>
    </contour>
    <contour>
      <point x="258" y="571" type="curve" smooth="yes"/>
      <point x="287" y="571"/>
      <point x="311" y="594"/>
      <point x="311" y="627" type="curve" smooth="yes"/>
      <point x="311" y="652"/>
      <point x="292" y="669"/>
      <point x="267" y="669" type="curve" smooth="yes"/>
      <point x="241" y="669"/>
      <point x="214" y="647"/>
      <point x="214" y="614" type="curve" smooth="yes"/>
      <point x="214" y="587"/>
      <point x="234" y="571"/>
    </contour>
    <contour>
      <point x="439" y="571" type="curve" smooth="yes"/>
      <point x="468" y="571"/>
      <point x="493" y="594"/>
      <point x="493" y="627" type="curve" smooth="yes"/>
      <point x="493" y="652"/>
      <point x="473" y="669"/>
      <point x="448" y="669" type="curve" smooth="yes"/>
      <point x="422" y="669"/>
      <point x="396" y="647"/>
      <point x="396" y="614" type="curve" smooth="yes"/>
      <point x="396" y="587"/>
      <point x="416" y="571"/>
    </contour>
  </outline>
</glyph>
<glyph name="ccedilla" format="2">
  <advance width="380"/>
  <unicode hex="00E7"/>
  <anchor x="293" y="465" name="aboveLC"/>
  <anchor x="171" y="0" name="baseLC"/>
  <anchor x="167" y="-20" name="belowLC"/>
  <outline>
    <contour>
      <point x="189" y="-11" type="curve" smooth="yes"/>
      <point x="256" y="-11"/>
      <point x="323" y="39"/>
      <point x="361" y="104" type="curve"/>
      <point x="339" y="122" type="line"/>
      <point x="313" y="89"/>
      <point x="275" y="55"/>
      <point x="226" y="55" type="curve" smooth="yes"/>
      <point x="166" y="55"/>
      <point x="125" y="92"/>
      <point x="125" y="172" type="curve" smooth="yes"/>
      <point x="125" y="293"/>
      <point x="203" y="402"/>
      <point x="293" y="420" type="curve"/>
      <point x="253" y="429" type="line"/>
      <point x="295" y="379" type="line" smooth="yes"/>
      <point x="310" y="360"/>
      <point x="328" y="345"/>
      <point x="350" y="345" type="curve"/>
      <point x="369" y="345"/>
      <point x="388" y="356"/>
      <point x="391" y="379" type="curve"/>
      <point x="380" y="421"/>
      <point x="346" y="449"/>
      <point x="289" y="449" type="curve" smooth="yes"/>
      <point x="169" y="449"/>
      <point x="48" y="315"/>
      <point x="48" y="160" type="curve" smooth="yes"/>
      <point x="48" y="46"/>
      <point x="107" y="-11"/>
    </contour>
    <contour>
      <point x="138" y="-80" type="line"/>
      <point x="180" y="-91"/>
      <point x="205" y="-105"/>
      <point x="205" y="-138" type="curve" smooth="yes"/>
      <point x="205" y="-165"/>
      <point x="184" y="-181"/>
      <point x="152" y="-181" type="curve" smooth="yes"/>
      <point x="130" y="-181"/>
      <point x="113" y="-175"/>
      <point x="92" y="-166" type="curve"/>
      <point x="81" y="-191" type="line"/>
      <point x="101" y="-203"/>
      <point x="132" y="-212"/>
      <point x="164" y="-212" type="curve" smooth="yes"/>
      <point x="224" y="-212"/>
      <point x="260" y="-181"/>
      <point x="260" y="-143" type="curve" smooth="yes"/>
      <point x="260" y="-100"/>
      <point x="229" y="-80"/>
      <point x="165" y="-58" type="curve"/>
      <point x="168" y="-78" type="line"/>
      <point x="205" y="0" type="line"/>
      <point x="177" y="0" type="line"/>
    </contour>
  </outline>
</glyph>
<glyph name="ecircumflex" format="2">
  <advance width="380"/>
  <unicode hex="00EA"/>
  <anchor x="317" y="677" name="aboveLC"/>
  <anchor x="180" y="-20" name="belowLC"/>
  <anchor x="227" y="0" name="ogonek"/>
  <outline>
    <contour>
      <point x="190" y="-11" type="curve" smooth="yes"/>
      <point x="262" y="-11"/>
      <point x="322" y="41"/>
      <point x="361" y="104" type="curve"/>
      <point x="339" y="122" type="line"/>
      <point x="313" y="90"/>
      <point x="272" y="55"/>
      <point x="215" y="55" type="curve" smooth="yes"/>
      <point x="155" y="55"/>
      <point x="120" y="91"/>
      <point x="120" y="180" type="curve" smooth="yes"/>
      <point x="120" y="301"/>
      <point x="214" y="408"/>
      <point x="273" y="408" type="curve" smooth="yes"/>
      <point x="302" y="408"/>
      <point x="322" y="389"/>
      <point x="322" y="355" type="curve" smooth="yes"/>
      <point x="322" y="302"/>
      <point x="264" y="234"/>
      <point x="92" y="190" type="curve"/>
      <point x="95" y="155" type="line"/>
      <point x="322" y="213"/>
      <point x="389" y="299"/>
      <point x="389" y="362" type="curve" smooth="yes"/>
      <point x="389" y="417"/>
      <point x="355" y="449"/>
      <point x="292" y="449" type="curve" smooth="yes"/>
      <point x="161" y="449"/>
      <point x="48" y="309"/>
      <point x="48" y="159" type="curve" smooth="yes"/>
      <point x="48" y="42"/>
      <point x="107" y="-11"/>
    </contour>
    <contour>
      <point x="400" y="502" type="line"/>
      <point x="425" y="521" type="line"/>
      <point x="333" y="684" type="line"/>
      <point x="299" y="684" type="line"/>
      <point x="155" y="522" type="line"/>
      <point x="174" y="502" type="line"/>
      <point x="330" y="634" type="line"/>
      <point x="283" y="634" type="line"/>
    </contour>
  </outline>
</glyph>
<glyph name="iacute" format="2">
  <advance width="282"/>
  <unicode hex="00ED"/>
  <anchor x="260" y="701" name="aboveLC"/>
  <anchor x="127" y="-20" name="belowLC"/>
  <anchor x="168" y="0" name="ogonek"/>
  <outline>
    <contour>
      <point x="80" y="36" type="curve" smooth="yes"/>
      <point x="80" y="4"/>
      <point x="104" y="-11"/>
      <point x="132" y="-11" type="curve" smooth="yes"/>
      <point x="199" y="-11"/>
      <point x="248" y="45"/>
      <point x="288" y="101" type="curve"/>
      <point x="265" y="118" type="line"/>
      <point x="229" y="75"/>
      <point x="201" y="53"/>
      <point x="180" y="53" type="curve" smooth="yes"/>
      <point x="170" y="53"/>
      <point x="160" y="60"/>
      <point x="160" y="73" type="curve" smooth="yes"/>
      <point x="160" y="83"/>
      <point x="163" y="102"/>
      <point x="168" y="125" type="curve" smooth="yes"/>
      <point x="234" y="439" type="line"/>
      <point x="221" y="449" type="line"/>
      <point x="60" y="402" type="line"/>
      <point x="57" y="374" type="line"/>
      <point x="164" y="366" type="line"/>
      <point x="148" y="380" type="line"/>
      <point x="90" y="105" type="line" smooth="yes"/>
      <point x="82" y="69"/>
      <point x="80" y="51"/>
    </contour>
    <contour>
      <point x="203" y="506" type="curve"/>
      <point x="225" y="491" type="line"/>
      <point x="262" y="534"/>
      <point x="297" y="575"/>
      <point x="333" y="618" type="curve" smooth="yes"/>
      <point x="350" y="636"/>
      <point x="356" y="651"/>
      <point x="356" y="667" type="curve" smooth="yes"/>
      <point x="356" y="690"/>
      <point x="339" y="701"/>
      <point x="319" y="701" type="curve" smooth="yes"/>
      <point x="297" y="701"/>
      <point x="281" y="686"/>
      <point x="269" y="658" type="curve" smooth="yes"/>
      <point x="247" y="608"/>
      <point x="225" y="556"/>
    </contour>
  </outline>
</glyph>
<glyph name="ograve" format="2">
  <advance width="453"/>
  <unicode hex="00F2"/>
  <anchor x="352" y="684" name="aboveLC"/>
  <anchor x="189" y="-20" name="belowLC"/>
  <anchor x="380" y="442" name="hornLC"/>
  <anchor x="258" y="0" name="ogonek"/>
  <outline>
    <contour>
      <point x="205" y="-11" type="curve" smooth="yes"/>
      <point x="336" y="-11"/>
      <point x="444" y="126"/>
      <point x="444" y="286" type="curve" smooth="yes"/>
      <point x="444" y="392"/>
      <point x="379" y="449"/>
      <point x="291" y="449" type="curve" smooth="yes"/>
      <point x="159" y="449"/>
      <point x="48" y="315"/>
      <point x="48" y="151" type="curve" smooth="yes"/>
      <point x="48" y="44"/>
      <point x="118" y="-11"/>
    </contour>
    <contour>
      <point x="215" y="26" type="curve" smooth="yes"/>
      <point x="166" y="26"/>
      <point x="130" y="63"/>
      <point x="130" y="158" type="curve" smooth="yes"/>
      <point x="130" y="294"/>
      <point x="195" y="411"/>
      <point x="281" y="411" type="curve" smooth="yes"/>
      <point x="329" y="411"/>
      <point x="363" y="374"/>
      <point x="363" y="277" type="curve" smooth="yes"/>
      <point x="363" y="153"/>
      <point x="303" y="26"/>
    </contour>
    <contour>
      <point x="324" y="506" type="line"/>
      <point x="302" y="556"/>
      <point x="280" y="608"/>
      <point x="258" y="658" type="curve" smooth="yes"/>
      <point x="246" y="686"/>
      <point x="230" y="702"/>
      <point x="209" y="702" type="curve" smooth="yes"/>
      <point x="190" y="702"/>
      <point x="172" y="690"/>
      <point x="172" y="668" type="curve" smooth="yes"/>
      <point x="172" y="651"/>
      <point x="178" y="636"/>
      <point x="195" y="618" type="curve" smooth="yes"/>
      <point x="230" y="575"/>
      <point x="266" y="534"/>
      <point x="302" y="492" type="curve"/>
    </contour>
  </outline>
</glyph>
<glyph name="oacute" format="2">
  <advance width="453"/>
  <unicode hex="00F3"/>
  <anchor x="330" y="701" name="aboveLC"/>
  <anchor x="189" y="-20" name="belowLC"/>
  <anchor x="380" y="442" name="hornLC"/>
  <anchor x="258" y="0" name="ogonek"/>
  <outline>
    <contour>
      <point x="205" y="-11" type="curve" smooth="yes"/>
      <point x="336" y="-11"/>
      <point x="444" y="126"/>
      <point x="444" y="286" type="curve" smooth="yes"/>
      <point x="444" y="392"/>
      <point x="379" y="449"/>
      <point x="291" y="449" type="curve" smooth="yes"/>
      <point x="159" y="449"/>
      <point x="48" y="315"/>
      <point x="48" y="151" type="curve" smooth="yes"/>
      <point x="48" y="44"/>
      <point x="118" y="-11"/>
    </contour>
    <contour>
      <point x="215" y="26" type="curve" smooth="yes"/>
      <point x="166" y="26"/>
      <point x="130" y="63"/>
      <point x="130" y="158" type="curve" smooth="yes"/>
      <point x="130" y="294"/>
      <point x="195" y="411"/>
      <point x="281" y="411" type="curve" smooth="yes"/>
      <point x="329" y="411"/>
      <point x="363" y="374"/>
      <point x="363" y="277" type="curve" smooth="yes"/>
      <point x="363" y="153"/>
      <point x="303" y="26"/>
    </contour>
    <contour>
      <point x="273" y="506" type="curve"/>
      <point x="295" y="491" type="line"/>
      <point x="331" y="534"/>
      <point x="367" y="575"/>
      <point x="402" y="618" type="curve" smooth="yes"/>
      <point x="419" y="636"/>
      <point x="425" y="651"/>
      <point x="425" y="667" type="curve" smooth="yes"/>
      <point x="425" y="690"/>
      <point x="408" y="701"/>
      <point x="388" y="701" type="curve" smooth="yes"/>
      <point x="367" y="701"/>
      <point x="351" y="686"/>
      <point x="339" y="658" type="curve" smooth="yes"/>
      <point x="317" y="608"/>
      <point x="295" y="556"/>
    </contour>
  </outline>
</glyph>
<glyph name="otilde" format="2">
  <advance width="453"/>
  <unicode hex="00F5"/>
  <anchor x="326" y="670" name="aboveLC"/>
  <anchor x="189" y="-20" name="belowLC"/>
  <anchor x="380" y="442" name="hornLC"/>
  <anchor x="258" y="0" name="ogonek"/>
  <outline>
    <contour>
      <point x="205" y="-11" type="curve" smooth="yes"/>
      <point x="336" y="-11"/>
      <point x="444" y="126"/>
      <point x="444" y="286" type="curve" smooth="yes"/>
      <point x="444" y="392"/>
      <point x="379" y="449"/>
      <point x="291" y="449" type="curve" smooth="yes"/>
      <point x="159" y="449"/>
      <point x="48" y="315"/>
      <point x="48" y="151" type="curve" smooth="yes"/>
      <point x="48" y="44"/>
      <point x="118" y="-11"/>
    </contour>
    <contour>
      <point x="215" y="26" type="curve" smooth="yes"/>
      <point x="166" y="26"/>
      <point x="130" y="63"/>
      <point x="130" y="158" type="curve" smooth="yes"/>
      <point x="130" y="294"/>
      <point x="195" y="411"/>
      <point x="281" y="411" type="curve" smooth="yes"/>
      <point x="329" y="411"/>
      <point x="363" y="374"/>
      <point x="363" y="277" type="curve" smooth="yes"/>
      <point x="363" y="153"/>
      <point x="303" y="26"/>
    </contour>
    <contour>
      <point x="149" y="541" type="curve"/>
      <point x="173" y="532" type="line"/>
      <point x="185" y="585"/>
      <point x="211" y="608"/>
      <point x="235" y="608" type="curve" smooth="yes"/>
      <point x="264" y="608"/>
      <point x="282" y="585"/>
      <point x="300" y="564" type="curve" smooth="yes"/>
      <point x="316" y="548"/>
      <point x="335" y="530"/>
      <point x="370" y="530" type="curve" smooth="yes"/>
      <point x="417" y="530"/>
      <point x="455" y="569"/>
      <point x="471" y="650" type="curve"/>
      <point x="447" y="659" type="line"/>
      <point x="435" y="607"/>
      <point x="409" y="583"/>
      <point x="385" y="583" type="curve" smooth="yes"/>
      <point x="357" y="583"/>
      <point x="340" y="606"/>
      <point x="320" y="626" type="curve" smooth="yes"/>
      <point x="304" y="644"/>
      <point x="287" y="660"/>
      <point x="252" y="660" type="curve" smooth="yes"/>
      <point x="205" y="660"/>
      <point x="164" y="621"/>
    </contour>
  </outline>
</glyph>
<glyph name="oslash" format="2">
  <advance width="453"/>
  <unicode hex="00F8"/>
  <anchor x="295" y="466" name="aboveLC"/>
  <outline>
    <contour>
      <point x="484" y="437" type="line"/>
      <point x="459" y="462" type="line"/>
      <point x="-4" y="4" type="line"/>
      <point x="22" y="-20" type="line"/>
    </contour>
    <contour>
      <point x="205" y="-11" type="curve" smooth="yes"/>
      <point x="336" y="-11"/>
      <point x="444" y="126"/>
      <point x="444" y="286" type="curve" smooth="yes"/>
      <point x="444" y="392"/>
      <point x="379" y="449"/>
      <point x="291" y="449" type="curve" smooth="yes"/>
      <point x="159" y="449"/>
      <point x="48" y="315"/>
      <point x="48" y="151" type="curve" smooth="yes"/>
      <point x="48" y="44"/>
      <point x="118" y="-11"/>
    </contour>
    <contour>
      <point x="215" y="26" type="curve" smooth="yes"/>
      <point x="163" y="26"/>
      <point x="126" y="55"/>
      <point x="126" y="158" type="curve" smooth="yes"/>
      <point x="126" y="294"/>
      <point x="194" y="411"/>
      <point x="281" y="411" type="curve" smooth="yes"/>
      <point x="332" y="411"/>
      <point x="366" y="382"/>
      <point x="366" y="277" type="curve" smooth="yes"/>
      <point x="366" y="153"/>
      <point x="306" y="26"/>
    </contour>
  </outline>
</glyph>
<glyph name="ugrave" format="2">
  <advance width="529"/>
  <unicode hex="00F9"/>
  <anchor x="382" y="675" name="aboveLC"/>
  <anchor x="253" y="-20" name="belowLC"/>
  <anchor x="468" y="433" name="hornLC"/>
  <anchor x="400" y="0" name="ogonek"/>
  <outline>
    <contour>
      <point x="152" y="-11" type="curve" smooth="yes"/>
      <point x="218" y="-11"/>
      <point x="287" y="42"/>
      <point x="376" y="130" type="curve"/>
      <point x="375" y="157" type="line"/>
      <point x="289" y="85"/>
      <point x="245" y="54"/>
      <point x="203" y="54" type="curve" smooth="yes"/>
      <point x="182" y="54"/>
      <point x="168" y="67"/>
      <point x="168" y="93" type="curve" smooth="yes"/>
      <point x="168" y="114"/>
      <point x="173" y="142"/>
      <point x="182" y="178" type="curve" smooth="yes"/>
      <point x="241" y="439" type="line"/>
      <point x="228" y="449" type="line"/>
      <point x="64" y="402" type="line"/>
      <point x="60" y="374" type="line"/>
      <point x="161" y="367" type="line"/>
      <point x="153" y="388" type="line"/>
      <point x="105" y="169" type="line" smooth="yes"/>
      <point x="98" y="133"/>
      <point x="87" y="89"/>
      <point x="87" y="56" type="curve" smooth="yes"/>
      <point x="87" y="5"/>
      <point x="116" y="-11"/>
    </contour>
    <contour>
      <point x="380" y="-11" type="curve" smooth="yes"/>
      <point x="447" y="-11"/>
      <point x="496" y="45"/>
      <point x="539" y="101" type="curve"/>
      <point x="516" y="118" type="line"/>
      <point x="478" y="75"/>
      <point x="451" y="53"/>
      <point x="427" y="53" type="curve" smooth="yes"/>
      <point x="417" y="53"/>
      <point x="407" y="60"/>
      <point x="407" y="73" type="curve" smooth="yes"/>
      <point x="407" y="83"/>
      <point x="411" y="102"/>
      <point x="415" y="125" type="curve" smooth="yes"/>
      <point x="482" y="439" type="line"/>
      <point x="469" y="449" type="line"/>
      <point x="402" y="428" type="line"/>
      <point x="391" y="371"/>
      <point x="380" y="313"/>
      <point x="368" y="256" type="curve" smooth="yes"/>
      <point x="337" y="105" type="line" smooth="yes"/>
      <point x="330" y="69"/>
      <point x="328" y="54"/>
      <point x="328" y="39" type="curve" smooth="yes"/>
      <point x="328" y="5"/>
      <point x="353" y="-11"/>
    </contour>
    <contour>
      <point x="356" y="496" type="line"/>
      <point x="333" y="547"/>
      <point x="311" y="598"/>
      <point x="289" y="649" type="curve" smooth="yes"/>
      <point x="277" y="677"/>
      <point x="262" y="693"/>
      <point x="240" y="693" type="curve" smooth="yes"/>
      <point x="220" y="693"/>
      <point x="202" y="680"/>
      <point x="202" y="659" type="curve" smooth="yes"/>
      <point x="202" y="642"/>
      <point x="208" y="627"/>
      <point x="225" y="609" type="curve" smooth="yes"/>
      <point x="262" y="566"/>
      <point x="297" y="525"/>
      <point x="333" y="483" type="curve"/>
    </contour>
  </outline>
</glyph>
<glyph name="yacute" format="2">
  <advance width="443"/>
  <unicode hex="00FD"/>
  <anchor x="345" y="692" name="aboveLC"/>
  <anchor x="8" y="-230" name="belowLC"/>
  <outline>
    <contour>
      <point x="-72" y="-163" type="curve"/>
      <point x="-70" y="-196"/>
      <point x="-46" y="-218"/>
      <point x="-5" y="-218" type="curve" smooth="yes"/>
      <point x="47" y="-218"/>
      <point x="100" y="-180"/>
      <point x="159" y="-117" type="curve" smooth="yes"/>
      <point x="197" y="-74"/>
      <point x="223" y="-35"/>
      <point x="248" y="0" type="curve" smooth="yes"/>
      <point x="299" y="76"/>
      <point x="337" y="145"/>
      <point x="371" y="206" type="curve" smooth="yes"/>
      <point x="405" y="265"/>
      <point x="425" y="304"/>
      <point x="445" y="344" type="curve" smooth="yes"/>
      <point x="463" y="380"/>
      <point x="470" y="396"/>
      <point x="470" y="420" type="curve" smooth="yes"/>
      <point x="470" y="440"/>
      <point x="455" y="454"/>
      <point x="433" y="454" type="curve" smooth="yes"/>
      <point x="404" y="454"/>
      <point x="391" y="433"/>
      <point x="360" y="328" type="curve" smooth="yes"/>
      <point x="330" y="221"/>
      <point x="297" y="149"/>
      <point x="232" y="27" type="curve"/>
      <point x="205" y="-15"/>
      <point x="174" y="-54"/>
      <point x="139" y="-89" type="curve" smooth="yes"/>
      <point x="101" y="-128"/>
      <point x="57" y="-160"/>
      <point x="11" y="-183" type="curve"/>
      <point x="80" y="-175" type="line"/>
      <point x="54" y="-156" type="line" smooth="yes"/>
      <point x="27" y="-134"/>
      <point x="6" y="-121"/>
      <point x="-21" y="-121" type="curve" smooth="yes"/>
      <point x="-47" y="-121"/>
      <point x="-68" y="-136"/>
    </contour>
    <contour>
      <point x="240" y="23" type="line"/>
      <point x="235" y="115"/>
      <point x="229" y="215"/>
      <point x="217" y="329" type="curve" smooth="yes"/>
      <point x="206" y="428"/>
      <point x="186" y="449"/>
      <point x="150" y="449" type="curve" smooth="yes"/>
      <point x="111" y="449"/>
      <point x="69" y="417"/>
      <point x="31" y="340" type="curve"/>
      <point x="52" y="324" type="line"/>
      <point x="83" y="371"/>
      <point x="96" y="381"/>
      <point x="111" y="381" type="curve" smooth="yes"/>
      <point x="127" y="381"/>
      <point x="133" y="369"/>
      <point x="146" y="260" type="curve" smooth="yes"/>
      <point x="162" y="135"/>
      <point x="174" y="66"/>
      <point x="184" y="-45" type="curve"/>
    </contour>
    <contour>
      <point x="288" y="497" type="curve"/>
      <point x="310" y="483" type="line"/>
      <point x="346" y="526"/>
      <point x="382" y="567"/>
      <point x="418" y="609" type="curve" smooth="yes"/>
      <point x="435" y="628"/>
      <point x="441" y="643"/>
      <point x="441" y="658" type="curve" smooth="yes"/>
      <point x="441" y="681"/>
      <point x="424" y="692"/>
      <point x="403" y="692" type="curve" smooth="yes"/>
      <point x="382" y="692"/>
      <point x="367" y="678"/>
      <point x="355" y="650" type="curve" smooth="yes"/>
      <point x="332" y="599"/>
      <point x="310" y="548"/>
    </contour>
  </outline>
</glyph>
<glyph name="OE" format="2">
  <advance width="817"/>
  <unicode hex="0152"/>
  <anchor x="526" y="634" name="aboveUC"/>
  <outline>
    <contour>
      <point x="409" y="0" type="curve"/>
      <point x="417" y="48" type="line"/>
      <point x="386" y="38"/>
      <point x="351" y="32"/>
      <point x="319" y="32" type="curve" smooth="yes"/>
      <point x="212" y="32"/>
      <point x="148" y="102"/>
      <point x="148" y="239" type="curve" smooth="yes"/>
      <point x="148" y="435"/>
      <point x="258" y="582"/>
      <point x="415" y="582" type="curve" smooth="yes"/>
      <point x="452" y="582"/>
      <point x="488" y="575"/>
      <point x="512" y="564" type="curve"/>
      <point x="523" y="614" type="line"/>
      <point x="488" y="622"/>
      <point x="452" y="629"/>
      <point x="410" y="629" type="curve" smooth="yes"/>
      <point x="203" y="629"/>
      <point x="58" y="449"/>
      <point x="58" y="241" type="curve" smooth="yes"/>
      <point x="58" y="72"/>
      <point x="160" y="-13"/>
      <point x="305" y="-13" type="curve" smooth="yes"/>
      <point x="344" y="-13"/>
      <point x="374" y="-8"/>
    </contour>
    <contour>
      <point x="367" y="0" type="line"/>
      <point x="456" y="0" type="line"/>
      <point x="471" y="94"/>
      <point x="487" y="190"/>
      <point x="505" y="285" type="curve" smooth="yes"/>
      <point x="567" y="614" type="line"/>
      <point x="478" y="614" type="line"/>
      <point x="463" y="519"/>
      <point x="447" y="424"/>
      <point x="429" y="329" type="curve" smooth="yes"/>
    </contour>
    <contour>
      <point x="409" y="0" type="line"/>
      <point x="751" y="0" type="line"/>
      <point x="787" y="162" type="line"/>
      <point x="737" y="162" type="line"/>
      <point x="679" y="0" type="line"/>
      <point x="734" y="46" type="line"/>
      <point x="418" y="46" type="line"/>
    </contour>
    <contour>
      <point x="465" y="292" type="line"/>
      <point x="671" y="292" type="line"/>
      <point x="678" y="335" type="line"/>
      <point x="474" y="335" type="line"/>
    </contour>
    <contour>
      <point x="513" y="567" type="line"/>
      <point x="784" y="567" type="line"/>
      <point x="752" y="614" type="line"/>
      <point x="751" y="451" type="line"/>
      <point x="801" y="451" type="line"/>
      <point x="823" y="614" type="line"/>
      <point x="523" y="614" type="line"/>
    </contour>
    <contour>
      <point x="642" y="206" type="line"/>
      <point x="682" y="206" type="line"/>
      <point x="723" y="422" type="line"/>
      <point x="683" y="422" type="line"/>
      <point x="648" y="326" type="line"/>
      <point x="645" y="308" type="line"/>
    </contour>
  </outline>
</glyph>
<glyph name="oe" format="2">
  <advance width="689"/>
  <unicode hex="0153"/>
  <anchor x="435" y="466" name="aboveLC"/>
  <anchor x="488" y="-20" name="belowLC"/>
  <anchor x="535" y="0" name="ogonek"/>
  <outline>
    <contour>
      <point x="204" y="-11" type="curve" smooth="yes"/>
      <point x="285" y="-11"/>
      <point x="356" y="45"/>
      <point x="399" y="127" type="curve"/>
      <point x="437" y="320" type="line"/>
      <point x="421" y="403"/>
      <point x="365" y="449"/>
      <point x="291" y="449" type="curve" smooth="yes"/>
      <point x="159" y="449"/>
      <point x="48" y="315"/>
      <point x="48" y="151" type="curve" smooth="yes"/>
      <point x="48" y="44"/>
      <point x="118" y="-11"/>
    </contour>
    <contour>
      <point x="215" y="26" type="curve" smooth="yes"/>
      <point x="166" y="26"/>
      <point x="130" y="63"/>
      <point x="130" y="158" type="curve" smooth="yes"/>
      <point x="130" y="294"/>
      <point x="195" y="411"/>
      <point x="281" y="411" type="curve" smooth="yes"/>
      <point x="329" y="411"/>
      <point x="363" y="374"/>
      <point x="363" y="277" type="curve" smooth="yes"/>
      <point x="363" y="153"/>
      <point x="303" y="26"/>
    </contour>
    <contour>
      <point x="498" y="-11" type="curve" smooth="yes"/>
      <point x="570" y="-11"/>
      <point x="631" y="41"/>
      <point x="669" y="104" type="curve"/>
      <point x="647" y="122" type="line"/>
      <point x="622" y="90"/>
      <point x="581" y="55"/>
      <point x="523" y="55" type="curve" smooth="yes"/>
      <point x="464" y="55"/>
      <point x="428" y="91"/>
      <point x="428" y="180" type="curve" smooth="yes"/>
      <point x="428" y="301"/>
      <point x="523" y="408"/>
      <point x="582" y="408" type="curve" smooth="yes"/>
      <point x="610" y="408"/>
      <point x="631" y="389"/>
      <point x="631" y="355" type="curve" smooth="yes"/>
      <point x="631" y="302"/>
      <point x="572" y="234"/>
      <point x="401" y="190" type="curve"/>
      <point x="404" y="155" type="line"/>
      <point x="631" y="213"/>
      <point x="697" y="299"/>
      <point x="697" y="362" type="curve" smooth="yes"/>
      <point x="697" y="417"/>
      <point x="663" y="449"/>
      <point x="601" y="449" type="curve" smooth="yes"/>
      <point x="470" y="449"/>
      <point x="357" y="309"/>
      <point x="357" y="159" type="curve" smooth="yes"/>
      <point x="357" y="42"/>
      <point x="416" y="-11"/>
    </contour>
  </outline>
</glyph>
<glyph name="Ydieresis" format="2">
  <advance width="511"/>
  <unicode hex="0178"/>
  <anchor x="392" y="792" name="aboveUC"/>
  <anchor x="230" y="-20" name="belowLC"/>
  <outline>
    <contour>
      <point x="57" y="575" type="line"/>
      <point x="171" y="562" type="line"/>
      <point x="191" y="562" type="line"/>
      <point x="305" y="575" type="line"/>
      <point x="312" y="614" type="line"/>
      <point x="64" y="614" type="line"/>
    </contour>
    <contour>
      <point x="101" y="0" type="line"/>
      <point x="368" y="0" type="line"/>
      <point x="375" y="38" type="line"/>
      <point x="255" y="52" type="line"/>
      <point x="235" y="52" type="line"/>
      <point x="108" y="38" type="line"/>
    </contour>
    <contour>
      <point x="246" y="226" type="line"/>
      <point x="300" y="226" type="line"/>
      <point x="556" y="614" type="line"/>
      <point x="508" y="614" type="line"/>
      <point x="299" y="288" type="line"/>
      <point x="312" y="287" type="line"/>
      <point x="210" y="614" type="line"/>
      <point x="111" y="614" type="line"/>
    </contour>
    <contour>
      <point x="187" y="0" type="line"/>
      <point x="276" y="0" type="line"/>
      <point x="291" y="94"/>
      <point x="308" y="190"/>
      <point x="325" y="285" type="curve"/>
      <point x="241" y="285" type="line"/>
    </contour>
    <contour>
      <point x="400" y="575" type="line"/>
      <point x="492" y="562" type="line"/>
      <point x="510" y="562" type="line"/>
      <point x="604" y="575" type="line"/>
      <point x="611" y="614" type="line"/>
      <point x="408" y="614" type="line"/>
    </contour>
    <contour>
      <point x="270" y="684" type="curve" smooth="yes"/>
      <point x="298" y="684"/>
      <point x="322" y="707"/>
      <point x="322" y="740" type="curve" smooth="yes"/>
      <point x="322" y="764"/>
      <point x="304" y="782"/>
      <point x="279" y="782" type="curve" smooth="yes"/>
      <point x="253" y="782"/>
      <point x="226" y="760"/>
      <point x="226" y="727" type="curve" smooth="yes"/>
      <point x="226" y="701"/>
      <point x="247" y="684"/>
    </contour>
    <contour>
      <point x="471" y="684" type="curve" smooth="yes"/>
      <point x="501" y="684"/>
      <point x="526" y="707"/>
      <point x="526" y="740" type="curve" smooth="yes"/>
      <point x="526" y="764"/>
      <point x="507" y="782"/>
      <point x="482" y="782" type="curve" smooth="yes"/>
      <point x="456" y="782"/>
      <point x="430" y="760"/>
      <point x="430" y="727" type="curve" smooth="yes"/>
      <point x="430" y="701"/>
      <point x="450" y="684"/>
    </contour>
  </outline>
</glyph>
<glyph name="caron" format="2">
  <advance width="368"/>
  <unicode hex="02C7"/>
  <anchor x="238" y="466" name="_aboveLC"/>
  <anchor x="284" y="683" name="aboveLC"/>
  <outline>
    <contour>
      <point x="166" y="692" type="line"/>
      <point x="140" y="674" type="line"/>
      <point x="229" y="509" type="line"/>
      <point x="262" y="509" type="line"/>
      <point x="407" y="674" type="line"/>
      <point x="388" y="692" type="line"/>
      <point x="230" y="564" type="line"/>
      <point x="273" y="564" type="line"/>
    </contour>
  </outline>
</glyph>
<glyph name="colontriangularmod" format="2">
  <advance width="279"/>
  <unicode hex="02D0"/>
  <outline>
    <contour>
      <point x="111" y="442" type="line"/>
      <point x="156" y="320" type="line"/>
      <point x="163" y="320" type="line"/>
      <point x="260" y="442" type="line"/>
      <point x="258" y="449" type="line"/>
      <point x="116" y="449" type="line"/>
    </contour>
    <contour>
      <point x="19" y="7" type="line"/>
      <point x="21" y="0" type="line"/>
      <point x="162" y="0" type="line"/>
      <point x="168" y="7" type="line"/>
      <point x="123" y="128" type="line"/>
      <point x="115" y="128" type="line"/>
    </contour>
  </outline>
</glyph>
<glyph name="tilde" format="2">
  <advance width="368"/>
  <unicode hex="02DC"/>
  <anchor x="236" y="466" name="_aboveLC"/>
  <anchor x="278" y="667" name="aboveLC"/>
  <outline>
    <contour>
      <point x="102" y="539" type="curve"/>
      <point x="125" y="529" type="line"/>
      <point x="138" y="582"/>
      <point x="162" y="606"/>
      <point x="187" y="606" type="curve" smooth="yes"/>
      <point x="216" y="606"/>
      <point x="234" y="583"/>
      <point x="253" y="562" type="curve" smooth="yes"/>
      <point x="268" y="545"/>
      <point x="287" y="529"/>
      <point x="322" y="529" type="curve" smooth="yes"/>
      <point x="369" y="529"/>
      <point x="407" y="566"/>
      <point x="424" y="647" type="curve"/>
      <point x="399" y="656" type="line"/>
      <point x="386" y="604"/>
      <point x="361" y="581"/>
      <point x="337" y="581" type="curve" smooth="yes"/>
      <point x="310" y="581"/>
      <point x="292" y="604"/>
      <point x="272" y="624" type="curve" smooth="yes"/>
      <point x="256" y="641"/>
      <point x="239" y="658"/>
      <point x="203" y="658" type="curve" smooth="yes"/>
      <point x="157" y="658"/>
      <point x="116" y="619"/>
    </contour>
  </outline>
</glyph>
<glyph name="pi" format="2">
  <advance width="540"/>
  <unicode hex="03C0"/>
  <outline>
    <contour>
      <point x="73" y="-11" type="curve" smooth="yes"/>
      <point x="125" y="-11"/>
      <point x="161" y="26"/>
      <point x="182" y="102" type="curve" smooth="yes"/>
      <point x="201" y="173"/>
      <point x="214" y="228"/>
      <point x="251" y="403" type="curve"/>
      <point x="212" y="404" type="line"/>
      <point x="188" y="287"/>
      <point x="157" y="172"/>
      <point x="121" y="57" type="curve"/>
      <point x="149" y="69" type="line"/>
      <point x="158" y="92" type="line"/>
      <point x="122" y="90"/>
      <point x="84" y="84"/>
      <point x="54" y="79" type="curve"/>
      <point x="39" y="69"/>
      <point x="23" y="52"/>
      <point x="23" y="29" type="curve" smooth="yes"/>
      <point x="23" y="0"/>
      <point x="42" y="-11"/>
    </contour>
    <contour>
      <point x="390" y="-11" type="curve" smooth="yes"/>
      <point x="427" y="-11"/>
      <point x="465" y="10"/>
      <point x="502" y="57" type="curve"/>
      <point x="486" y="79" type="line"/>
      <point x="466" y="62"/>
      <point x="448" y="52"/>
      <point x="430" y="52" type="curve" smooth="yes"/>
      <point x="412" y="52"/>
      <point x="403" y="64"/>
      <point x="403" y="92" type="curve" smooth="yes"/>
      <point x="403" y="123"/>
      <point x="406" y="146"/>
      <point x="452" y="402" type="curve"/>
      <point x="401" y="402" type="line"/>
      <point x="329" y="146"/>
      <point x="322" y="89"/>
      <point x="322" y="57" type="curve" smooth="yes"/>
      <point x="322" y="13"/>
      <point x="347" y="-11"/>
    </contour>
    <contour>
      <point x="72" y="351" type="line"/>
      <point x="218" y="372" type="line"/>
      <point x="420" y="372" type="line"/>
      <point x="556" y="368" type="line"/>
      <point x="566" y="437" type="line"/>
      <point x="248" y="437" type="line" smooth="yes"/>
      <point x="158" y="437"/>
      <point x="124" y="424"/>
      <point x="71" y="387" type="curve"/>
    </contour>
  </outline>
</glyph>
<glyph name="endash" format="2">
  <advance width="473"/>
  <unicode hex="2013"/>
  <outline>
    <contour>
      <point x="50" y="200" type="line"/>
      <point x="449" y="200" type="line"/>
      <point x="449" y="262" type="line"/>
      <point x="50" y="262" type="line"/>
    </contour>
  </outline>
</glyph>
<glyph name="horizontalbar" format="2">
  <advance width="749"/>
  <unicode hex="2015"/>
  <outline>
    <contour>
      <point x="50" y="200" type="line"/>
      <point x="725" y="200" type="line"/>
      <point x="725" y="262" type="line"/>
      <point x="50" y="262" type="line"/>
    </contour>
  </outline>
</glyph>
<glyph name="quoteleft" format="2">
  <advance width="243"/>
  <unicode hex="2018"/>
  <outline>
    <contour>
      <point x="197" y="344" type="curve" smooth="yes"/>
      <point x="225" y="344"/>
      <point x="250" y="364"/>
      <point x="250" y="406" type="curve" smooth="yes"/>
      <point x="250" y="422"/>
      <point x="241" y="438"/>
      <point x="227" y="457" type="curve"/>
      <point x="198" y="497" type="line"/>
      <point x="196" y="457" type="line"/>
      <point x="230" y="512"/>
      <point x="255" y="541"/>
      <point x="304" y="580" type="curve"/>
      <point x="285" y="605" type="line"/>
      <point x="199" y="549"/>
      <point x="142" y="479"/>
      <point x="142" y="398" type="curve" smooth="yes"/>
      <point x="142" y="386"/>
      <point x="144" y="375"/>
      <point x="146" y="364" type="curve"/>
      <point x="163" y="349"/>
      <point x="177" y="344"/>
    </contour>
  </outline>
</glyph>
<glyph name="daggerdbl" format="2">
  <advance width="448"/>
  <unicode hex="2021"/>
  <outline>
    <contour>
      <point x="16" y="122" type="curve" smooth="yes"/>
      <point x="16" y="104"/>
      <point x="29" y="95"/>
      <point x="55" y="95" type="curve" smooth="yes"/>
      <point x="77" y="95"/>
      <point x="125" y="105"/>
      <point x="157" y="110" type="curve" smooth="yes"/>
      <point x="220" y="119" type="line"/>
      <point x="226" y="142" type="line"/>
      <point x="165" y="152" type="line" smooth="yes"/>
      <point x="135" y="157"/>
      <point x="91" y="167"/>
      <point x="68" y="167" type="curve" smooth="yes"/>
      <point x="34" y="167"/>
      <point x="16" y="149"/>
    </contour>
    <contour>
      <point x="68" y="437" type="curve" smooth="yes"/>
      <point x="68" y="417"/>
      <point x="78" y="408"/>
      <point x="103" y="408" type="curve" smooth="yes"/>
      <point x="128" y="408"/>
      <point x="179" y="418"/>
      <point x="212" y="423" type="curve" smooth="yes"/>
      <point x="276" y="432" type="line"/>
      <point x="281" y="455" type="line"/>
      <point x="219" y="465" type="line" smooth="yes"/>
      <point x="189" y="470"/>
      <point x="142" y="480"/>
      <point x="117" y="480" type="curve" smooth="yes"/>
      <point x="88" y="480"/>
      <point x="68" y="467"/>
    </contour>
    <contour>
      <point x="181" y="-84" type="curve" smooth="yes"/>
      <point x="204" y="-84"/>
      <point x="219" y="-68"/>
      <point x="223" y="-42" type="curve" smooth="yes"/>
      <point x="230" y="-12"/>
      <point x="230" y="26"/>
      <point x="231" y="68" type="curve" smooth="yes"/>
      <point x="234" y="131" type="line"/>
      <point x="211" y="131" type="line"/>
      <point x="191" y="68" type="line" smooth="yes"/>
      <point x="177" y="27"/>
      <point x="150" y="-33"/>
      <point x="150" y="-56" type="curve" smooth="yes"/>
      <point x="150" y="-76"/>
      <point x="161" y="-84"/>
    </contour>
    <contour>
      <point x="280" y="287" type="curve" smooth="yes"/>
      <point x="289" y="341"/>
      <point x="289" y="371"/>
      <point x="286" y="443" type="curve"/>
      <point x="270" y="443" type="line"/>
      <point x="240" y="372"/>
      <point x="230" y="340"/>
      <point x="221" y="287" type="curve" smooth="yes"/>
      <point x="212" y="237"/>
      <point x="211" y="207"/>
      <point x="215" y="131" type="curve"/>
      <point x="231" y="131" type="line"/>
      <point x="261" y="202"/>
      <point x="271" y="238"/>
    </contour>
    <contour>
      <point x="434" y="138" type="curve" smooth="yes"/>
      <point x="434" y="157"/>
      <point x="423" y="166"/>
      <point x="397" y="166" type="curve" smooth="yes"/>
      <point x="372" y="166"/>
      <point x="322" y="156"/>
      <point x="289" y="151" type="curve" smooth="yes"/>
      <point x="226" y="142" type="line"/>
      <point x="220" y="119" type="line"/>
      <point x="282" y="109" type="line" smooth="yes"/>
      <point x="312" y="104"/>
      <point x="359" y="95"/>
      <point x="383" y="95" type="curve" smooth="yes"/>
      <point x="414" y="95"/>
      <point x="434" y="108"/>
    </contour>
    <contour>
      <point x="321" y="659" type="curve" smooth="yes"/>
      <point x="297" y="659"/>
      <point x="281" y="643"/>
      <point x="278" y="617" type="curve" smooth="yes"/>
      <point x="271" y="587"/>
      <point x="272" y="548"/>
      <point x="269" y="506" type="curve" smooth="yes"/>
      <point x="266" y="443" type="line"/>
      <point x="289" y="443" type="line"/>
      <point x="310" y="506" type="line" smooth="yes"/>
      <point x="323" y="547"/>
      <point x="351" y="608"/>
      <point x="351" y="631" type="curve" smooth="yes"/>
      <point x="351" y="651"/>
      <point x="339" y="659"/>
    </contour>
    <contour>
      <point x="484" y="453" type="curve" smooth="yes"/>
      <point x="484" y="470"/>
      <point x="472" y="480"/>
      <point x="447" y="480" type="curve" smooth="yes"/>
      <point x="424" y="480"/>
      <point x="377" y="470"/>
      <point x="344" y="464" type="curve" smooth="yes"/>
      <point x="281" y="455" type="line"/>
      <point x="276" y="432" type="line"/>
      <point x="335" y="423" type="line" smooth="yes"/>
      <point x="366" y="417"/>
      <point x="410" y="408"/>
      <point x="433" y="408" type="curve" smooth="yes"/>
      <point x="466" y="408"/>
      <point x="484" y="425"/>
    </contour>
  </outline>
</glyph>
<glyph name="bullet" format="2">
  <advance width="287"/>
  <unicode hex="2022"/>
  <outline>
    <contour>
      <point x="246" y="271" type="curve" smooth="yes"/>
      <point x="246" y="214"/>
      <point x="200" y="169"/>
      <point x="143" y="169" type="curve" smooth="yes"/>
      <point x="86" y="169"/>
      <point x="41" y="215"/>
      <point x="41" y="271" type="curve" smooth="yes"/>
      <point x="41" y="328"/>
      <point x="86" y="374"/>
      <point x="143" y="374" type="curve" smooth="yes"/>
      <point x="200" y="374"/>
      <point x="246" y="329"/>
    </contour>
  </outline>
</glyph>
<glyph name="guilsinglright" format="2">
  <advance width="324"/>
  <unicode hex="203A"/>
  <outline>
    <contour>
      <point x="122" y="420" type="line"/>
      <point x="94" y="394" type="line"/>
      <point x="230" y="212" type="line"/>
      <point x="238" y="252" type="line"/>
      <point x="46" y="72" type="line"/>
      <point x="68" y="44" type="line"/>
      <point x="279" y="207" type="line"/>
      <point x="287" y="257" type="line"/>
    </contour>
  </outline>
</glyph>
<glyph name="bulletoperator" format="2">
  <advance width="276"/>
  <unicode hex="2219"/>
  <outline>
    <contour>
      <point x="167" y="239" type="curve" smooth="yes"/>
      <point x="204" y="239"/>
      <point x="234" y="267"/>
      <point x="234" y="305" type="curve" smooth="yes"/>
      <point x="234" y="335"/>
      <point x="211" y="360"/>
      <point x="178" y="360" type="curve" smooth="yes"/>
      <point x="142" y="360"/>
      <point x="110" y="332"/>
      <point x="110" y="294" type="curve" smooth="yes"/>
      <point x="110" y="263"/>
      <point x="134" y="239"/>
    </contour>
  </outline>
</glyph>
<glyph name="radical" format="2">
  <advance width="514"/>
  <unicode hex="221A"/>
  <outline>
    <contour>
      <point x="147" y="305" type="line"/>
      <point x="264" y="-92" type="line"/>
      <point x="313" y="-92" type="line"/>
      <point x="582" y="718" type="line"/>
      <point x="506" y="718" type="line"/>
      <point x="287" y="-43" type="line"/>
      <point x="316" y="-40" type="line"/>
      <point x="211" y="326" type="line"/>
      <point x="80" y="326" type="line"/>
      <point x="80" y="278" type="line"/>
      <point x="170" y="278" type="line"/>
    </contour>
  </outline>
</glyph>
<glyph name="integral" format="2">
  <advance width="335"/>
  <unicode hex="222B"/>
  <outline>
    <contour>
      <point x="158" y="255" type="curve" smooth="yes"/>
      <point x="147" y="162"/>
      <point x="134" y="79"/>
      <point x="117" y="-4" type="curve" smooth="yes"/>
      <point x="103" y="-77"/>
      <point x="72" y="-170"/>
      <point x="6" y="-197" type="curve"/>
      <point x="33" y="-198" type="line"/>
      <point x="15" y="-165" type="line" smooth="yes"/>
      <point x="1" y="-139"/>
      <point x="-13" y="-133"/>
      <point x="-31" y="-133" type="curve" smooth="yes"/>
      <point x="-56" y="-133"/>
      <point x="-73" y="-150"/>
      <point x="-80" y="-176" type="curve"/>
      <point x="-78" y="-206"/>
      <point x="-53" y="-228"/>
      <point x="-12" y="-228" type="curve" smooth="yes"/>
      <point x="57" y="-228"/>
      <point x="151" y="-163"/>
      <point x="188" y="30" type="curve" smooth="yes"/>
      <point x="203" y="106"/>
      <point x="218" y="183"/>
      <point x="226" y="265" type="curve" smooth="yes"/>
      <point x="242" y="413"/>
      <point x="251" y="458"/>
      <point x="256" y="483" type="curve" smooth="yes"/>
      <point x="276" y="584"/>
      <point x="305" y="652"/>
      <point x="368" y="677" type="curve"/>
      <point x="340" y="678" type="line"/>
      <point x="358" y="644" type="line" smooth="yes"/>
      <point x="373" y="621"/>
      <point x="388" y="612"/>
      <point x="406" y="612" type="curve" smooth="yes"/>
      <point x="430" y="612"/>
      <point x="448" y="629"/>
      <point x="455" y="655" type="curve"/>
      <point x="452" y="685"/>
      <point x="426" y="707"/>
      <point x="387" y="707" type="curve" smooth="yes"/>
      <point x="311" y="707"/>
      <point x="219" y="640"/>
      <point x="185" y="448" type="curve" smooth="yes"/>
      <point x="181" y="427"/>
      <point x="172" y="388"/>
    </contour>
  </outline>
</glyph>
<glyph name="greaterequal" format="2">
  <advance width="489"/>
  <unicode hex="2265"/>
  <outline>
    <contour>
      <point x="63" y="0" type="line"/>
      <point x="472" y="0" type="line"/>
      <point x="472" y="51" type="line"/>
      <point x="63" y="51" type="line"/>
    </contour>
    <contour>
      <point x="451" y="275" type="line"/>
      <point x="451" y="318" type="line"/>
      <point x="105" y="494" type="line"/>
      <point x="79" y="446" type="line"/>
      <point x="400" y="287" type="line"/>
      <point x="400" y="306" type="line"/>
      <point x="79" y="147" type="line"/>
      <point x="105" y="99" type="line"/>
    </contour>
  </outline>
</glyph>
<glyph name="uni2605" format="2">
  <advance width="794"/>
  <unicode hex="2605"/>
  <outline>
    <contour>
      <point x="487" y="270" type="line"/>
      <point x="498" y="76" type="line"/>
      <point x="362" y="196" type="line"/>
      <point x="162" y="76" type="line"/>
      <point x="279" y="270" type="line"/>
      <point x="143" y="392" type="line"/>
      <point x="351" y="392" type="line"/>
      <point x="466" y="587" type="line"/>
      <point x="479" y="392" type="line"/>
      <point x="686" y="392" type="line"/>
    </contour>
  </outline>
</glyph>
<glyph name="uniA4D2" format="2">
  <advance width="495"/>
  <unicode hex="A4D2"/>
  <outline>
    <contour>
      <point x="377" y="326" type="line"/>
      <point x="349" y="334"/>
      <point x="292" y="340"/>
      <point x="268" y="340" type="curve" smooth="yes"/>
      <point x="113" y="340"/>
      <point x="24" y="248"/>
      <point x="24" y="141" type="curve" smooth="yes"/>
      <point x="24" y="61"/>
      <point x="98" y="-10"/>
      <point x="227" y="-10" type="curve" smooth="yes"/>
      <point x="291" y="-10"/>
      <point x="338" y="0"/>
      <point x="367" y="12" type="curve" smooth="yes"/>
      <point x="403" y="27"/>
      <point x="420" y="44"/>
      <point x="420" y="65" type="curve" smooth="yes"/>
      <point x="420" y="78"/>
      <point x="413" y="90"/>
      <point x="399" y="90" type="curve" smooth="yes"/>
      <point x="394" y="90"/>
      <point x="385" y="88"/>
      <point x="374" y="83" type="curve" smooth="yes"/>
      <point x="343" y="68"/>
      <point x="280" y="55"/>
      <point x="241" y="55" type="curve" smooth="yes"/>
      <point x="148" y="55"/>
      <point x="97" y="98"/>
      <point x="97" y="153" type="curve" smooth="yes"/>
      <point x="97" y="219"/>
      <point x="165" y="275"/>
      <point x="261" y="275" type="curve" smooth="yes"/>
      <point x="287" y="275"/>
      <point x="331" y="271"/>
      <point x="355" y="264" type="curve"/>
    </contour>
    <contour>
      <point x="297" y="44" type="curve" smooth="yes"/>
      <point x="318" y="44"/>
      <point x="325" y="47"/>
      <point x="331" y="54" type="curve" smooth="yes"/>
      <point x="335" y="58"/>
      <point x="338" y="66"/>
      <point x="340" y="73" type="curve" smooth="yes"/>
      <point x="348" y="96"/>
      <point x="350" y="102"/>
      <point x="358" y="126" type="curve" smooth="yes"/>
      <point x="388" y="216"/>
      <point x="418" y="300"/>
      <point x="450" y="389" type="curve" smooth="yes"/>
      <point x="463" y="425"/>
      <point x="475" y="455"/>
      <point x="488" y="493" type="curve" smooth="yes"/>
      <point x="490" y="499"/>
      <point x="492" y="505"/>
      <point x="492" y="512" type="curve" smooth="yes"/>
      <point x="492" y="520"/>
      <point x="485" y="532"/>
      <point x="453" y="532" type="curve" smooth="yes"/>
      <point x="421" y="532"/>
      <point x="410" y="523"/>
      <point x="405" y="506" type="curve" smooth="yes"/>
      <point x="400" y="490"/>
      <point x="393" y="463"/>
      <point x="381" y="425" type="curve" smooth="yes"/>
      <point x="358" y="352"/>
      <point x="327" y="259"/>
      <point x="291" y="163" type="curve" smooth="yes"/>
      <point x="275" y="120"/>
      <point x="275" y="121"/>
      <point x="263" y="89" type="curve" smooth="yes"/>
      <point x="258" y="76"/>
      <point x="257" y="70"/>
      <point x="257" y="64" type="curve" smooth="yes"/>
      <point x="257" y="55"/>
      <point x="273" y="44"/>
    </contour>
  </outline>
</glyph>
<glyph name="uniA4D3" format="2">
  <advance width="536"/>
  <unicode hex="A4D3"/>
  <outline>
    <contour>
      <point x="183" y="-10" type="curve" smooth="yes"/>
      <point x="391" y="-10"/>
      <point x="520" y="130"/>
      <point x="520" y="321" type="curve" smooth="yes"/>
      <point x="520" y="452"/>
      <point x="412" y="538"/>
      <point x="281" y="538" type="curve" smooth="yes"/>
      <point x="215" y="538"/>
      <point x="157" y="520"/>
      <point x="120" y="500" type="curve" smooth="yes"/>
      <point x="108" y="493"/>
      <point x="101" y="488"/>
      <point x="101" y="477" type="curve" smooth="yes"/>
      <point x="101" y="466"/>
      <point x="104" y="454"/>
      <point x="110" y="445" type="curve" smooth="yes"/>
      <point x="114" y="439"/>
      <point x="121" y="434"/>
      <point x="127" y="434" type="curve" smooth="yes"/>
      <point x="132" y="434"/>
      <point x="138" y="435"/>
      <point x="144" y="438" type="curve" smooth="yes"/>
      <point x="162" y="447"/>
      <point x="216" y="473"/>
      <point x="265" y="473" type="curve" smooth="yes"/>
      <point x="370" y="473"/>
      <point x="447" y="422"/>
      <point x="447" y="312" type="curve" smooth="yes"/>
      <point x="447" y="163"/>
      <point x="348" y="55"/>
      <point x="192" y="55" type="curve" smooth="yes"/>
      <point x="143" y="55"/>
      <point x="85" y="61"/>
      <point x="35" y="75" type="curve" smooth="yes"/>
      <point x="26" y="77"/>
      <point x="20" y="78"/>
      <point x="14" y="78" type="curve" smooth="yes"/>
      <point x="8" y="78"/>
      <point x="0" y="70"/>
      <point x="-4" y="64" type="curve" smooth="yes"/>
      <point x="-10" y="56"/>
      <point x="-15" y="46"/>
      <point x="-15" y="32" type="curve" smooth="yes"/>
      <point x="-15" y="21"/>
      <point x="-11" y="16"/>
      <point x="3" y="12" type="curve" smooth="yes"/>
      <point x="56" y="-3"/>
      <point x="118" y="-10"/>
    </contour>
    <contour>
      <point x="93" y="22" type="curve" smooth="yes"/>
      <point x="118" y="22"/>
      <point x="129" y="30"/>
      <point x="135" y="47" type="curve" smooth="yes"/>
      <point x="141" y="63"/>
      <point x="145" y="79"/>
      <point x="153" y="104" type="curve" smooth="yes"/>
      <point x="176" y="177"/>
      <point x="206" y="270"/>
      <point x="242" y="366" type="curve" smooth="yes"/>
      <point x="258" y="409"/>
      <point x="258" y="408"/>
      <point x="270" y="440" type="curve" smooth="yes"/>
      <point x="275" y="453"/>
      <point x="276" y="459"/>
      <point x="276" y="465" type="curve" smooth="yes"/>
      <point x="276" y="474"/>
      <point x="260" y="485"/>
      <point x="236" y="485" type="curve" smooth="yes"/>
      <point x="215" y="485"/>
      <point x="208" y="482"/>
      <point x="202" y="475" type="curve" smooth="yes"/>
      <point x="198" y="471"/>
      <point x="195" y="463"/>
      <point x="193" y="456" type="curve" smooth="yes"/>
      <point x="185" y="433"/>
      <point x="183" y="427"/>
      <point x="175" y="403" type="curve" smooth="yes"/>
      <point x="145" y="313"/>
      <point x="116" y="229"/>
      <point x="84" y="140" type="curve" smooth="yes"/>
      <point x="71" y="104"/>
      <point x="66" y="89"/>
      <point x="56" y="61" type="curve" smooth="yes"/>
      <point x="54" y="56"/>
      <point x="53" y="49"/>
      <point x="53" y="42" type="curve" smooth="yes"/>
      <point x="53" y="35"/>
      <point x="60" y="22"/>
    </contour>
  </outline>
</glyph>
<glyph name="uniA4D5" format="2">
  <advance width="542"/>
  <unicode hex="A4D5"/>
  <outline>
    <contour>
      <point x="352" y="-4" type="curve" smooth="yes"/>
      <point x="389" y="-4"/>
      <point x="402" y="-6"/>
      <point x="440" y="-6" type="curve" smooth="yes"/>
      <point x="450" y="-6"/>
      <point x="460" y="0"/>
      <point x="460" y="14" type="curve" smooth="yes"/>
      <point x="460" y="28"/>
      <point x="455" y="41"/>
      <point x="450" y="49" type="curve" smooth="yes"/>
      <point x="445" y="57"/>
      <point x="436" y="61"/>
      <point x="421" y="63" type="curve" smooth="yes"/>
      <point x="395" y="66"/>
      <point x="376" y="67"/>
      <point x="326" y="67" type="curve" smooth="yes"/>
      <point x="283" y="67"/>
      <point x="69" y="63"/>
      <point x="42" y="63" type="curve" smooth="yes"/>
      <point x="26" y="63"/>
      <point x="9" y="64"/>
      <point x="-6" y="64" type="curve" smooth="yes"/>
      <point x="-18" y="64"/>
      <point x="-28" y="63"/>
      <point x="-34" y="59" type="curve" smooth="yes"/>
      <point x="-40" y="55"/>
      <point x="-44" y="43"/>
      <point x="-44" y="37" type="curve" smooth="yes"/>
      <point x="-44" y="7"/>
      <point x="-12" y="-8"/>
      <point x="25" y="-8" type="curve" smooth="yes"/>
      <point x="87" y="-8"/>
      <point x="288" y="-4"/>
    </contour>
    <contour>
      <point x="206" y="0" type="curve" smooth="yes"/>
      <point x="238" y="0"/>
      <point x="249" y="9"/>
      <point x="254" y="26" type="curve" smooth="yes"/>
      <point x="259" y="42"/>
      <point x="268" y="75"/>
      <point x="280" y="113" type="curve" smooth="yes"/>
      <point x="303" y="186"/>
      <point x="330" y="270"/>
      <point x="366" y="366" type="curve" smooth="yes"/>
      <point x="382" y="409"/>
      <point x="402" y="453"/>
      <point x="416" y="496" type="curve" smooth="yes"/>
      <point x="418" y="502"/>
      <point x="419" y="506"/>
      <point x="419" y="510" type="curve" smooth="yes"/>
      <point x="419" y="521"/>
      <point x="403" y="532"/>
      <point x="377" y="532" type="curve" smooth="yes"/>
      <point x="356" y="532"/>
      <point x="347" y="529"/>
      <point x="342" y="522" type="curve" smooth="yes"/>
      <point x="338" y="517"/>
      <point x="334" y="508"/>
      <point x="332" y="503" type="curve" smooth="yes"/>
      <point x="319" y="470"/>
      <point x="310" y="436"/>
      <point x="299" y="403" type="curve" smooth="yes"/>
      <point x="269" y="313"/>
      <point x="243" y="238"/>
      <point x="211" y="149" type="curve" smooth="yes"/>
      <point x="198" y="113"/>
      <point x="184" y="77"/>
      <point x="171" y="39" type="curve" smooth="yes"/>
      <point x="169" y="33"/>
      <point x="167" y="27"/>
      <point x="167" y="20" type="curve" smooth="yes"/>
      <point x="167" y="12"/>
      <point x="174" y="0"/>
    </contour>
  </outline>
</glyph>
<glyph name="uniA4D9" format="2">
  <advance width="474"/>
  <unicode hex="A4D9"/>
  <outline>
    <contour>
      <point x="443" y="376" type="curve" smooth="yes"/>
      <point x="456" y="412"/>
      <point x="475" y="454"/>
      <point x="488" y="492" type="curve" smooth="yes"/>
      <point x="490" y="498"/>
      <point x="492" y="504"/>
      <point x="492" y="511" type="curve" smooth="yes"/>
      <point x="492" y="519"/>
      <point x="482" y="532"/>
      <point x="450" y="532" type="curve" smooth="yes"/>
      <point x="418" y="532"/>
      <point x="411" y="523"/>
      <point x="406" y="506" type="curve" smooth="yes"/>
      <point x="401" y="490"/>
      <point x="389" y="453"/>
      <point x="376" y="415" type="curve" smooth="yes"/>
      <point x="356" y="357"/>
      <point x="333" y="292"/>
      <point x="313" y="236" type="curve" smooth="yes"/>
      <point x="279" y="140"/>
      <point x="246" y="63"/>
      <point x="169" y="63" type="curve" smooth="yes"/>
      <point x="114" y="63"/>
      <point x="94" y="89"/>
      <point x="84" y="119" type="curve" smooth="yes"/>
      <point x="78" y="137"/>
      <point x="79" y="155"/>
      <point x="74" y="165" type="curve" smooth="yes"/>
      <point x="71" y="171"/>
      <point x="63" y="174"/>
      <point x="53" y="174" type="curve" smooth="yes"/>
      <point x="30" y="174"/>
      <point x="2" y="159"/>
      <point x="2" y="142" type="curve" smooth="yes"/>
      <point x="2" y="132"/>
      <point x="4" y="110"/>
      <point x="14" y="85" type="curve" smooth="yes"/>
      <point x="34" y="34"/>
      <point x="80" y="-10"/>
      <point x="159" y="-10" type="curve" smooth="yes"/>
      <point x="272" y="-10"/>
      <point x="327" y="66"/>
      <point x="368" y="174" type="curve" smooth="yes"/>
      <point x="390" y="232"/>
      <point x="418" y="308"/>
    </contour>
  </outline>
</glyph>
<glyph name="uniA4DC" format="2">
  <advance width="519"/>
  <unicode hex="A4DC"/>
  <outline>
    <contour>
      <point x="129" y="495" type="curve" smooth="yes"/>
      <point x="138" y="469"/>
      <point x="150" y="465"/>
      <point x="168" y="465" type="curve" smooth="yes"/>
      <point x="185" y="465"/>
      <point x="219" y="466"/>
      <point x="258" y="466" type="curve" smooth="yes"/>
      <point x="287" y="466"/>
      <point x="326" y="467"/>
      <point x="359" y="467" type="curve" smooth="yes"/>
      <point x="404" y="467"/>
      <point x="452" y="465"/>
      <point x="497" y="465" type="curve" smooth="yes"/>
      <point x="503" y="465"/>
      <point x="516" y="465"/>
      <point x="519" y="466" type="curve" smooth="yes"/>
      <point x="528" y="469"/>
      <point x="531" y="474"/>
      <point x="531" y="485" type="curve" smooth="yes"/>
      <point x="531" y="490"/>
      <point x="529" y="497"/>
      <point x="527" y="504" type="curve" smooth="yes"/>
      <point x="522" y="522"/>
      <point x="515" y="528"/>
      <point x="507" y="531" type="curve" smooth="yes"/>
      <point x="500" y="534"/>
      <point x="483" y="535"/>
      <point x="478" y="535" type="curve" smooth="yes"/>
      <point x="459" y="535"/>
      <point x="371" y="534"/>
      <point x="323" y="534" type="curve" smooth="yes"/>
      <point x="265" y="534"/>
      <point x="195" y="535"/>
      <point x="155" y="535" type="curve" smooth="yes"/>
      <point x="149" y="535"/>
      <point x="142" y="535"/>
      <point x="136" y="533" type="curve" smooth="yes"/>
      <point x="131" y="531"/>
      <point x="125" y="525"/>
      <point x="125" y="513" type="curve" smooth="yes"/>
      <point x="125" y="508"/>
      <point x="126" y="504"/>
    </contour>
    <contour>
      <point x="12" y="21" type="curve" smooth="yes"/>
      <point x="20" y="-3"/>
      <point x="33" y="-7"/>
      <point x="51" y="-7" type="curve" smooth="yes"/>
      <point x="69" y="-7"/>
      <point x="102" y="-6"/>
      <point x="142" y="-6" type="curve" smooth="yes"/>
      <point x="171" y="-6"/>
      <point x="219" y="-5"/>
      <point x="252" y="-5" type="curve" smooth="yes"/>
      <point x="298" y="-5"/>
      <point x="355" y="-7"/>
      <point x="401" y="-7" type="curve" smooth="yes"/>
      <point x="407" y="-7"/>
      <point x="419" y="-6"/>
      <point x="422" y="-5" type="curve" smooth="yes"/>
      <point x="429" y="-3"/>
      <point x="434" y="4"/>
      <point x="434" y="14" type="curve" smooth="yes"/>
      <point x="434" y="19"/>
      <point x="433" y="26"/>
      <point x="428" y="39" type="curve" smooth="yes"/>
      <point x="423" y="51"/>
      <point x="418" y="57"/>
      <point x="411" y="60" type="curve" smooth="yes"/>
      <point x="404" y="63"/>
      <point x="387" y="63"/>
      <point x="382" y="63" type="curve" smooth="yes"/>
      <point x="346" y="63"/>
      <point x="302" y="62"/>
      <point x="268" y="62" type="curve" smooth="yes"/>
      <point x="222" y="62"/>
      <point x="191" y="61"/>
      <point x="155" y="61" type="curve" smooth="yes"/>
      <point x="117" y="61"/>
      <point x="78" y="61"/>
      <point x="38" y="61" type="curve" smooth="yes"/>
      <point x="32" y="61"/>
      <point x="22" y="60"/>
      <point x="19" y="59" type="curve" smooth="yes"/>
      <point x="14" y="57"/>
      <point x="8" y="53"/>
      <point x="8" y="41" type="curve" smooth="yes"/>
      <point x="8" y="36"/>
      <point x="9" y="30"/>
    </contour>
    <contour>
      <point x="43" y="5" type="curve" smooth="yes"/>
      <point x="47" y="5"/>
      <point x="57" y="11"/>
      <point x="65" y="17" type="curve" smooth="yes"/>
      <point x="148" y="79"/>
      <point x="468" y="413"/>
      <point x="502" y="445" type="curve" smooth="yes"/>
      <point x="530" y="472"/>
      <point x="530" y="473"/>
      <point x="530" y="480" type="curve" smooth="yes"/>
      <point x="530" y="486"/>
      <point x="529" y="491"/>
      <point x="523" y="500" type="curve" smooth="yes"/>
      <point x="518" y="507"/>
      <point x="506" y="516"/>
      <point x="492" y="516" type="curve" smooth="yes"/>
      <point x="479" y="516"/>
      <point x="474" y="513"/>
      <point x="462" y="500" type="curve" smooth="yes"/>
      <point x="439" y="475"/>
      <point x="90" y="116"/>
      <point x="16" y="60" type="curve" smooth="yes"/>
      <point x="12" y="57"/>
      <point x="9" y="51"/>
      <point x="9" y="44" type="curve" smooth="yes"/>
      <point x="9" y="40"/>
      <point x="9" y="35"/>
      <point x="11" y="29" type="curve" smooth="yes"/>
      <point x="13" y="23"/>
      <point x="20" y="15"/>
      <point x="26" y="10" type="curve" smooth="yes"/>
      <point x="30" y="7"/>
      <point x="36" y="5"/>
    </contour>
  </outline>
</glyph>
